<svg width="464" height="474" viewBox="0 0 464 474" fill="none" xmlns="http://www.w3.org/2000/svg">
<g clip-path="url(#clip0_41_161)">
<path d="M429.8 117.5C426.6 112.4 423 107.5 419.1 102.8C387.3 64.6 345.7 48.4 298.2 37.6C249.1 26.4 191.7 22.9 144.6 43.1C133.5 47.9 123 54.2 114.6 62.9C83.2 95.4 72.4 150 37.3 193.1C2.2 236.2 -14.9 289.9 16.6 340.9C29.9 362.5 46.9 380.3 67 395.9C91.8 415.1 113.1 441.1 141.7 456.1C171.8 471.9 211.8 477.4 245.1 470.2C283.1 462 305.4 429.2 334.3 406.8C357.2 389.2 384.5 377.6 406.9 359.4C441.2 331.5 467.2 286.7 462.9 242.3C458.8 199.3 453.3 154.5 429.8 117.5Z" fill="white"/>
<path d="M215 422.3C215 424.7 217 426.7 219.5 426.7C222 426.7 224 424.7 224 422.3C224 419.9 222 417.9 219.5 417.9C217 417.9 215 419.9 215 422.3Z" stroke="url(#paint0_linear_41_161)" stroke-miterlimit="10" stroke-linecap="round" stroke-linejoin="round"/>
<path d="M221 420.1C220.6 419.9 220.2 419.7 219.7 419.7" stroke="url(#paint1_linear_41_161)" stroke-miterlimit="10" stroke-linecap="round" stroke-linejoin="round"/>
<path d="M220.3 424.9C221.4 424.5 222.2 423.5 222.2 422.3C222.2 422 222.1 421.7 222 421.4" stroke="url(#paint2_linear_41_161)" stroke-miterlimit="10" stroke-linecap="round" stroke-linejoin="round"/>
<path d="M210.7 452.8C210.7 455.2 212.7 457.2 215.2 457.2C217.7 457.2 219.7 455.2 219.7 452.8C219.7 450.4 217.7 448.4 215.2 448.4C212.7 448.4 210.7 450.4 210.7 452.8Z" stroke="url(#paint3_linear_41_161)" stroke-miterlimit="10" stroke-linecap="round" stroke-linejoin="round"/>
<path d="M216.8 450.6C216.4 450.4 216 450.2 215.5 450.2" stroke="url(#paint4_linear_41_161)" stroke-miterlimit="10" stroke-linecap="round" stroke-linejoin="round"/>
<path d="M216.1 455.3C217.2 454.9 218 453.9 218 452.7C218 452.4 217.9 452.1 217.8 451.8" stroke="url(#paint5_linear_41_161)" stroke-miterlimit="10" stroke-linecap="round" stroke-linejoin="round"/>
<path d="M235.7 419.4C237.909 419.4 239.7 417.654 239.7 415.5C239.7 413.346 237.909 411.6 235.7 411.6C233.491 411.6 231.7 413.346 231.7 415.5C231.7 417.654 233.491 419.4 235.7 419.4Z" stroke="url(#paint6_linear_41_161)" stroke-miterlimit="10" stroke-linecap="round" stroke-linejoin="round"/>
<path d="M237.1 413.5C236.8 413.3 236.4 413.1 236 413.1" stroke="url(#paint7_linear_41_161)" stroke-miterlimit="10" stroke-linecap="round" stroke-linejoin="round"/>
<path d="M236.5 417.7C237.5 417.4 238.2 416.5 238.2 415.4C238.2 415.1 238.1 414.8 238.1 414.6" stroke="url(#paint8_linear_41_161)" stroke-miterlimit="10" stroke-linecap="round" stroke-linejoin="round"/>
<path d="M224.1 441.4C224.1 443.5 225.9 445.3 228.1 445.3C230.3 445.3 232.1 443.6 232.1 441.4C232.1 439.2 230.3 437.5 228.1 437.5C225.9 437.5 224.1 439.3 224.1 441.4Z" stroke="url(#paint9_linear_41_161)" stroke-miterlimit="10" stroke-linecap="round" stroke-linejoin="round"/>
<path d="M229.5 439.4C229.2 439.2 228.8 439 228.4 439" stroke="url(#paint10_linear_41_161)" stroke-miterlimit="10" stroke-linecap="round" stroke-linejoin="round"/>
<path d="M228.9 443.7C229.9 443.4 230.6 442.5 230.6 441.4C230.6 441.1 230.5 440.8 230.5 440.6" stroke="url(#paint11_linear_41_161)" stroke-miterlimit="10" stroke-linecap="round" stroke-linejoin="round"/>
<path d="M238.7 400C240.909 400 242.7 398.254 242.7 396.1C242.7 393.946 240.909 392.2 238.7 392.2C236.491 392.2 234.7 393.946 234.7 396.1C234.7 398.254 236.491 400 238.7 400Z" stroke="url(#paint12_linear_41_161)" stroke-miterlimit="10" stroke-linecap="round" stroke-linejoin="round"/>
<path d="M240.1 394.1C239.8 393.9 239.4 393.7 239 393.7" stroke="url(#paint13_linear_41_161)" stroke-miterlimit="10" stroke-linecap="round" stroke-linejoin="round"/>
<path d="M239.5 398.4C240.5 398.1 241.2 397.2 241.2 396.1C241.2 395.8 241.1 395.5 241.1 395.3" stroke="url(#paint14_linear_41_161)" stroke-miterlimit="10" stroke-linecap="round" stroke-linejoin="round"/>
<path d="M253.7 398.7C253.7 399.9 254.7 400.9 256 400.9C257.2 400.9 258.3 399.9 258.3 398.7C258.3 397.5 257.3 396.5 256 396.5C254.7 396.6 253.7 397.5 253.7 398.7Z" stroke="url(#paint15_linear_41_161)" stroke-miterlimit="10" stroke-linecap="round" stroke-linejoin="round"/>
<path d="M256.8 397.6C256.6 397.5 256.4 397.4 256.2 397.4" stroke="url(#paint16_linear_41_161)" stroke-miterlimit="10" stroke-linecap="round" stroke-linejoin="round"/>
<path d="M256.4 400C257 399.8 257.4 399.3 257.4 398.7C257.4 398.5 257.4 398.4 257.3 398.2" stroke="url(#paint17_linear_41_161)" stroke-miterlimit="10" stroke-linecap="round" stroke-linejoin="round"/>
<path d="M232.2 435.5C232.2 439.2 235.3 442.1 239 442.1C242.8 442.1 245.8 439.1 245.8 435.5C245.8 431.8 242.7 428.9 239 428.9C235.3 428.9 232.2 431.9 232.2 435.5Z" stroke="url(#paint18_linear_41_161)" stroke-miterlimit="10" stroke-linecap="round" stroke-linejoin="round"/>
<path d="M241.4 432.1C240.8 431.7 240.2 431.5 239.5 431.4" stroke="url(#paint19_linear_41_161)" stroke-miterlimit="10" stroke-linecap="round" stroke-linejoin="round"/>
<path d="M240.4 439.4C242.1 438.9 243.3 437.3 243.3 435.5C243.3 435 243.2 434.6 243.1 434.1" stroke="url(#paint20_linear_41_161)" stroke-miterlimit="10" stroke-linecap="round" stroke-linejoin="round"/>
<path d="M271.2 396.1C271.2 399.8 274.3 402.7 278 402.7C281.8 402.7 284.8 399.7 284.8 396.1C284.8 392.5 281.7 389.5 278 389.5C274.3 389.5 271.2 392.4 271.2 396.1Z" stroke="url(#paint21_linear_41_161)" stroke-miterlimit="10" stroke-linecap="round" stroke-linejoin="round"/>
<path d="M280.4 392.7C279.8 392.3 279.2 392.1 278.5 392" stroke="url(#paint22_linear_41_161)" stroke-miterlimit="10" stroke-linecap="round" stroke-linejoin="round"/>
<path d="M279.4 399.9C281.1 399.4 282.3 397.8 282.3 396C282.3 395.5 282.2 395.1 282.1 394.6" stroke="url(#paint23_linear_41_161)" stroke-miterlimit="10" stroke-linecap="round" stroke-linejoin="round"/>
<path d="M197.2 294.9C197.2 296.9 195.6 298.4 193.6 298.4C191.6 298.4 190 296.8 190 294.9C190 293 191.6 291.4 193.6 291.4C195.6 291.4 197.2 293 197.2 294.9Z" stroke="url(#paint24_linear_41_161)" stroke-miterlimit="10" stroke-linecap="round" stroke-linejoin="round"/>
<path d="M192.3 293.1C192.6 292.9 193 292.8 193.3 292.7" stroke="url(#paint25_linear_41_161)" stroke-miterlimit="10" stroke-linecap="round" stroke-linejoin="round"/>
<path d="M192.9 297C192 296.7 191.4 295.9 191.4 294.9C191.4 294.6 191.4 294.4 191.5 294.2" stroke="url(#paint26_linear_41_161)" stroke-miterlimit="10" stroke-linecap="round" stroke-linejoin="round"/>
<path d="M200.7 319.5C200.7 321.5 199.1 323 197.1 323C195.1 323 193.5 321.4 193.5 319.5C193.5 317.6 195.1 316 197.1 316C199 316 200.7 317.6 200.7 319.5Z" stroke="url(#paint27_linear_41_161)" stroke-miterlimit="10" stroke-linecap="round" stroke-linejoin="round"/>
<path d="M195.8 317.7C196.1 317.5 196.5 317.4 196.8 317.3" stroke="url(#paint28_linear_41_161)" stroke-miterlimit="10" stroke-linecap="round" stroke-linejoin="round"/>
<path d="M196.3 321.6C195.4 321.3 194.8 320.5 194.8 319.5C194.8 319.2 194.8 319 194.9 318.8" stroke="url(#paint29_linear_41_161)" stroke-miterlimit="10" stroke-linecap="round" stroke-linejoin="round"/>
<path d="M183.7 289.4C183.7 291.1 182.3 292.5 180.5 292.5C178.7 292.5 177.3 291.1 177.3 289.4C177.3 287.7 178.7 286.3 180.5 286.3C182.2 286.2 183.7 287.6 183.7 289.4Z" stroke="url(#paint30_linear_41_161)" stroke-miterlimit="10" stroke-linecap="round" stroke-linejoin="round"/>
<path d="M179.3 287.8C179.6 287.6 179.9 287.5 180.2 287.5" stroke="url(#paint31_linear_41_161)" stroke-miterlimit="10" stroke-linecap="round" stroke-linejoin="round"/>
<path d="M179.8 291.2C179 290.9 178.4 290.2 178.4 289.4C178.4 289.2 178.4 289 178.5 288.7" stroke="url(#paint32_linear_41_161)" stroke-miterlimit="10" stroke-linecap="round" stroke-linejoin="round"/>
<path d="M189.8 310.3C189.8 312 188.4 313.4 186.6 313.4C184.8 313.4 183.4 312 183.4 310.3C183.4 308.6 184.8 307.2 186.6 307.2C188.4 307.2 189.8 308.6 189.8 310.3Z" stroke="url(#paint33_linear_41_161)" stroke-miterlimit="10" stroke-linecap="round" stroke-linejoin="round"/>
<path d="M185.5 308.7C185.8 308.5 186.1 308.4 186.4 308.4" stroke="url(#paint34_linear_41_161)" stroke-miterlimit="10" stroke-linecap="round" stroke-linejoin="round"/>
<path d="M186 312.2C185.2 311.9 184.6 311.2 184.6 310.4C184.6 310.2 184.6 310 184.7 309.7" stroke="url(#paint35_linear_41_161)" stroke-miterlimit="10" stroke-linecap="round" stroke-linejoin="round"/>
<path d="M181.3 273.7C181.3 275.4 179.9 276.8 178.1 276.8C176.3 276.8 174.9 275.4 174.9 273.7C174.9 272 176.3 270.6 178.1 270.6C179.8 270.6 181.3 272 181.3 273.7Z" stroke="url(#paint36_linear_41_161)" stroke-miterlimit="10" stroke-linecap="round" stroke-linejoin="round"/>
<path d="M176.9 272.1C177.2 271.9 177.5 271.8 177.8 271.8" stroke="url(#paint37_linear_41_161)" stroke-miterlimit="10" stroke-linecap="round" stroke-linejoin="round"/>
<path d="M177.4 275.6C176.6 275.3 176 274.6 176 273.8C176 273.6 176 273.4 176.1 273.1" stroke="url(#paint38_linear_41_161)" stroke-miterlimit="10" stroke-linecap="round" stroke-linejoin="round"/>
<path d="M165.9 275.9C165.9 276.9 165.1 277.7 164.1 277.7C163.1 277.7 162.3 276.9 162.3 275.9C162.3 274.9 163.1 274.1 164.1 274.1C165.1 274.1 165.9 274.9 165.9 275.9Z" stroke="url(#paint39_linear_41_161)" stroke-miterlimit="10" stroke-linecap="round" stroke-linejoin="round"/>
<path d="M163.5 275C163.7 274.9 163.8 274.8 164 274.8" stroke="url(#paint40_linear_41_161)" stroke-miterlimit="10" stroke-linecap="round" stroke-linejoin="round"/>
<path d="M163.7 276.9C163.3 276.8 162.9 276.3 162.9 275.9C162.9 275.8 162.9 275.6 163 275.5" stroke="url(#paint41_linear_41_161)" stroke-miterlimit="10" stroke-linecap="round" stroke-linejoin="round"/>
<path d="M177.8 310.9C180.838 310.9 183.3 308.527 183.3 305.6C183.3 302.673 180.838 300.3 177.8 300.3C174.762 300.3 172.3 302.673 172.3 305.6C172.3 308.527 174.762 310.9 177.8 310.9Z" stroke="url(#paint42_linear_41_161)" stroke-miterlimit="10" stroke-linecap="round" stroke-linejoin="round"/>
<path d="M175.9 302.9C176.4 302.6 176.9 302.4 177.5 302.4" stroke="url(#paint43_linear_41_161)" stroke-miterlimit="10" stroke-linecap="round" stroke-linejoin="round"/>
<path d="M176.7 308.7C175.3 308.3 174.4 307 174.4 305.6C174.4 305.2 174.5 304.8 174.6 304.5" stroke="url(#paint44_linear_41_161)" stroke-miterlimit="10" stroke-linecap="round" stroke-linejoin="round"/>
<path d="M146.3 279C149.338 279 151.8 276.627 151.8 273.7C151.8 270.773 149.338 268.4 146.3 268.4C143.262 268.4 140.8 270.773 140.8 273.7C140.8 276.627 143.262 279 146.3 279Z" stroke="url(#paint45_linear_41_161)" stroke-miterlimit="10" stroke-linecap="round" stroke-linejoin="round"/>
<path d="M144.4 271C144.9 270.7 145.4 270.5 146 270.5" stroke="url(#paint46_linear_41_161)" stroke-miterlimit="10" stroke-linecap="round" stroke-linejoin="round"/>
<path d="M145.2 276.9C143.8 276.5 142.9 275.2 142.9 273.8C142.9 273.4 143 273 143.1 272.7" stroke="url(#paint47_linear_41_161)" stroke-miterlimit="10" stroke-linecap="round" stroke-linejoin="round"/>
<path d="M154.5 237.4C155.8 238.9 158.1 239 159.6 237.6C161.1 236.3 161.3 234 160 232.5C158.7 231 156.4 230.9 154.9 232.3C153.4 233.6 153.2 235.9 154.5 237.4Z" stroke="url(#paint48_linear_41_161)" stroke-miterlimit="10" stroke-linecap="round" stroke-linejoin="round"/>
<path d="M157 232.8C156.6 232.9 156.3 233 156 233.2" stroke="url(#paint49_linear_41_161)" stroke-miterlimit="10" stroke-linecap="round" stroke-linejoin="round"/>
<path d="M159.1 236.1C159.6 235.3 159.5 234.3 158.9 233.5C158.7 233.3 158.5 233.2 158.3 233" stroke="url(#paint50_linear_41_161)" stroke-miterlimit="10" stroke-linecap="round" stroke-linejoin="round"/>
<path d="M168.2 258.1C169.5 259.6 171.8 259.7 173.3 258.3C174.8 256.9 175 254.7 173.7 253.2C172.4 251.7 170.1 251.6 168.6 253C167.1 254.4 166.9 256.7 168.2 258.1Z" stroke="url(#paint51_linear_41_161)" stroke-miterlimit="10" stroke-linecap="round" stroke-linejoin="round"/>
<path d="M170.7 253.5C170.3 253.6 170 253.7 169.7 253.9" stroke="url(#paint52_linear_41_161)" stroke-miterlimit="10" stroke-linecap="round" stroke-linejoin="round"/>
<path d="M172.8 256.8C173.3 256 173.2 255 172.6 254.2C172.4 254 172.2 253.9 172 253.7" stroke="url(#paint53_linear_41_161)" stroke-miterlimit="10" stroke-linecap="round" stroke-linejoin="round"/>
<path d="M161 224.3C162.1 225.6 164.2 225.7 165.5 224.5C166.8 223.3 167 221.3 165.9 220C164.8 218.7 162.7 218.6 161.4 219.8C160 221 159.8 223 161 224.3Z" stroke="url(#paint54_linear_41_161)" stroke-miterlimit="10" stroke-linecap="round" stroke-linejoin="round"/>
<path d="M163.2 220.2C162.9 220.2 162.6 220.4 162.3 220.6" stroke="url(#paint55_linear_41_161)" stroke-miterlimit="10" stroke-linecap="round" stroke-linejoin="round"/>
<path d="M165.1 223.1C165.5 222.4 165.5 221.5 164.9 220.8C164.7 220.6 164.6 220.5 164.4 220.4" stroke="url(#paint56_linear_41_161)" stroke-miterlimit="10" stroke-linecap="round" stroke-linejoin="round"/>
<path d="M170.2 244.1C171.3 245.4 173.4 245.5 174.7 244.3C176 243.1 176.2 241.1 175.1 239.8C174 238.5 171.9 238.4 170.6 239.6C169.2 240.8 169.1 242.8 170.2 244.1Z" stroke="url(#paint57_linear_41_161)" stroke-miterlimit="10" stroke-linecap="round" stroke-linejoin="round"/>
<path d="M172.4 240C172.1 240 171.8 240.2 171.5 240.4" stroke="url(#paint58_linear_41_161)" stroke-miterlimit="10" stroke-linecap="round" stroke-linejoin="round"/>
<path d="M174.3 242.9C174.7 242.2 174.7 241.3 174.1 240.6C173.9 240.4 173.8 240.3 173.6 240.2" stroke="url(#paint59_linear_41_161)" stroke-miterlimit="10" stroke-linecap="round" stroke-linejoin="round"/>
<path d="M152.5 210.9C153.6 212.2 155.7 212.3 157 211.1C158.3 209.9 158.5 207.9 157.4 206.6C156.3 205.3 154.2 205.2 152.9 206.4C151.5 207.6 151.3 209.6 152.5 210.9Z" stroke="url(#paint60_linear_41_161)" stroke-miterlimit="10" stroke-linecap="round" stroke-linejoin="round"/>
<path d="M154.7 206.9C154.4 206.9 154.1 207.1 153.8 207.3" stroke="url(#paint61_linear_41_161)" stroke-miterlimit="10" stroke-linecap="round" stroke-linejoin="round"/>
<path d="M156.6 209.8C157 209.1 157 208.2 156.4 207.5C156.2 207.3 156.1 207.2 155.9 207.1" stroke="url(#paint62_linear_41_161)" stroke-miterlimit="10" stroke-linecap="round" stroke-linejoin="round"/>
<path d="M165.4 202.4C166 203.1 167.2 203.2 167.9 202.5C168.7 201.8 168.7 200.7 168.1 200C167.5 199.3 166.3 199.2 165.6 199.9C164.8 200.5 164.8 201.7 165.4 202.4Z" stroke="url(#paint63_linear_41_161)" stroke-miterlimit="10" stroke-linecap="round" stroke-linejoin="round"/>
<path d="M166.6 200.1C166.4 200.1 166.2 200.2 166.1 200.3" stroke="url(#paint64_linear_41_161)" stroke-miterlimit="10" stroke-linecap="round" stroke-linejoin="round"/>
<path d="M167.7 201.7C167.9 201.3 167.9 200.8 167.6 200.4C167.5 200.3 167.4 200.2 167.3 200.2" stroke="url(#paint65_linear_41_161)" stroke-miterlimit="10" stroke-linecap="round" stroke-linejoin="round"/>
<path d="M172 236.2C173.9 238.4 177.4 238.6 179.7 236.6C182 234.6 182.3 231.2 180.3 228.9C178.4 226.7 174.9 226.5 172.6 228.5C170.3 230.5 170 234 172 236.2Z" stroke="url(#paint66_linear_41_161)" stroke-miterlimit="10" stroke-linecap="round" stroke-linejoin="round"/>
<path d="M175.8 229.2C175.3 229.3 174.7 229.5 174.3 229.8" stroke="url(#paint67_linear_41_161)" stroke-miterlimit="10" stroke-linecap="round" stroke-linejoin="round"/>
<path d="M179 234.2C179.7 233 179.6 231.4 178.7 230.3C178.4 230 178.1 229.8 177.8 229.6" stroke="url(#paint68_linear_41_161)" stroke-miterlimit="10" stroke-linecap="round" stroke-linejoin="round"/>
<path d="M174.6 191.5C176.5 193.7 180 193.9 182.3 191.9C184.6 189.9 184.9 186.5 182.9 184.2C181 182 177.5 181.8 175.2 183.8C172.9 185.8 172.6 189.2 174.6 191.5Z" stroke="url(#paint69_linear_41_161)" stroke-miterlimit="10" stroke-linecap="round" stroke-linejoin="round"/>
<path d="M178.3 184.5C177.8 184.6 177.2 184.8 176.8 185.1" stroke="url(#paint70_linear_41_161)" stroke-miterlimit="10" stroke-linecap="round" stroke-linejoin="round"/>
<path d="M181.6 189.5C182.3 188.3 182.2 186.7 181.3 185.6C181 185.3 180.7 185.1 180.4 184.9" stroke="url(#paint71_linear_41_161)" stroke-miterlimit="10" stroke-linecap="round" stroke-linejoin="round"/>
<path opacity="0.37" d="M323.3 400.6C323.1 401.6 322.3 403.9 321.6 404.9C320.9 405.9 318.9 408.5 318.9 408.5L316 412.1L304 433.9C314 424.6 323.7 415 334.4 406.7C357.3 389.1 384.6 377.5 407 359.3C409.7 357.1 412.3 354.8 414.9 352.4C414.2 352.2 415 349.7 412.7 350.7C410.2 351.7 404.7 354.5 404.1 355.1C403.6 355.8 402.7 351.8 401.6 352.9C400.4 354 398.6 355.3 398.6 355.3C398.6 355.3 397.8 352.8 396.1 354.1C394.5 355.4 394.3 356.4 394.3 357.2C394.3 358 391.7 354.8 388.6 357.2C385.6 359.6 382.4 361.9 382.4 361.9C382.4 361.9 381.8 357.1 378.5 360.7C378 359.9 377.4 359 376.7 358.1C377 357.9 377.2 357.6 377.3 357.2C377.3 357.2 377.5 356.6 377.7 355.6C379 355.2 382 354.2 384.1 351.7C384.4 351.8 384.6 351.9 384.9 352.1C384.9 353.1 384.8 354.9 383.6 355.7C382.9 356.2 382.7 357.1 383.2 357.8C383.6 358.3 384.2 358.5 384.8 358.4C385 358.4 385.2 358.3 385.4 358.2C387.4 356.9 387.9 354.6 388 353C388.9 353.1 389.9 353.2 391 353.2C393.9 353.2 396.4 353 398.6 352.6C400.6 352.2 402.2 351.6 403.6 350.9C406.4 349.3 407.7 348.2 407.8 348.2C408.4 347.7 408.5 346.7 407.9 346.1C407.3 345.5 406.4 345.4 405.7 346C405.7 346 404.5 347 402 348.4C399.7 349.7 396 350.3 391 350.3C388.7 350.3 387 349.8 385.9 349.4C386.1 349.2 386.3 348.9 386.5 348.7C386.7 348.7 387.2 348.6 387.9 348.4C389.7 348 392.7 347.4 394.6 346.4C396.3 345.6 401.2 345.1 404 345C404.8 345 405.5 344.3 405.5 343.4C405.5 342.6 404.7 341.9 403.9 342C403.1 342 396 342.3 393.2 343.8C392.8 344 392.4 344.2 391.9 344.3C393.5 343.3 395.3 342.3 397.6 341.1C398.6 340.6 399.5 340.2 400.4 339.8C401.6 340.2 403.2 340.8 404 341.4C405.6 342.6 410.3 343.7 411.2 343.9C411.4 343.9 411.6 344 411.9 343.9C412.5 343.8 413 343.4 413.1 342.8C413.3 342 412.8 341.2 411.9 341C409.6 340.5 406.7 339.6 405.9 339C405.5 338.7 405 338.4 404.4 338.1C405.2 337.8 406 337.5 406.8 337.2C409.4 336.3 411.4 335.6 412.9 334.3C415.2 332.4 419.9 329.5 420 329.5L422.1 328.3C422.8 327.9 423.1 327 422.7 326.3C422.3 325.6 421.3 325.3 420.6 325.8L418.4 327C418.2 327.1 413.3 330 410.9 332.2C409.9 333 408.1 333.7 405.8 334.5C404.1 335.1 402.2 335.8 400 336.7C399.7 336.7 399.5 336.8 399.3 337C398.3 337.4 397.3 337.9 396.2 338.5C388.5 342.5 384.9 345.3 382.5 349.1C381.5 350.6 380 351.6 378.8 352.2C379.1 350.9 379.5 349.5 379.8 348.3C382 347.4 386.7 345.3 388 342.5C388.4 341.6 388.6 340.9 388.8 340.4C389.1 339.5 389.1 339.3 391.7 337.8C393.6 336.7 395.3 335.5 396.8 334.4C398.6 333.1 400.2 331.9 401.6 331.5C403.1 331.1 404.2 331 405.3 330.9C406.2 330.8 407.2 330.8 408.4 330.5C411.5 329.9 415.4 328.6 416.4 326.2C416.7 325.4 416.3 324.6 415.5 324.3C414.7 324 413.8 324.4 413.5 325.2C413.3 325.8 411.4 326.9 407.8 327.6C406.8 327.8 406 327.9 405.1 327.9C403.9 328 402.6 328.1 400.8 328.6C398.9 329.1 397.1 330.4 395 331.9C393.6 332.9 392 334.1 390.2 335.1C386.9 336.9 386.4 337.6 385.8 339.5C385.7 340 385.5 340.5 385.2 341.2C384.8 342 383.6 343 382.2 343.8C383.3 342.6 384.6 340.9 385.2 339.4C387.1 334.9 388.4 332.3 388.9 331.7C389.3 331.5 389.7 331.4 390.2 331.2C390.8 331 391.5 330.8 392.4 330.4C394 329.7 400.5 326.7 401.4 326.3C402.4 326 407.3 324.4 409.5 322.5C411.6 320.7 418.6 312.4 418.9 312C419.4 311.4 419.3 310.4 418.7 309.9C418 309.4 417.1 309.5 416.5 310.1C414.5 312.4 409.1 318.8 407.5 320.2C406 321.5 401.9 322.9 400.5 323.4L400.3 323.5C400.2 323.5 393.3 326.8 391.4 327.6C391.8 327 392.3 326.3 392.9 325.7C393.2 325.4 393.6 324.9 394 324.4C396.5 323.9 402 322.5 404 319.1C406.4 315 408.3 312.5 409.8 311.4C410.5 310.9 410.6 310 410.1 309.3C409.6 308.6 408.6 308.5 407.9 309C406 310.3 403.9 313 401.2 317.6C400.5 318.9 398.5 319.8 396.6 320.5C396.8 320.2 396.9 320 397.1 319.7H397.2C397.8 319.4 398.1 318.7 398 318.1C399.2 315.8 400 313.4 400 311.5C400 311.3 400 311 400 310.8C400.1 310.7 400.1 310.7 400.2 310.6C400.4 310.4 403.6 306.9 405.3 304.7L414.4 304C414.5 304 414.5 304 414.6 304C415.4 303.9 415.9 303.2 415.8 302.4C415.7 301.6 415 301 414.1 301L408.3 301.4C410.4 299.6 413.2 297.3 415.1 295.7C415.8 295.2 415.9 294.2 415.3 293.6C414.8 293 413.8 292.9 413.1 293.4C412.2 294.1 404.5 300.2 403 302.4C402.4 303.2 401.4 304.5 400.3 305.7C400.7 302.2 401.3 298.3 401.6 296.2C401.7 295.3 401.8 294.7 401.8 294.5C401.9 293.7 402.3 292.8 402.5 292.5C402.9 291.8 402.6 290.9 401.9 290.5C401.2 290.1 400.2 290.4 399.8 291.1C399.7 291.3 398.9 292.7 398.7 294.2C398.7 294.4 398.6 295 398.5 295.8C398.2 297.5 397.9 300 397.5 302.5C396.6 301.6 395.6 300.4 395.1 299.4C394.2 297.9 394.9 296 394.9 296C395.2 295.2 394.7 294.4 393.9 294.1C393.1 293.8 392.2 294.3 392 295C392 295.1 390.9 298.2 392.5 300.9C393.8 303.2 396.9 306.1 397.1 306.3C396.9 308.4 396.7 310.3 396.7 311.5C396.7 312.4 396.4 313.6 395.9 314.8C395.4 314.1 394.9 313.3 394.5 312.6C393.3 310.9 393.2 309.7 393.2 309.7C393.1 308.9 392.4 308.3 391.5 308.4C391 308.4 390.5 308.7 390.3 309.1C391.2 307.1 391.6 305.3 391.7 305.2C391.9 304.4 391.4 303.6 390.6 303.4C389.8 303.2 388.9 303.7 388.7 304.5C388.7 304.5 388 307.4 386.7 309.4C385.2 311.9 383.6 318.3 383.2 321.5C383.1 322.7 382.3 324.6 381.5 326.3C381.3 325.3 381.1 324 380.8 322.3C380.1 318.4 381 315.6 382 312.6C382.5 311.2 382.9 309.7 383.2 308.1C383.3 307.8 383.3 307.3 383.4 306.8C384.9 305.7 387.4 303.6 388.8 300.6C390.6 296.7 393.6 290.7 393.6 290.6C394 289.9 393.6 289 392.9 288.6C392.1 288.2 391.2 288.6 390.8 289.3C390.8 289.4 387.8 295.5 386 299.3C385.4 300.7 384.4 301.9 383.4 302.8C383.3 302.2 383.3 301.6 383.1 301C384.3 299.9 386.9 297.2 388.2 292.6C389.5 288.3 390.9 285.9 391.5 284.7C391.7 284.3 391.8 284.1 391.9 283.9C392.2 283.1 391.8 282.3 391.1 282C390.3 281.7 389.4 282.1 389.1 282.8C389.1 282.9 389 283 388.8 283.3C388.1 284.6 386.5 287.2 385.2 291.8C384.4 294.5 383.2 296.4 382.2 297.6C381.5 295.6 380.5 293.4 379.1 291.2C379.5 290.4 380.6 288.5 381.9 286.7C382.7 286.5 384.8 285.9 385.9 284.6C386.6 283.7 388.2 282.5 388.7 282.1C389.4 281.6 389.5 280.7 389 280C388.5 279.4 387.5 279.2 386.8 279.7C386.7 279.8 386.3 280.1 385.8 280.5C386.6 278.3 386.7 276.5 386.7 276.3C386.7 275.5 386.1 274.8 385.2 274.8C384.3 274.8 383.6 275.4 383.6 276.2C383.6 276.2 383.4 279.9 381.2 282.5C379.6 284.4 378.1 286.7 377.2 288.3C377.5 287.3 378 285.5 378.3 283.4C379 282.8 380.2 281.6 380.9 280.3C381.8 278.7 383 275.7 383.1 275.6C383.4 274.8 383 274 382.2 273.7C381.4 273.4 380.5 273.8 380.2 274.6C380.2 274.6 379.2 277.1 378.4 278.6C378.4 278.4 378.4 278.2 378.3 278C377.6 272.5 375.9 268.6 375.9 268.4C375.6 267.6 374.7 267.3 373.9 267.6C373.1 267.9 372.7 268.8 373.1 269.5C373.1 269.5 374.7 273.2 375.3 278.3C375.5 279.6 375.5 280.9 375.4 282.1C375.3 282.4 375.3 282.7 375.3 282.9C375.2 283.8 375 284.7 374.8 285.4C369.7 278.8 365.1 270.9 365 270.9C364.6 270.2 363.6 269.9 362.9 270.3C362.2 270.7 361.9 271.6 362.3 272.3C362.5 272.7 368.2 282.4 374.2 289.5C379.3 295.6 380.3 301.2 380.3 304.6C379.6 304.5 378.8 304.3 378.4 303.6C378 302.9 377 302.7 376.3 303.1C375.6 303.5 375.3 304.5 375.8 305.2C376.9 306.9 378.8 307.4 380.1 307.6C379.8 308.9 379.4 310.2 379 311.5C378 314.5 376.9 317.9 377.7 322.6C378.6 327.4 379 329 379.2 330C379.3 330.3 379.3 330.5 379.4 330.8C379.4 330.9 379.4 331.2 379.4 331.5C379 330.6 378.5 329.7 378 329C377.2 327.9 376.7 324.8 376.6 322.8C376.6 322 375.8 321.3 375 321.4C374.4 321.4 373.9 321.8 373.7 322.3C373.9 320.5 373.7 317.8 372.7 311.6C372.6 311 372.5 310.5 372.4 309.9C372.5 309.8 372.6 309.7 372.7 309.6C372.8 309.5 374.4 306.8 375.2 305.2C376 303.5 374.9 298.7 374.2 296C374 295.2 373.2 294.7 372.3 294.9C371.5 295.1 371 295.9 371.2 296.7C372.1 299.9 372.6 303.3 372.4 304C372.2 304.4 372 304.8 371.8 305.3C370.6 297.8 369.4 290.7 369.4 290.6C369.3 289.8 368.5 289.2 367.6 289.4C366.8 289.5 366.2 290.3 366.3 291.1C366.3 291.2 368.2 302.9 369.7 312.1C371.1 320.5 370.8 322.1 370.4 323.6C369.5 321.4 368.1 318.9 366.9 317.1H367.2L365.6 315.1C365.7 313.5 365.8 308.8 365.2 304.8C364.8 302.2 364 298.6 363.3 295.4C363.4 295.3 363.4 295.2 363.5 295.1C363.6 294.9 365.7 290.5 366.2 286.4C366.7 282.1 362.9 277.1 362.4 276.6C361.9 275.9 360.9 275.8 360.2 276.3C359.5 276.8 359.4 277.7 359.9 278.4C360.9 279.6 363.4 283.5 363.1 286.1C363 287.4 362.6 288.9 362.2 290.1C362.1 289.4 361.9 288.8 361.8 288.4C361 284.7 350.9 276.4 348.8 274.8C348.1 274.3 347.2 274.4 346.6 275C346.1 275.6 346.2 276.6 346.8 277.1C352.2 281.4 358.3 287.2 358.7 289C358.9 290 359.2 291.3 359.6 292.9C360.4 296.7 361.6 301.9 362.2 305.2C362.5 307.2 362.6 309.4 362.7 311.3C361.6 309.9 360.4 308.5 360.1 308.1C360 308 359.9 307.8 359.7 307.6C359.7 307.5 359.7 307.4 359.7 307.3C359.7 307.1 359.5 303.4 358.9 300.3C358.4 297.9 356.2 295.3 353.6 292.3C354.2 291.2 355.1 289.1 354.7 287.1C354.2 284.5 350.4 282 349.6 281.5C348.9 281 347.9 281.2 347.5 281.9C347 282.6 347.2 283.5 347.9 284C349.6 285.1 351.5 286.8 351.7 287.7C351.8 288.3 351.7 289 351.4 289.7C350.9 289.2 350.5 288.6 350.1 288.1C346.7 283.9 344.9 280.4 344.9 280.4C344.5 279.7 343.6 279.3 342.8 279.7C342 280.1 341.7 280.9 342.1 281.7C342.2 281.9 344 285.5 347.6 290C348.6 291.2 349.6 292.4 350.6 293.6C353.1 296.4 355.4 299.1 355.8 300.9C356 301.7 356.1 302.6 356.2 303.4C355.5 302.6 354.7 301.8 353.8 301C352 299.4 349.6 297.8 347.2 296.3C347.2 296.2 347.3 294.5 346.8 292.3C346.3 289.9 343 286.2 342.3 285.5C341.7 284.9 340.8 284.8 340.1 285.4C339.5 285.9 339.4 286.9 340 287.5C341.4 289 343.5 291.7 343.8 292.9C343.9 293.4 344 293.9 344 294.4C342.4 293.4 340.9 292.5 340 291.7C338.1 290.2 335.3 283.6 334 279.9C333.7 279.1 332.8 278.7 332 279C331.2 279.3 330.8 280.1 331 280.9C331.4 282 334.8 291.5 338 294.1C338.3 294.4 338.7 294.6 339.1 294.9C337.6 294.8 335.9 294.7 334.6 294.6C331.9 294.3 330.7 291.3 330.7 291.3C330.4 290.5 329.5 290.1 328.7 290.4C327.9 290.7 327.5 291.5 327.8 292.3C327.9 292.5 329.4 296.4 333.3 297.4C333 297.5 332.8 297.7 332.6 298C332.2 298.7 332.5 299.6 333.2 300C333.3 300.1 335.5 301.3 338.1 302.1C338 302.2 337.8 302.4 337.8 302.5C337.4 303.2 337.7 304.1 338.5 304.5C338.6 304.5 342.4 306.5 343.1 309.7L343.6 312.1C341.5 310.8 339.4 309.8 337.5 308.9C337.3 308.4 336.5 305.7 336.1 304.1C335.7 302 330.9 298 328.1 295.8C327.4 295.3 326.5 295.4 325.9 296C325.4 296.6 325.5 297.6 326.1 298.1C329.2 300.5 332.7 303.7 333 304.7C333.2 305.5 333.4 306.4 333.7 307.3C333.1 307.1 332.6 306.8 332.5 306.7C331.9 306.1 331 306.1 330.4 306.6C329.8 307.1 329.7 308.1 330.3 308.7C330.8 309.3 331.7 309.7 333.8 310.5C337.3 311.9 343.2 314.3 346.8 318.6C350.5 323 350.4 326.7 350.4 329.2C350.4 330.3 350.4 331.1 350.6 331.8C351 333 352.3 335.2 353.7 337.3C353.6 337.3 353.5 337.2 353.3 337.2C352.6 336.9 351.6 336.5 350.5 336C350.1 335.1 346.3 327.3 343.3 323.4C341.6 321.2 340.2 318.7 339.1 316.8C338.3 315.3 337.7 314.3 337.1 313.7C336.5 313.1 335.6 313 334.9 313.6C334.3 314.1 334.2 315.1 334.8 315.7C335.1 316.1 335.7 317.1 336.4 318.3C337.5 320.2 339 322.9 340.9 325.3C342.6 327.5 344.7 331.4 346.2 334.1C343.1 332.6 339.7 331 337.5 329.7C337.4 328.9 336.8 326 335.3 322.1C334 318.7 332.1 317.1 330.1 315.4C329.2 314.7 328.4 313.9 327.4 312.9C324.7 310 324.4 304.3 324.4 304.3C324.4 303.5 323.6 302.8 322.8 302.9C322 302.9 321.3 303.6 321.3 304.5C321.3 304.8 321.7 311.3 325.1 315C326.1 316.1 327.1 316.9 328 317.7C329.8 319.3 331.3 320.6 332.4 323.3C332.9 324.5 333.3 325.6 333.5 326.6C330.9 324.4 326.6 321.6 323.2 319.6C323.8 317.7 323.8 314.8 322.7 311.8C321.1 307.3 311.8 303.1 310.8 302.7C310 302.4 309.1 302.7 308.8 303.4C308.5 304.2 308.8 305 309.6 305.4C313.1 306.9 319 310.3 319.9 312.8C320.7 315.1 320.7 317 320.5 318.2C320.4 318.2 320.3 318.1 320.2 318.1C317.2 316.7 308.5 309.7 305.4 307.1C304.8 306.6 303.8 306.6 303.2 307.3C302.6 307.9 302.7 308.9 303.4 309.4C303.8 309.8 313.4 317.7 317.9 320.3C315.7 321 312.4 321.7 310.7 321.1C307.6 320 303.6 317.9 303.5 317.9C302.8 317.5 301.8 317.8 301.4 318.5C301 319.2 301.3 320.1 302 320.5C302.2 320.6 306.3 322.7 309.6 323.9C311.3 324.5 313.6 324.3 315.9 323.9C318.1 323.5 320.2 322.7 321.3 322.1C324.9 324.1 329.6 327.3 331.8 329.2C330 329.2 327.8 329.1 326 328.6C323 327.7 318.5 326.8 315.2 326.1C313.6 325.8 312.2 325.5 311.7 325.3C310.9 325.1 310 325.6 309.8 326.4C309.6 327.2 310.1 328 310.9 328.2C311.5 328.4 312.9 328.6 314.5 329C317.7 329.7 322.2 330.6 325.1 331.5C328.7 332.5 333 332.2 335 332C336.5 332.9 338.5 334 340.5 335L339.7 335.2C338.8 335.4 336.1 335.6 328.9 334.5C325.9 334 323.6 333.8 321.1 333.7C318.9 333.5 316.7 333.4 313.7 333C307.5 332.2 300.9 327.5 300.8 327.5C300.1 327 299.2 327.2 298.6 327.8C298.1 328.5 298.2 329.4 298.9 329.9C299.2 330.1 306.2 335.1 313.2 336C316.3 336.4 318.7 336.6 320.8 336.7C323.3 336.9 325.4 337 328.3 337.5C332.2 338.1 337.4 338.8 340.2 338.2L344.7 337.3C344.8 337.3 344.8 337.3 344.9 337.3C348.4 338.9 351.5 340.2 352.1 340.4C353.1 340.8 354.1 341.3 355.2 341.9C350.8 341.3 345 340.5 339.9 340.1C332.1 339.5 323.6 338.7 319.5 338.3C318.4 338.2 317.5 338.1 317.1 338.1C314.5 337.9 307.3 339.3 305.6 344C305.3 344.8 305.7 345.6 306.5 345.9C307.3 346.2 308.2 345.8 308.5 345C309.6 342.1 315.2 340.9 316.9 341.1C317.3 341.1 318.2 341.2 319.3 341.3C320.8 341.4 322.9 341.6 325.3 341.8C323.1 342.6 319.9 343.6 315.5 344.5C314.7 344.7 314.1 345.5 314.3 346.3C314.5 347.1 315.3 347.6 316.1 347.5C326.4 345.5 330.5 342.9 331.2 342.4C332.4 342.5 333.5 342.6 334.7 342.7C331.7 344.4 326.7 346.8 320.4 348.1C319.6 348.3 319 349.1 319.2 349.9C319.4 350.7 320.2 351.2 321 351.1C323.2 350.7 325.3 350.1 327.2 349.4C326.6 349.7 326.2 350.4 326.4 351C326.6 351.8 327.4 352.3 328.2 352.2C338.4 350.2 347.9 344.6 348.7 344.1C349.1 344.2 349.6 344.2 350 344.3C347.2 346.3 342.8 349.3 339.8 350.2C339 350.5 338.6 351.3 338.8 352.1C339 352.8 339.8 353.2 340.6 353.1C340.7 353.1 340.7 353.1 340.8 353.1C345.5 351.6 352.8 346.1 354.3 344.9C355.5 345.1 356.6 345.2 357.6 345.4C357 345.4 356.5 345.5 356.2 345.7C355.2 346.2 353.2 347.2 351.3 348.3C350.2 348.9 349.2 349.5 348.5 349.8C347.8 350.2 347.5 351.1 347.9 351.8C348.2 352.4 348.9 352.7 349.6 352.6C349.7 352.6 349.9 352.5 350 352.5C350.7 352.1 351.7 351.6 352.8 351C354.6 350 356.7 348.9 357.6 348.5C358.3 348.3 361.3 348.5 364.4 349.1C364.5 349.2 364.7 349.4 364.8 349.5C365 349.8 365.2 350.1 365.6 350.2C366.2 350.8 366.8 351.4 367.4 352C368.3 352.9 369 353.7 369.8 354.6C368.4 353.8 366.8 353 365.3 352.2C360.6 349.8 355 351.4 351.4 352.5C350.5 352.8 349.8 353 349.3 353.1C346.5 353.7 326.4 355.9 326.2 355.9C324.3 356.1 322 356.3 319.8 356.5C319.3 356.3 318.8 356.3 318.4 356.6C317.1 356.7 315.7 356.8 314.5 356.8C314.1 356 313.4 354.6 312.4 353.1C310.8 350.8 307.4 348.9 307 348.7C306.3 348.3 305.3 348.6 304.9 349.3C304.5 350 304.7 350.9 305.5 351.3C306.4 351.8 308.9 353.3 309.9 354.8C310.4 355.6 310.9 356.3 311.2 357C309.7 357 308.5 357 308 356.8C306.7 356.4 305 355.9 303.5 355.4C301.3 354.7 300.5 354.4 300.1 354.4C299.3 354.3 298.5 354.9 298.4 355.7C298.3 356.5 298.9 357.3 299.7 357.4C300 357.5 301.4 357.9 302.5 358.3C304 358.8 305.7 359.4 307.1 359.8C308.3 360.2 311.4 360.1 314.8 360L311.7 362.8C311.1 363.4 311 364.3 311.6 364.9C312 365.3 312.5 365.5 313 365.3C313.3 365.2 313.5 365.1 313.7 364.9L319.6 359.6C322.7 359.4 325.5 359.1 326.6 359C327 359 332.8 358.3 338.5 357.7C335.1 360.2 330 364 326.5 366.4C320.5 370.5 319 373.8 318.9 373.9C318.6 374.7 318.9 375.5 319.7 375.9C320 376 320.3 376.1 320.6 376C321.1 375.9 321.5 375.6 321.7 375.1C321.7 375.1 323.1 372.3 328.3 368.8C329.3 368.1 330.5 367.3 331.6 366.5C332.3 366.6 334.5 366.8 338.1 366.1C338.8 366 339.6 365.8 340.4 365.6C342.3 365.1 344.1 364.4 345.8 363.8C344.9 365.2 343.6 366.8 342.1 368.2C338.6 371.3 331.9 373.8 331.8 373.8C331 374.1 330.6 375 330.9 375.7C331.2 376.4 331.9 376.8 332.6 376.6C332.7 376.6 332.8 376.6 332.8 376.5C333.1 376.4 340.1 373.8 344 370.3C347.6 367.1 349.7 362.8 350.1 361.9C351.2 361.5 352.3 361.1 353.5 360.7C352.7 362.7 351.4 365.4 349.2 366.7C348.5 367.1 348.3 368.1 348.7 368.8C349.1 369.3 349.7 369.6 350.3 369.5C350.5 369.5 350.6 369.4 350.8 369.3C354.7 367 356.4 362 357 359.9C358.4 359.6 359.7 359.2 360.9 358.9C360.4 360 359.7 361.5 358.4 362.7C357.8 363.3 357.8 364.2 358.4 364.8C358.8 365.2 359.3 365.3 359.8 365.2C360.1 365.1 360.3 365 360.6 364.8C363.3 362.2 364.3 358.9 364.5 357.9C366.2 357.4 367.3 357.1 367.5 357C370.8 358.8 373.8 360.4 374.5 360.8C375.2 361.7 375.7 362.6 376.2 363.3C374.2 363.8 369 365.3 369.5 366.2C370.1 367.3 370.1 367.3 370.1 367.3C370.1 367.3 357.2 367.1 357.4 370C357.6 372.9 362.4 372.7 362.4 372.7C362.4 372.7 353.3 374 354.1 376.3C354.9 378.6 355 379.8 355 379.8C355 379.8 351.8 380.3 351.4 381.4C351 382.5 349.2 384.1 349.2 384.1C349.2 384.1 346.2 379 344.6 381.8C342.9 384.6 341.7 386.2 341.7 387C341.7 387.8 338.5 382.8 336.5 386.9C334.5 391 332.6 394.6 332.6 394.6C332.6 394.6 329 394.7 328 396.3C327 397.9 327 399.6 327 399.6C327 399.6 323.5 399.6 323.3 400.6ZM381.9 338.8C382 337.7 382.2 336.5 382.3 335.3C382.6 333.4 382.7 332.1 382.7 331.2C383.5 329.8 385.8 325.5 386.3 322.6L392.2 317.4C392.8 316.8 392.9 315.9 392.3 315.3C391.7 314.7 390.8 314.6 390.1 315.2L387.1 317.8C387.7 315.2 388.6 312.4 389.3 311.2C389.6 310.7 389.9 310.2 390.1 309.7C390 309.9 390 310.1 390 310.3C390 310.5 390.2 312.3 391.8 314.7C392.7 315.9 393.6 317.5 394.2 318.5C393.5 319.8 392.6 321 391.9 322.1C391.2 322.3 390.8 322.9 390.8 323.5C390.6 323.7 390.5 323.9 390.3 324C388.2 326.1 386.9 328.8 386.5 329.8C385.5 330.8 384.2 333.2 382 338.5C381.9 338.7 381.8 338.9 381.7 339.2C381.9 338.9 381.9 338.8 381.9 338.8ZM327.7 349.1C334.8 346.6 339.3 343.3 339.5 343.1C339.6 343.1 339.6 343 339.7 342.9H339.8C341 343 342.3 343.1 343.6 343.3C339.9 345.2 333.9 347.9 327.7 349.1ZM339.5 362.2C338 362.6 336.7 362.8 335.6 363C337.1 361.9 338.6 360.8 339.8 359.9C339.8 360.1 339.8 360.4 339.9 360.6C340.2 361.3 340.9 361.6 341.6 361.5C341.7 361.5 341.8 361.5 341.9 361.4C342.1 361.3 342.7 361.1 343.3 360.9C342.2 361.4 340.9 361.8 339.5 362.2ZM342.6 358C342.4 358.1 342.2 358.1 342 358.2C343 357.4 343.6 357 343.6 357C343.8 356.9 343.9 356.7 344 356.5C345.7 356.3 347.2 356.1 348.3 355.9C347.4 356.6 344.1 357.6 342.6 358ZM355.5 356.7C353.7 357.1 352.1 357.6 350.6 358.1C352.1 357 356.4 354.1 356.5 354.1C356.6 354.1 356.6 354 356.7 354C359.1 353.6 361.7 353.5 363.9 354.6C361.7 355.1 358.8 355.9 355.5 356.7ZM335.2 297.9C338.9 298.3 343.7 298.3 343.9 298.3C344 298.3 344 298.3 344.1 298.3C345.3 299 346.5 299.8 347.7 300.5C345.8 300.3 343.8 300.2 342.4 300.1C340.1 300.1 336.8 298.7 335.2 297.9ZM369.6 349.7C368.9 349 368.2 348.3 367.6 347.7C367.4 346.4 366.8 343.5 366.6 341C366.3 338.1 365.6 337.1 364.4 335.5C364.1 335 363.7 334.5 363.2 333.9C361.4 331.3 361 328.7 361 328.7C360.9 327.9 360.1 327.3 359.3 327.4C358.5 327.5 357.9 328.3 358 329.1C358 329.2 358.5 332.4 360.7 335.6C361.2 336.3 361.6 336.9 362 337.4C363.1 338.8 363.5 339.3 363.6 341.4C363.7 342.4 363.8 343.4 364 344.4C364 344.4 363.9 344.4 363.9 344.3C363.8 343.7 363.3 343.2 362.6 343C362.6 343 362.5 343 362.3 342.9C361.2 342 360.2 341.3 359.3 340.7C359.3 340.4 359.2 340.2 359 340C358.6 339.5 358.2 338.9 357.8 338.3C357.7 337 357.5 333.8 357.5 332.3C357.5 330.4 357.8 326.3 357.8 326.2C357.9 325.4 357.2 324.7 356.4 324.6C355.6 324.5 354.8 325.2 354.7 326C354.7 326.2 354.4 330.3 354.4 332.3C354.4 332.5 354.4 332.7 354.4 333C354 332.3 353.8 331.8 353.6 331.5C353.5 331.2 353.5 330.5 353.5 329.8C353.5 327 353.6 322.4 349.2 317.3C348.4 316.4 347.6 315.5 346.6 314.8C346.9 314.5 347 314 346.9 313.6L346.1 309.6C345.5 306.6 343.1 304.5 341.5 303.3C341.8 303.3 342 303.3 342.2 303.4C345 303.5 350.4 304 352.1 304.2C354.5 306.4 356 308.4 356.9 309.6C357.3 310.1 357.6 310.5 357.9 310.8C358.2 311.1 359.3 312.5 360.6 314.1C360 313.9 359.4 313.6 358.9 313.2C356.5 311.3 351.4 307.6 351.4 307.6C350.7 307.1 349.8 307.2 349.2 307.9C348.7 308.6 348.8 309.5 349.5 310C349.5 310 354.6 313.7 357 315.6C359.1 317.2 362 317.7 363.4 317.8C365.3 320.7 368.1 325.3 368.3 327.4C368.4 328.1 368.4 329.2 368.5 330.4C366.4 329 363.3 326.9 361.9 324.9C359.3 321.3 355.6 316.3 355.6 316.3C355.1 315.6 354.1 315.5 353.5 316C352.8 316.5 352.7 317.4 353.1 318.1C353.1 318.1 356.8 323.1 359.4 326.7C361.7 329.9 366.8 333.1 368.7 334.1C368.8 338.1 369 342.1 369.3 344.3C369.6 346.2 369.9 348.5 370.1 350.3C369.8 349.9 369.7 349.8 369.6 349.7ZM371.6 333.5C371.6 332.1 371.5 330.8 371.5 329.7C371.6 329.6 373 327.2 373.5 325.2L373.6 324.9C373.7 324.5 373.8 324.1 373.8 323.7C373.9 325 374.2 329.3 375.7 331.3C376.1 331.8 376.5 332.5 376.9 333.3C376.3 333.2 375.7 333.5 375.4 334L371.8 339.4C371.8 337.4 371.7 335.4 371.6 333.5ZM374.7 355.4C374.3 354.9 373.9 354.4 373.4 353.8L373.3 352.4C373.3 352.2 372.8 347.6 372.3 344L377.9 335.5C378.1 336.1 378.3 336.6 378.5 337C378.6 337.3 378.7 337.5 378.9 337.6C378.9 337.9 378.8 338.2 378.8 338.4C378.6 341.2 378.5 341.6 377.7 344C377.5 344.5 377.3 345.1 377.1 345.9C376.6 346.3 376.4 346.9 376.6 347.6C376 350.4 375.1 353.7 374.7 355.4Z" fill="#0A090C"/>
<path opacity="0.37" d="M108.9 382.7C110.3 382.3 112 381.7 113.5 381.2C114.6 380.8 116 380.4 116.3 380.3C117.1 380.2 117.7 379.5 117.6 378.6C117.5 377.8 116.7 377.2 115.9 377.3C115.5 377.4 114.7 377.6 112.5 378.3C111 378.8 109.4 379.3 108 379.7C107.5 379.8 106.4 379.9 104.8 379.9C105.1 379.3 105.6 378.5 106.1 377.7C107.1 376.2 109.6 374.7 110.5 374.2C111.2 373.8 111.5 372.9 111.1 372.2C110.7 371.5 109.7 371.2 109 371.6C108.6 371.8 105.2 373.7 103.6 376C102.6 377.5 101.8 378.9 101.5 379.7C100.3 379.6 98.9 379.6 97.6 379.5C97.2 379.2 96.6 379.2 96.2 379.4C94 379.2 91.7 379 89.8 378.8C89.6 378.8 69.6 376.6 66.7 376C66.2 375.9 65.4 375.7 64.6 375.4C60.9 374.3 55.4 372.7 50.7 375.1C49.2 375.9 47.7 376.7 46.3 377.4C47.1 378.2 47.9 379 48.8 379.8C49.3 380 50.2 380.2 51.5 380.6C51.6 381.1 51.9 382 52.4 383.1C54.1 384.6 55.8 386.1 57.5 387.6L57.6 387.5C58.2 386.9 58.2 386 57.6 385.4C56.3 384.2 55.5 382.7 55.1 381.6C56.3 381.9 57.6 382.2 59 382.6C59.6 384.7 61.3 389.7 65.2 392C65.4 392.1 65.5 392.2 65.7 392.2C66.3 392.3 67 392.1 67.3 391.5C67.8 390.8 67.5 389.9 66.8 389.4C64.6 388.1 63.3 385.4 62.5 383.4C63.7 383.8 64.8 384.2 65.9 384.6C66.3 385.5 68.4 389.8 72 393C75.9 396.5 82.9 399.1 83.2 399.2C83.3 399.2 83.4 399.3 83.4 399.3C84.1 399.4 84.9 399.1 85.1 398.4C85.4 397.6 85 396.8 84.2 396.5C84.1 396.5 77.4 394 73.9 390.9C72.4 389.5 71.1 387.9 70.2 386.5C71.9 387.2 73.6 387.8 75.6 388.3C76.4 388.5 77.2 388.7 77.9 388.8C81.5 389.5 83.7 389.3 84.4 389.2C85.6 390.1 86.7 390.9 87.7 391.5C92.9 395 94.3 397.8 94.3 397.8C94.5 398.3 94.9 398.6 95.4 398.7C95.7 398.8 96 398.7 96.3 398.6C97.1 398.3 97.4 397.4 97.1 396.6C97 396.5 95.5 393.1 89.5 389.1C86 386.7 80.9 382.9 77.5 380.4C83.2 381.1 88.9 381.7 89.4 381.7C90.5 381.8 93.2 382.1 96.4 382.3L102.3 387.6C102.5 387.8 102.8 387.9 103 388C103.5 388.1 104.1 387.9 104.4 387.6C105 387 104.9 386.1 104.3 385.5L101.2 382.7C104.6 383.1 107.6 383.1 108.9 382.7ZM60.3 380.1C57 379.3 54 378.5 52 378C54.2 376.9 56.8 377 59.2 377.4C59.2 377.4 59.3 377.5 59.4 377.5C59.4 377.5 63.8 380.4 65.3 381.5C63.8 381 62.2 380.5 60.3 380.1ZM67.4 379.4C68.5 379.6 70 379.8 71.7 380C71.8 380.2 71.9 380.3 72.1 380.5C72.1 380.5 72.7 381 73.7 381.7C73.5 381.6 73.3 381.6 73.1 381.5C71.7 381 68.5 380 67.4 379.4ZM80.2 386.4C79.1 386.3 77.8 386 76.3 385.6C74.9 385.2 73.6 384.8 72.4 384.3C73 384.5 73.6 384.7 73.8 384.8C73.9 384.8 74 384.9 74.1 384.9C74.8 385 75.5 384.7 75.8 384C75.9 383.8 75.9 383.5 75.9 383.3C77.2 384.2 78.7 385.3 80.2 386.4Z" fill="black"/>
<path opacity="0.37" d="M9.7 328.2L10.5 328.3C12.2 330.5 15.4 334.1 15.6 334.2C15.7 334.3 15.7 334.3 15.8 334.4C15.8 334.7 15.8 334.9 15.8 335.1C15.8 337.1 16.7 339.5 17.8 341.7C17.7 342.3 18 343 18.6 343.3H18.7C18.9 343.6 19 343.8 19.2 344.1C19 344 18.7 343.9 18.5 343.8C19.4 345.1 20.2 346.4 21.1 347.7C21.4 347.8 21.7 347.8 21.9 347.9C22.3 348.4 22.7 348.9 23 349.2C23.6 349.8 24.1 350.4 24.5 351.1C24.1 350.9 23.6 350.7 22.9 350.4C23.9 351.9 25 353.4 26.1 354.8C26.4 354.9 26.7 355 27 355.1C27.3 355.4 27.9 356.5 28.7 358.1C32.1 362.4 35.6 366.5 39.2 370.5C39.2 370.1 39 369.7 38.6 369.4C38.4 368.6 38.2 368 38 367.5C37.2 365.1 37.1 364.7 36.9 361.9C36.9 361.6 36.9 361.3 36.8 361.1C37 360.9 37.2 360.7 37.2 360.5C37.3 360.2 37.5 359.6 37.8 359L43.4 367.5C43.1 369.8 42.8 372.5 42.6 374.2C43.7 375.3 44.8 376.5 46 377.6C46.7 376.8 47.5 375.9 48.3 375.1C48.9 374.5 49.5 373.9 50.1 373.3C50.4 373.2 50.7 372.9 50.9 372.6C51 372.5 51.2 372.3 51.3 372.2C54.4 371.7 57.5 371.4 58.1 371.6C59 372 61 373.1 62.9 374.1C64 374.7 65.1 375.3 65.7 375.6C65.8 375.7 66 375.7 66.1 375.7C66.7 375.8 67.4 375.5 67.8 374.9C68.2 374.2 67.9 373.3 67.2 372.9C66.5 372.5 65.5 372 64.4 371.4C62.4 370.3 60.4 369.2 59.5 368.8C59.1 368.6 58.6 368.5 58.1 368.5C59.1 368.4 60.2 368.2 61.4 368C62.9 369.2 70.2 374.7 74.9 376.2C75 376.2 75 376.2 75.1 376.2C75.9 376.3 76.6 375.9 76.9 375.2C77.2 374.4 76.7 373.6 75.9 373.3C72.9 372.4 68.5 369.4 65.7 367.4C66.1 367.3 66.5 367.3 67 367.2C67.8 367.7 77.3 373.3 87.5 375.3C88.3 375.5 89.1 374.9 89.3 374.1C89.4 373.4 89.1 372.7 88.5 372.5C90.4 373.1 92.5 373.7 94.7 374.2C95.5 374.4 96.3 373.8 96.5 373C96.7 372.2 96.1 371.4 95.3 371.2C89.1 370 84 367.5 81 365.8C82.2 365.7 83.4 365.6 84.5 365.5C85.2 366 89.3 368.5 99.6 370.6C100.4 370.8 101.2 370.2 101.4 369.4C101.6 368.6 101 367.8 100.2 367.6C95.8 366.7 92.6 365.8 90.4 364.9C92.8 364.7 94.9 364.5 96.4 364.4C97.5 364.3 98.4 364.2 98.8 364.2C100.5 364.1 106.1 365.2 107.2 368.1C107.5 368.9 108.4 369.3 109.2 369C110 368.7 110.4 367.9 110.1 367.1C108.3 362.4 101.1 361 98.6 361.2C98.2 361.2 97.3 361.3 96.2 361.4C92.1 361.8 83.7 362.6 75.8 363.2C70.7 363.6 65 364.4 60.5 365C61.6 364.4 62.6 363.9 63.6 363.5C64.2 363.3 67.2 362 70.8 360.4C70.9 360.4 70.9 360.4 71 360.4L75.5 361.3C78.3 361.9 83.5 361.2 87.4 360.6C90.3 360.1 92.4 360 94.9 359.8C97 359.6 99.4 359.5 102.5 359.1C109.5 358.2 116.5 353.3 116.8 353C117.5 352.5 117.6 351.6 117.1 350.9C116.6 350.2 115.6 350.1 114.9 350.6C114.8 350.6 108.2 355.3 102 356.1C99 356.5 96.7 356.6 94.6 356.8C92.1 357 89.8 357.1 86.8 357.6C79.6 358.8 76.9 358.5 76 358.3L75.2 358.1C77.3 357.1 79.2 356 80.7 355.1C82.7 355.3 87 355.6 90.6 354.6C93.5 353.8 98 352.8 101.2 352.1C102.9 351.7 104.2 351.5 104.8 351.3C105.6 351.1 106.1 350.3 105.9 349.5C105.7 348.7 104.8 348.2 104 348.4C103.4 348.5 102.1 348.8 100.5 349.2C97.2 349.9 92.7 350.9 89.7 351.7C87.8 352.2 85.7 352.3 83.9 352.3C86.1 350.4 90.8 347.2 94.4 345.2C95.6 345.8 97.6 346.5 99.8 347C102 347.4 104.4 347.6 106.1 347C109.5 345.9 113.5 343.7 113.7 343.6C114.4 343.2 114.7 342.3 114.3 341.6C113.9 340.9 113 340.6 112.2 341C112.2 341 108.2 343.1 105 344.2C103.3 344.8 100.1 344.1 97.8 343.4C102.3 340.8 111.9 332.9 112.3 332.5C112.9 332 113 331 112.5 330.4C111.9 329.8 111 329.7 110.3 330.2C107.2 332.8 98.5 339.8 95.5 341.2C95.4 341.2 95.3 341.3 95.2 341.3C95 340.2 95 338.3 95.8 335.9C96.7 333.4 102.6 330 106.1 328.5C106.9 328.2 107.2 327.3 106.9 326.5C106.6 325.7 105.6 325.4 104.9 325.8C103.9 326.3 94.6 330.4 93 334.9C91.9 338 91.9 340.8 92.5 342.7C89.1 344.6 84.8 347.5 82.2 349.7C82.5 348.7 82.9 347.6 83.3 346.4C84.4 343.7 85.8 342.4 87.7 340.8C88.6 340 89.5 339.2 90.6 338.1C94.1 334.4 94.4 327.9 94.4 327.6C94.4 326.8 93.8 326.1 92.9 326C92.1 326 91.3 326.6 91.3 327.4C91.3 327.5 91 333.2 88.3 336C87.4 337 86.5 337.7 85.6 338.5C83.6 340.2 81.7 341.9 80.4 345.2C78.9 349.1 78.3 352 78.2 352.8C76 354.1 72.7 355.7 69.5 357.2C70.9 354.4 73 350.6 74.8 348.4C76.7 346 78.2 343.3 79.3 341.4C79.9 340.3 80.5 339.2 80.9 338.8C81.5 338.2 81.4 337.2 80.8 336.7C80.2 336.2 79.2 336.2 78.6 336.8C78.1 337.4 77.5 338.4 76.6 339.9C75.5 341.8 74.1 344.3 72.4 346.5C69.4 350.4 65.6 358.2 65.2 359.1C64.1 359.6 63.1 360 62.4 360.3C62.3 360.3 62.2 360.4 62 360.4C63.3 358.4 64.7 356.1 65.1 354.9C65.3 354.2 65.3 353.3 65.3 352.3C65.3 349.8 65.2 346 68.9 341.7C72.5 337.5 78.4 335.1 81.9 333.6C84 332.7 84.9 332.4 85.4 331.8C86 331.2 85.9 330.2 85.3 329.7C84.7 329.2 83.7 329.2 83.2 329.8C83 329.9 82.5 330.1 82 330.4C82.3 329.5 82.5 328.6 82.7 327.8C83 326.8 86.5 323.6 89.6 321.2C90.3 320.7 90.4 319.7 89.8 319.1C89.3 318.5 88.3 318.4 87.6 318.9C84.8 321.1 80 325.1 79.6 327.2C79.3 328.8 78.4 331.5 78.2 332C76.3 332.8 74.2 333.8 72.1 335.2L72.6 332.8C73.3 329.6 77.1 327.6 77.2 327.6C78 327.2 78.3 326.3 77.9 325.6C77.8 325.4 77.7 325.3 77.6 325.2C80.2 324.4 82.4 323.2 82.5 323.1C83.2 322.7 83.5 321.8 83.1 321.1C82.9 320.8 82.7 320.6 82.4 320.5C86.3 319.5 87.8 315.6 87.9 315.4C88.2 314.6 87.8 313.8 87 313.5C86.2 313.2 85.3 313.6 85 314.4C85 314.4 83.8 317.4 81.1 317.7C79.7 317.9 78.1 318 76.6 318C77 317.7 77.4 317.5 77.7 317.2C80.9 314.6 84.3 305.1 84.7 304C85 303.2 84.5 302.4 83.7 302.1C82.9 301.8 82 302.3 81.7 303C80.4 306.8 77.6 313.3 75.7 314.8C74.8 315.6 73.3 316.5 71.7 317.5C71.8 317.1 71.8 316.6 71.9 316C72.1 314.8 74.2 312.2 75.7 310.6C76.3 310 76.2 309 75.6 308.5C75 308 74 308 73.4 308.6C72.7 309.3 69.4 313 68.9 315.4C68.4 317.6 68.5 319.3 68.5 319.4C66.1 320.9 63.7 322.5 61.9 324.1C61 324.9 60.2 325.7 59.5 326.5C59.6 325.7 59.7 324.8 59.9 324C60.3 322.2 62.6 319.5 65.1 316.7C66.1 315.5 67.2 314.4 68.1 313.1C71.7 308.6 73.5 305 73.6 304.8C74 304.1 73.6 303.2 72.9 302.8C72.1 302.4 71.2 302.8 70.8 303.5C70.8 303.5 69.1 307 65.6 311.2C65.2 311.7 64.7 312.3 64.3 312.8C64.1 312.1 63.9 311.4 64 310.8C64.2 309.9 66.1 308.2 67.8 307.1C68.5 306.6 68.7 305.7 68.2 305C67.7 304.3 66.8 304.1 66.1 304.6C65.3 305.1 61.5 307.6 61 310.2C60.6 312.2 61.5 314.3 62.1 315.4C59.5 318.4 57.4 321 56.8 323.4C56.1 326.5 56 330.2 56 330.4C56 330.5 56 330.6 56 330.7C55.8 330.9 55.7 331.1 55.6 331.2C55.2 331.6 54.1 333 53 334.4C53 332.5 53.1 330.3 53.5 328.3C54.1 324.9 55.2 319.8 56.1 316C56.4 314.4 56.7 313.1 57 312.1C57.4 310.3 63.5 304.6 68.9 300.2C69.6 299.7 69.7 298.7 69.1 298.1C68.6 297.5 67.6 297.4 66.9 297.9C64.9 299.5 54.7 307.7 53.9 311.5C53.8 312 53.7 312.6 53.5 313.2C53.1 311.9 52.7 310.5 52.6 309.2C52.3 306.6 54.8 302.7 55.8 301.5C56.3 300.8 56.2 299.9 55.5 299.4C54.8 298.9 53.9 299 53.3 299.7C52.9 300.3 49.1 305.2 49.5 309.5C49.9 313.5 52.1 318 52.2 318.2C52.2 318.3 52.3 318.4 52.4 318.5C51.7 321.7 50.9 325.3 50.5 327.9C49.8 332 50 336.6 50.1 338.2L48.5 340.2H48.8C47.7 342 46.2 344.5 45.3 346.7C44.9 345.2 44.6 343.6 46 335.2C47.5 326 49.4 314.3 49.4 314.2C49.5 313.4 48.9 312.6 48.1 312.5C47.3 312.4 46.5 312.9 46.3 313.7C46.3 313.8 45.2 320.9 43.9 328.4C43.6 327.9 43.4 327.5 43.3 327.1C43.1 326.4 43.6 323 44.5 319.8C44.7 319 44.2 318.2 43.4 318C42.6 317.8 41.7 318.3 41.5 319.1C40.8 321.8 39.7 326.6 40.5 328.3C41.2 329.9 42.9 332.6 43 332.7C43.1 332.8 43.2 332.9 43.3 333C43.2 333.6 43.1 334.1 43 334.7C42 340.9 41.8 343.7 42 345.4C41.8 344.9 41.3 344.5 40.7 344.5C39.9 344.5 39.1 345.1 39.1 345.9C39 347.8 38.5 351 37.7 352.1C37.2 352.8 36.7 353.6 36.3 354.6C36.3 354.3 36.3 354 36.3 353.9C36.4 353.6 36.4 353.4 36.5 353.1C36.8 352.1 37.2 350.5 38 345.7C38.8 341.1 37.7 337.6 36.7 334.6C36.3 333.3 35.9 332 35.6 330.7C36.9 330.5 38.8 330 39.9 328.3C40.3 327.6 40.1 326.7 39.4 326.2C38.7 325.8 37.7 326 37.3 326.7C36.9 327.3 36 327.6 35.4 327.7C35.4 324.3 36.4 318.7 41.5 312.6C47.5 305.5 53.1 295.8 53.4 295.4C53.8 294.7 53.6 293.8 52.8 293.4C52.1 293 51.1 293.3 50.7 294C50.6 294.1 46.1 301.9 40.9 308.5C40.7 307.8 40.5 306.9 40.4 306C40.5 305.7 40.4 305.4 40.3 305.2C40.2 304 40.2 302.7 40.4 301.4C41.1 296.3 42.6 292.6 42.6 292.6C42.9 291.8 42.5 291 41.8 290.7C41 290.4 40.1 290.8 39.8 291.5C39.7 291.7 38.1 295.6 37.4 301.1C37.4 301.3 37.4 301.5 37.3 301.7C36.5 300.2 35.5 297.7 35.5 297.7C35.2 296.9 34.3 296.6 33.5 296.8C32.7 297.1 32.3 298 32.6 298.7C32.7 298.8 33.8 301.8 34.8 303.4C35.5 304.6 36.7 305.8 37.4 306.5C37.7 308.6 38.2 310.3 38.5 311.4C37.5 309.8 36.1 307.5 34.5 305.6C32.3 303 32.1 299.3 32.1 299.3C32.1 298.5 31.4 297.8 30.5 297.9C29.7 297.9 29 298.6 29 299.4C29 299.5 29.1 301.4 29.9 303.6C29.4 303.2 29 302.9 28.9 302.8C28.2 302.3 27.3 302.4 26.7 303.1C26.2 303.7 26.3 304.7 27 305.2C27.5 305.6 29.1 306.9 29.8 307.7C30.9 309.1 33 309.6 33.8 309.8C35.1 311.7 36.2 313.5 36.6 314.3C35.1 316.6 34.2 318.7 33.5 320.7C32.5 319.5 31.2 317.6 30.5 314.9C29.1 310.2 27.6 307.6 26.9 306.4C26.8 306.2 26.7 306 26.6 305.9C26.3 305.1 25.4 304.8 24.6 305.1C23.8 305.4 23.4 306.3 23.8 307C23.9 307.2 24 307.5 24.2 307.8C24.9 309 26.3 311.3 27.5 315.7C28.9 320.3 31.4 323 32.6 324.1C32.5 324.7 32.4 325.4 32.3 325.9C31.3 325 30.3 323.8 29.7 322.4C27.9 318.5 24.9 312.4 24.9 312.4C24.5 311.7 23.6 311.3 22.8 311.7C22 312.1 21.7 312.9 22.1 313.7C22.1 313.8 25.1 319.8 26.9 323.7C28.3 326.6 30.8 328.8 32.3 329.9C32.3 330.4 32.4 330.9 32.5 331.2C32.8 332.8 33.3 334.3 33.7 335.7C34.7 338.7 35.6 341.4 34.9 345.4C34.6 347.1 34.4 348.4 34.2 349.4C33.4 347.7 32.6 345.8 32.5 344.6C32.1 341.4 30.5 335 29 332.5C27.8 330.5 27 327.6 27 327.6C26.8 326.8 26 326.3 25.1 326.5C24.3 326.7 23.8 327.5 24 328.3C24 328.4 24.5 330.3 25.4 332.2C25.2 331.8 24.7 331.5 24.2 331.5C23.4 331.4 22.6 332 22.5 332.8C22.5 332.8 22.4 334.1 21.2 335.7C20.7 336.4 20.2 337.2 19.8 337.9C19.3 336.7 19 335.5 19 334.6C19 333.4 18.8 331.5 18.6 329.4C18.7 329.3 21.8 326.3 23.2 324C24.8 321.3 23.7 318.2 23.7 318.1C23.4 317.3 22.6 316.9 21.8 317.2C21 317.5 20.6 318.3 20.8 319.1C20.8 319.1 21.4 321.1 20.6 322.5C20 323.5 19 324.6 18.2 325.6C17.9 323.1 17.5 320.6 17.2 318.9C17.1 318.1 17 317.5 17 317.3C16.8 315.9 16 314.4 15.9 314.2C15.5 313.5 14.6 313.2 13.8 313.6C13.1 314 12.8 314.9 13.2 315.6C13.4 315.9 13.8 316.9 13.9 317.6C13.9 317.8 14 318.4 14.1 319.3C14.4 321.5 15 325.4 15.4 328.8C14.4 327.6 13.3 326.3 12.7 325.5C11.9 324.3 9 321.7 6.5 319.7C7.4 322.8 8.5 325.5 9.7 328.2ZM76 366.5C76.1 366.6 76.2 366.6 76.3 366.7C76.5 366.9 81 370.2 88.1 372.7C81.9 371.5 75.9 368.8 72.2 366.9C73.5 366.7 74.8 366.6 76 366.5ZM71.7 321.7C71.8 321.7 71.8 321.7 71.9 321.7C72.1 321.7 76.9 321.6 80.6 321.3C79.1 322.1 75.7 323.5 73.5 323.6C72.1 323.6 70.1 323.8 68.2 324C69.3 323.2 70.6 322.4 71.7 321.7ZM46.6 367.4C46.9 365.2 47.1 361.1 47.2 357.2C49.1 356.1 54.2 353 56.5 349.8C59.1 346.2 62.7 341.3 62.8 341.2C63.3 340.5 63.1 339.6 62.4 339.1C61.7 338.6 60.7 338.8 60.3 339.4C60.3 339.4 56.6 344.4 54 348C52.5 350 49.5 352.2 47.4 353.5C47.4 352.3 47.5 351.2 47.6 350.5C47.8 348.4 50.5 343.7 52.5 340.9C53.9 340.8 56.8 340.3 58.9 338.7C61.3 336.8 66.3 333.1 66.4 333.1C67.1 332.6 67.2 331.7 66.7 331C66.2 330.3 65.2 330.2 64.5 330.7C64.4 330.7 59.4 334.5 57 336.3C56.5 336.7 55.9 337 55.3 337.2C56.5 335.7 57.7 334.3 58 333.9C58.3 333.6 58.6 333.2 59 332.7C59.9 331.5 61.3 329.5 63.8 327.3C65.5 327.1 70.9 326.6 73.7 326.5C73.9 326.5 74.2 326.5 74.4 326.4C72.8 327.5 70.4 329.7 69.8 332.7L69 336.7C68.9 337.2 69 337.6 69.3 337.9C68.4 338.7 67.5 339.5 66.7 340.4C62.3 345.6 62.4 350.2 62.4 352.9C62.4 353.6 62.4 354.3 62.3 354.6C62.2 354.9 61.9 355.5 61.5 356.1C61.5 355.9 61.5 355.6 61.5 355.4C61.5 353.4 61.2 349.3 61.2 349.1C61.1 348.3 60.4 347.7 59.5 347.7C58.7 347.8 58 348.5 58.1 349.3C58.1 349.3 58.4 353.5 58.4 355.4C58.4 356.9 58.2 360.1 58.1 361.4C57.7 362 57.3 362.6 56.9 363.1C56.7 363.3 56.7 363.6 56.6 363.8C55.7 364.4 54.7 365.1 53.6 366C53.4 366 53.3 366.1 53.3 366.1C52.6 366.2 52.1 366.7 52 367.4C52 367.4 51.9 367.4 51.9 367.5C52 366.5 52.2 365.4 52.3 364.5C52.5 362.4 52.8 361.9 53.9 360.5C54.3 360 54.7 359.5 55.2 358.7C57.4 355.5 57.9 352.4 57.9 352.2C58 351.4 57.4 350.6 56.6 350.5C55.8 350.4 55 351 54.9 351.8C54.9 351.8 54.5 354.4 52.7 357C52.2 357.7 51.8 358.2 51.5 358.6C50.3 360.2 49.5 361.2 49.3 364.1C49.1 366.5 48.5 369.5 48.3 370.8C47.7 371.4 47 372.1 46.3 372.8C46.2 372.9 46.1 373 46 373.1C46.1 371.6 46.4 369.3 46.6 367.4ZM40.1 354.6C41.6 352.6 42 348.3 42 347C42.1 347.4 42.2 347.8 42.2 348.2L42.3 348.5C42.8 350.6 44.2 352.9 44.3 353C44.3 354.2 44.2 355.5 44.2 356.8C44.1 358.7 44.1 360.7 44 362.5L40.4 357.1C40.1 356.6 39.5 356.4 38.9 356.4C39.3 355.8 39.7 355.1 40.1 354.6ZM23.7 337.9C25.3 335.6 25.5 333.7 25.5 333.5C25.5 333.3 25.5 333.1 25.4 332.9C25.6 333.4 25.9 333.9 26.2 334.4C27 335.7 27.8 338.4 28.4 341L25.4 338.4C24.8 337.8 23.8 337.9 23.2 338.5C22.6 339.1 22.7 340.1 23.3 340.6L29.2 345.8C29.8 348.7 32.1 353 32.8 354.4C32.8 355.3 32.9 356.6 33.2 358.5C33.4 359.7 33.5 360.9 33.6 362V362.1C33.5 361.9 33.4 361.6 33.3 361.4C31.1 356.1 29.8 353.7 28.8 352.7C28.4 351.8 27 349.1 25 346.9C24.8 346.7 24.7 346.6 24.5 346.4C24.5 345.7 24 345.1 23.4 345C22.6 344 21.8 342.7 21.1 341.4C21.9 340.7 22.8 339.1 23.7 337.9Z" fill="black"/>
<path d="M257.5 123.8C234.1 127.3 175.1 120.3 151.3 120.3" stroke="url(#paint72_linear_41_161)" stroke-miterlimit="10" stroke-linecap="round" stroke-linejoin="round"/>
<path d="M351.7 112.8C346 110.6 338.5 108.5 329 107.7C306.5 105.8 285.7 117.4 264.8 122.3" stroke="url(#paint73_linear_41_161)" stroke-miterlimit="10" stroke-linecap="round" stroke-linejoin="round"/>
<path d="M365.4 120.7C365.4 120.7 363.1 118.5 358.4 115.9" stroke="url(#paint74_linear_41_161)" stroke-miterlimit="10" stroke-linecap="round" stroke-linejoin="round"/>
<path d="M167.7 94.9C173.3 96.4 179 97.3 189 96" stroke="url(#paint75_linear_41_161)" stroke-miterlimit="10" stroke-linecap="round" stroke-linejoin="round"/>
<path d="M147.4 89.9C154.4 90.9 159.2 92.3 163.5 93.6" stroke="url(#paint76_linear_41_161)" stroke-miterlimit="10" stroke-linecap="round" stroke-linejoin="round"/>
<path d="M112.7 89.9C112.7 89.9 124.7 88 140 89.1" stroke="url(#paint77_linear_41_161)" stroke-miterlimit="10" stroke-linecap="round" stroke-linejoin="round"/>
<path d="M141 343.3C128.2 342.1 119.6 340.1 119.6 340.1" stroke="url(#paint78_linear_41_161)" stroke-miterlimit="10" stroke-linecap="round" stroke-linejoin="round"/>
<path d="M283 321.9C283 321.9 266.5 317.6 240.5 324.1C214.5 330.6 192.8 342.7 167.2 344C160.4 344.3 153.9 344.2 147.9 343.9" stroke="url(#paint79_linear_41_161)" stroke-miterlimit="10" stroke-linecap="round" stroke-linejoin="round"/>
<path d="M274.5 348.2C278.8 348.4 283.1 348.9 287.4 349.6" stroke="url(#paint80_linear_41_161)" stroke-miterlimit="10" stroke-linecap="round" stroke-linejoin="round"/>
<path d="M197.2 362.6C197.2 362.6 230.5 347.6 268.4 348" stroke="url(#paint81_linear_41_161)" stroke-miterlimit="10" stroke-linecap="round" stroke-linejoin="round"/>
<path d="M332.1 234.9C327.1 236.5 322.3 237.6 316.8 237.8" stroke="url(#paint82_linear_41_161)" stroke-miterlimit="10" stroke-linecap="round" stroke-linejoin="round"/>
<path d="M398.4 227.4C398.4 227.4 378 220 359 225.7C350.5 228.2 343.8 230.8 337.9 233" stroke="url(#paint83_linear_41_161)" stroke-miterlimit="10" stroke-linecap="round" stroke-linejoin="round"/>
<path d="M73.9 263.7C74.9 257.2 76.8 246 76.8 246C76.8 246 80.6 240.4 90.2 238.6C99.8 236.7 95.9 238.6 100.7 236.7C105.5 234.8 108.4 227.4 108.4 223.7C108.4 220 105.5 213.5 105.5 206C105.5 198.6 112.2 195.8 116 190.2C119.8 184.6 112.2 167 99.7 169.8C87.2 172.6 95.9 187.5 91.1 190.2C86.3 193 82.5 189.3 80.6 184.6C78.7 180 77.7 175.3 77.7 175.3C77.7 175.3 77.7 161.4 77.7 157.6C77.7 155.1 70.2 150.8 65.3 148.4C57.5 163.7 48.6 178.9 37.2 192.9C2.10003 236 -15 289.7 16.5 340.7C23 351.2 30.4 360.8 38.6 369.8C39.5 362.4 40.3 356.4 40.3 356.4C40.3 356.4 44.1 349.9 47 334.1C49.9 318.3 48.9 329.5 50.8 325.7C52.7 322 53.7 313.6 53.7 310.8C53.7 308 66.2 299 70 293.4C73.9 287.8 72.9 270.2 73.9 263.7Z" fill="#D9D9D9"/>
<path d="M21.8 238.7C29.3 243.8 36 238 42 245.2C48 252.5 54.7 258.3 46.5 261.2C38.3 264.1 36.8 269.9 31.5 268.5C26.3 267 26.3 254.7 21 252.5C15.8 250.3 9.8 259.8 11.3 263.4C12.8 267 15 268.5 21 272.1C27 275.7 28.5 275.7 33.7 275.7C38.9 275.7 47.2 275 53.2 280.1C59.2 285.2 58.4 289.5 53.9 292.5C49.4 295.5 45.7 294.7 45.7 294.7C45.7 294.7 37.5 299.1 33 296.2C29.7 294 11.1 280.8 0.200005 276.3C-0.599995 286.4 0.100005 296.5 2.3 306.7C19.4 310.8 57.6 318.4 44.9 320.9C31.8 323.4 14.2 313.8 3.9 313.2C6.6 322.5 10.7 331.7 16.3 340.9C22.8 351.4 30.2 361 38.4 370C39.3 362.6 40.1 356.6 40.1 356.6C40.1 356.6 43.9 350.1 46.8 334.3C49.7 318.5 48.7 329.7 50.6 325.9C52.5 322.2 53.5 313.8 53.5 311C53.5 308.2 66.2 299 70 293.4C73.8 287.8 72.9 270.2 73.8 263.7C74.8 257.2 76.7 246 76.7 246C76.7 246 80.5 240.4 90.1 238.6C99.7 236.7 95.8 238.6 100.6 236.7C105.4 234.8 108.3 227.4 108.3 223.7C108.3 220 105.4 213.5 105.4 206C105.4 198.6 112.1 195.8 115.9 190.2C110.2 197.9 99.7 193.6 96.7 199.4C93.7 205.2 93.7 208.8 90.7 213.2C87.7 217.6 84 205.2 78.7 205.2C73.5 205.2 71.2 207.4 74.2 210.3C77.2 213.2 77.9 215.4 83.2 218.3C88.4 221.2 101.8 221.3 95.9 229.9C90 238.5 86.9 240.1 79.4 239.3C71.9 238.6 67.4 232.8 62.9 226.9C58.4 221.1 53.9 221.8 48.7 220.4C43.5 218.9 48.7 207.3 50.2 200.1C51.7 192.8 42.1 188.8 37.1 193C27 205.5 18.3 218.8 11.9 232.7C15.3 234.7 18.9 236.7 21.8 238.7Z" fill="#2892D7"/>
<path d="M113.2 175.8C112.5 174.8 111.6 173.8 110.7 173C111.4 173.7 112.3 174.6 113.2 175.8Z" fill="#2892D7" stroke="#2892D7" stroke-miterlimit="10"/>
<path d="M463 242.3C458.8 199.2 453.3 154.4 429.8 117.5C426.6 112.4 423 107.5 419.1 102.8C414.3 97.1 409.4 91.9 404.2 87.1C401.3 94.6 379.7 151.2 380.6 162.4C381.6 174.5 382.5 190.3 385.4 196.8C388.3 203.3 395 213.5 395 213.5C395 213.5 402.7 222.8 402.7 225.6C402.7 228.4 399.8 234 398.9 239.5C397.9 245.1 387.4 243.2 394.1 251.6C400.8 260 401.8 261.8 416.1 263.7C430.5 265.6 442 266.5 442.9 272.1C443.9 277.7 441.9 295.3 440 298.1C438.1 300.9 434.3 307.4 429.5 310.2C424.7 313 420.9 320.4 419.9 330.6C419.2 338.3 413 345 414.5 353C445 324.9 467 283.4 463 242.3Z" fill="#2892D7"/>
<path d="M395.9 144.2C401.1 155.8 401.1 157.3 418.4 156.6C435.6 155.9 452.1 163.1 446.1 171.9C440.1 180.6 434.9 174.1 431.9 169.7C428.9 165.3 416.2 160.3 410.9 171.2C405.7 182.1 411.6 187.2 419.1 186.5C426.6 185.8 440.1 179.2 437.1 186.5C434.1 193.8 429.6 194.5 424.4 194.5C419.2 194.5 413.9 188.7 414.7 195.2C415.4 201.7 422.9 196.7 428.2 203.2C433.4 209.7 424.5 213.4 414.7 209C405 204.6 400 209.5 395 213.6C395 213.6 402.7 222.9 402.7 225.7C402.7 228.5 399.8 234.1 398.9 239.6C397.9 245.2 387.4 243.3 394.1 251.7C400.8 260.1 401.8 261.9 416.1 263.8C430.5 265.7 442 266.6 442.9 272.2C443.9 277.8 441.9 295.4 440 298.2C438.1 301 434.3 307.5 429.5 310.3C424.7 313.1 420.9 320.5 419.9 330.7C419.2 338.4 413 345.1 414.5 353.1C445 325.1 467.1 283.6 463 242.5C458.8 199.4 453.3 154.6 429.8 117.7C426.6 112.6 423 107.7 419.1 103C419.1 102.8 390.6 132.6 395.9 144.2Z" fill="#D9D9D9"/>
</g>
<defs>
<linearGradient id="paint0_linear_41_161" x1="219.5" y1="417.9" x2="219.5" y2="426.7" gradientUnits="userSpaceOnUse">
<stop stop-color="#2892D7"/>
<stop offset="1" stop-color="#72A6C8"/>
</linearGradient>
<linearGradient id="paint1_linear_41_161" x1="220.35" y1="419.7" x2="220.35" y2="420.1" gradientUnits="userSpaceOnUse">
<stop stop-color="#2892D7"/>
<stop offset="1" stop-color="#72A6C8"/>
</linearGradient>
<linearGradient id="paint2_linear_41_161" x1="221.25" y1="421.4" x2="221.25" y2="424.9" gradientUnits="userSpaceOnUse">
<stop stop-color="#2892D7"/>
<stop offset="1" stop-color="#72A6C8"/>
</linearGradient>
<linearGradient id="paint3_linear_41_161" x1="215.2" y1="448.4" x2="215.2" y2="457.2" gradientUnits="userSpaceOnUse">
<stop stop-color="#2892D7"/>
<stop offset="1" stop-color="#72A6C8"/>
</linearGradient>
<linearGradient id="paint4_linear_41_161" x1="216.15" y1="450.2" x2="216.15" y2="450.6" gradientUnits="userSpaceOnUse">
<stop stop-color="#2892D7"/>
<stop offset="1" stop-color="#72A6C8"/>
</linearGradient>
<linearGradient id="paint5_linear_41_161" x1="217.05" y1="451.8" x2="217.05" y2="455.3" gradientUnits="userSpaceOnUse">
<stop stop-color="#2892D7"/>
<stop offset="1" stop-color="#72A6C8"/>
</linearGradient>
<linearGradient id="paint6_linear_41_161" x1="235.7" y1="411.6" x2="235.7" y2="419.4" gradientUnits="userSpaceOnUse">
<stop stop-color="#2892D7"/>
<stop offset="1" stop-color="#72A6C8"/>
</linearGradient>
<linearGradient id="paint7_linear_41_161" x1="236.55" y1="413.1" x2="236.55" y2="413.5" gradientUnits="userSpaceOnUse">
<stop stop-color="#2892D7"/>
<stop offset="1" stop-color="#72A6C8"/>
</linearGradient>
<linearGradient id="paint8_linear_41_161" x1="237.35" y1="414.6" x2="237.35" y2="417.7" gradientUnits="userSpaceOnUse">
<stop stop-color="#2892D7"/>
<stop offset="1" stop-color="#72A6C8"/>
</linearGradient>
<linearGradient id="paint9_linear_41_161" x1="228.1" y1="437.5" x2="228.1" y2="445.3" gradientUnits="userSpaceOnUse">
<stop stop-color="#2892D7"/>
<stop offset="1" stop-color="#72A6C8"/>
</linearGradient>
<linearGradient id="paint10_linear_41_161" x1="228.95" y1="439" x2="228.95" y2="439.4" gradientUnits="userSpaceOnUse">
<stop stop-color="#2892D7"/>
<stop offset="1" stop-color="#72A6C8"/>
</linearGradient>
<linearGradient id="paint11_linear_41_161" x1="229.75" y1="440.6" x2="229.75" y2="443.7" gradientUnits="userSpaceOnUse">
<stop stop-color="#2892D7"/>
<stop offset="1" stop-color="#72A6C8"/>
</linearGradient>
<linearGradient id="paint12_linear_41_161" x1="238.7" y1="392.2" x2="238.7" y2="400" gradientUnits="userSpaceOnUse">
<stop stop-color="#2892D7"/>
<stop offset="1" stop-color="#72A6C8"/>
</linearGradient>
<linearGradient id="paint13_linear_41_161" x1="239.55" y1="393.7" x2="239.55" y2="394.1" gradientUnits="userSpaceOnUse">
<stop stop-color="#2892D7"/>
<stop offset="1" stop-color="#72A6C8"/>
</linearGradient>
<linearGradient id="paint14_linear_41_161" x1="240.35" y1="395.3" x2="240.35" y2="398.4" gradientUnits="userSpaceOnUse">
<stop stop-color="#2892D7"/>
<stop offset="1" stop-color="#72A6C8"/>
</linearGradient>
<linearGradient id="paint15_linear_41_161" x1="256" y1="396.5" x2="256" y2="400.9" gradientUnits="userSpaceOnUse">
<stop stop-color="#2892D7"/>
<stop offset="1" stop-color="#72A6C8"/>
</linearGradient>
<linearGradient id="paint16_linear_41_161" x1="256.5" y1="397.4" x2="256.5" y2="397.6" gradientUnits="userSpaceOnUse">
<stop stop-color="#2892D7"/>
<stop offset="1" stop-color="#72A6C8"/>
</linearGradient>
<linearGradient id="paint17_linear_41_161" x1="256.9" y1="398.2" x2="256.9" y2="400" gradientUnits="userSpaceOnUse">
<stop stop-color="#2892D7"/>
<stop offset="1" stop-color="#72A6C8"/>
</linearGradient>
<linearGradient id="paint18_linear_41_161" x1="239" y1="428.9" x2="239" y2="442.1" gradientUnits="userSpaceOnUse">
<stop stop-color="#2892D7"/>
<stop offset="1" stop-color="#72A6C8"/>
</linearGradient>
<linearGradient id="paint19_linear_41_161" x1="240.45" y1="431.4" x2="240.45" y2="432.1" gradientUnits="userSpaceOnUse">
<stop stop-color="#2892D7"/>
<stop offset="1" stop-color="#72A6C8"/>
</linearGradient>
<linearGradient id="paint20_linear_41_161" x1="241.85" y1="434.1" x2="241.85" y2="439.4" gradientUnits="userSpaceOnUse">
<stop stop-color="#2892D7"/>
<stop offset="1" stop-color="#72A6C8"/>
</linearGradient>
<linearGradient id="paint21_linear_41_161" x1="278" y1="389.5" x2="278" y2="402.7" gradientUnits="userSpaceOnUse">
<stop stop-color="#2892D7"/>
<stop offset="1" stop-color="#72A6C8"/>
</linearGradient>
<linearGradient id="paint22_linear_41_161" x1="279.45" y1="392" x2="279.45" y2="392.7" gradientUnits="userSpaceOnUse">
<stop stop-color="#2892D7"/>
<stop offset="1" stop-color="#72A6C8"/>
</linearGradient>
<linearGradient id="paint23_linear_41_161" x1="280.85" y1="394.6" x2="280.85" y2="399.9" gradientUnits="userSpaceOnUse">
<stop stop-color="#2892D7"/>
<stop offset="1" stop-color="#72A6C8"/>
</linearGradient>
<linearGradient id="paint24_linear_41_161" x1="193.6" y1="291.4" x2="193.6" y2="298.4" gradientUnits="userSpaceOnUse">
<stop stop-color="#2892D7"/>
<stop offset="1" stop-color="#72A6C8"/>
</linearGradient>
<linearGradient id="paint25_linear_41_161" x1="192.8" y1="292.7" x2="192.8" y2="293.1" gradientUnits="userSpaceOnUse">
<stop stop-color="#2892D7"/>
<stop offset="1" stop-color="#72A6C8"/>
</linearGradient>
<linearGradient id="paint26_linear_41_161" x1="192.15" y1="294.2" x2="192.15" y2="297" gradientUnits="userSpaceOnUse">
<stop stop-color="#2892D7"/>
<stop offset="1" stop-color="#72A6C8"/>
</linearGradient>
<linearGradient id="paint27_linear_41_161" x1="197.1" y1="316" x2="197.1" y2="323" gradientUnits="userSpaceOnUse">
<stop stop-color="#2892D7"/>
<stop offset="1" stop-color="#72A6C8"/>
</linearGradient>
<linearGradient id="paint28_linear_41_161" x1="196.3" y1="317.3" x2="196.3" y2="317.7" gradientUnits="userSpaceOnUse">
<stop stop-color="#2892D7"/>
<stop offset="1" stop-color="#72A6C8"/>
</linearGradient>
<linearGradient id="paint29_linear_41_161" x1="195.55" y1="318.8" x2="195.55" y2="321.6" gradientUnits="userSpaceOnUse">
<stop stop-color="#2892D7"/>
<stop offset="1" stop-color="#72A6C8"/>
</linearGradient>
<linearGradient id="paint30_linear_41_161" x1="180.5" y1="286.295" x2="180.5" y2="292.5" gradientUnits="userSpaceOnUse">
<stop stop-color="#2892D7"/>
<stop offset="1" stop-color="#72A6C8"/>
</linearGradient>
<linearGradient id="paint31_linear_41_161" x1="179.75" y1="287.5" x2="179.75" y2="287.8" gradientUnits="userSpaceOnUse">
<stop stop-color="#2892D7"/>
<stop offset="1" stop-color="#72A6C8"/>
</linearGradient>
<linearGradient id="paint32_linear_41_161" x1="179.1" y1="288.7" x2="179.1" y2="291.2" gradientUnits="userSpaceOnUse">
<stop stop-color="#2892D7"/>
<stop offset="1" stop-color="#72A6C8"/>
</linearGradient>
<linearGradient id="paint33_linear_41_161" x1="186.6" y1="307.2" x2="186.6" y2="313.4" gradientUnits="userSpaceOnUse">
<stop stop-color="#2892D7"/>
<stop offset="1" stop-color="#72A6C8"/>
</linearGradient>
<linearGradient id="paint34_linear_41_161" x1="185.95" y1="308.4" x2="185.95" y2="308.7" gradientUnits="userSpaceOnUse">
<stop stop-color="#2892D7"/>
<stop offset="1" stop-color="#72A6C8"/>
</linearGradient>
<linearGradient id="paint35_linear_41_161" x1="185.3" y1="309.7" x2="185.3" y2="312.2" gradientUnits="userSpaceOnUse">
<stop stop-color="#2892D7"/>
<stop offset="1" stop-color="#72A6C8"/>
</linearGradient>
<linearGradient id="paint36_linear_41_161" x1="178.1" y1="270.6" x2="178.1" y2="276.8" gradientUnits="userSpaceOnUse">
<stop stop-color="#2892D7"/>
<stop offset="1" stop-color="#72A6C8"/>
</linearGradient>
<linearGradient id="paint37_linear_41_161" x1="177.35" y1="271.8" x2="177.35" y2="272.1" gradientUnits="userSpaceOnUse">
<stop stop-color="#2892D7"/>
<stop offset="1" stop-color="#72A6C8"/>
</linearGradient>
<linearGradient id="paint38_linear_41_161" x1="176.7" y1="273.1" x2="176.7" y2="275.6" gradientUnits="userSpaceOnUse">
<stop stop-color="#2892D7"/>
<stop offset="1" stop-color="#72A6C8"/>
</linearGradient>
<linearGradient id="paint39_linear_41_161" x1="164.1" y1="274.1" x2="164.1" y2="277.7" gradientUnits="userSpaceOnUse">
<stop stop-color="#2892D7"/>
<stop offset="1" stop-color="#72A6C8"/>
</linearGradient>
<linearGradient id="paint40_linear_41_161" x1="163.75" y1="274.8" x2="163.75" y2="275" gradientUnits="userSpaceOnUse">
<stop stop-color="#2892D7"/>
<stop offset="1" stop-color="#72A6C8"/>
</linearGradient>
<linearGradient id="paint41_linear_41_161" x1="163.3" y1="275.5" x2="163.3" y2="276.9" gradientUnits="userSpaceOnUse">
<stop stop-color="#2892D7"/>
<stop offset="1" stop-color="#72A6C8"/>
</linearGradient>
<linearGradient id="paint42_linear_41_161" x1="177.8" y1="300.3" x2="177.8" y2="310.9" gradientUnits="userSpaceOnUse">
<stop stop-color="#2892D7"/>
<stop offset="1" stop-color="#72A6C8"/>
</linearGradient>
<linearGradient id="paint43_linear_41_161" x1="176.7" y1="302.4" x2="176.7" y2="302.9" gradientUnits="userSpaceOnUse">
<stop stop-color="#2892D7"/>
<stop offset="1" stop-color="#72A6C8"/>
</linearGradient>
<linearGradient id="paint44_linear_41_161" x1="175.55" y1="304.5" x2="175.55" y2="308.7" gradientUnits="userSpaceOnUse">
<stop stop-color="#2892D7"/>
<stop offset="1" stop-color="#72A6C8"/>
</linearGradient>
<linearGradient id="paint45_linear_41_161" x1="146.3" y1="268.4" x2="146.3" y2="279" gradientUnits="userSpaceOnUse">
<stop stop-color="#2892D7"/>
<stop offset="1" stop-color="#72A6C8"/>
</linearGradient>
<linearGradient id="paint46_linear_41_161" x1="145.2" y1="270.5" x2="145.2" y2="271" gradientUnits="userSpaceOnUse">
<stop stop-color="#2892D7"/>
<stop offset="1" stop-color="#72A6C8"/>
</linearGradient>
<linearGradient id="paint47_linear_41_161" x1="144.05" y1="272.7" x2="144.05" y2="276.9" gradientUnits="userSpaceOnUse">
<stop stop-color="#2892D7"/>
<stop offset="1" stop-color="#72A6C8"/>
</linearGradient>
<linearGradient id="paint48_linear_41_161" x1="157.25" y1="231.31" x2="157.25" y2="238.59" gradientUnits="userSpaceOnUse">
<stop stop-color="#2892D7"/>
<stop offset="1" stop-color="#72A6C8"/>
</linearGradient>
<linearGradient id="paint49_linear_41_161" x1="156.5" y1="232.8" x2="156.5" y2="233.2" gradientUnits="userSpaceOnUse">
<stop stop-color="#2892D7"/>
<stop offset="1" stop-color="#72A6C8"/>
</linearGradient>
<linearGradient id="paint50_linear_41_161" x1="158.86" y1="233" x2="158.86" y2="236.1" gradientUnits="userSpaceOnUse">
<stop stop-color="#2892D7"/>
<stop offset="1" stop-color="#72A6C8"/>
</linearGradient>
<linearGradient id="paint51_linear_41_161" x1="170.95" y1="252.01" x2="170.95" y2="259.29" gradientUnits="userSpaceOnUse">
<stop stop-color="#2892D7"/>
<stop offset="1" stop-color="#72A6C8"/>
</linearGradient>
<linearGradient id="paint52_linear_41_161" x1="170.2" y1="253.5" x2="170.2" y2="253.9" gradientUnits="userSpaceOnUse">
<stop stop-color="#2892D7"/>
<stop offset="1" stop-color="#72A6C8"/>
</linearGradient>
<linearGradient id="paint53_linear_41_161" x1="172.56" y1="253.7" x2="172.56" y2="256.8" gradientUnits="userSpaceOnUse">
<stop stop-color="#2892D7"/>
<stop offset="1" stop-color="#72A6C8"/>
</linearGradient>
<linearGradient id="paint54_linear_41_161" x1="163.413" y1="218.959" x2="163.413" y2="225.341" gradientUnits="userSpaceOnUse">
<stop stop-color="#2892D7"/>
<stop offset="1" stop-color="#72A6C8"/>
</linearGradient>
<linearGradient id="paint55_linear_41_161" x1="162.75" y1="220.2" x2="162.75" y2="220.6" gradientUnits="userSpaceOnUse">
<stop stop-color="#2892D7"/>
<stop offset="1" stop-color="#72A6C8"/>
</linearGradient>
<linearGradient id="paint56_linear_41_161" x1="164.889" y1="220.4" x2="164.889" y2="223.1" gradientUnits="userSpaceOnUse">
<stop stop-color="#2892D7"/>
<stop offset="1" stop-color="#72A6C8"/>
</linearGradient>
<linearGradient id="paint57_linear_41_161" x1="172.634" y1="238.759" x2="172.634" y2="245.141" gradientUnits="userSpaceOnUse">
<stop stop-color="#2892D7"/>
<stop offset="1" stop-color="#72A6C8"/>
</linearGradient>
<linearGradient id="paint58_linear_41_161" x1="171.95" y1="240" x2="171.95" y2="240.4" gradientUnits="userSpaceOnUse">
<stop stop-color="#2892D7"/>
<stop offset="1" stop-color="#72A6C8"/>
</linearGradient>
<linearGradient id="paint59_linear_41_161" x1="174.089" y1="240.2" x2="174.089" y2="242.9" gradientUnits="userSpaceOnUse">
<stop stop-color="#2892D7"/>
<stop offset="1" stop-color="#72A6C8"/>
</linearGradient>
<linearGradient id="paint60_linear_41_161" x1="154.913" y1="205.559" x2="154.913" y2="211.941" gradientUnits="userSpaceOnUse">
<stop stop-color="#2892D7"/>
<stop offset="1" stop-color="#72A6C8"/>
</linearGradient>
<linearGradient id="paint61_linear_41_161" x1="154.25" y1="206.9" x2="154.25" y2="207.3" gradientUnits="userSpaceOnUse">
<stop stop-color="#2892D7"/>
<stop offset="1" stop-color="#72A6C8"/>
</linearGradient>
<linearGradient id="paint62_linear_41_161" x1="156.389" y1="207.1" x2="156.389" y2="209.8" gradientUnits="userSpaceOnUse">
<stop stop-color="#2892D7"/>
<stop offset="1" stop-color="#72A6C8"/>
</linearGradient>
<linearGradient id="paint63_linear_41_161" x1="166.75" y1="199.422" x2="166.75" y2="202.978" gradientUnits="userSpaceOnUse">
<stop stop-color="#2892D7"/>
<stop offset="1" stop-color="#72A6C8"/>
</linearGradient>
<linearGradient id="paint64_linear_41_161" x1="166.35" y1="200.1" x2="166.35" y2="200.3" gradientUnits="userSpaceOnUse">
<stop stop-color="#2892D7"/>
<stop offset="1" stop-color="#72A6C8"/>
</linearGradient>
<linearGradient id="paint65_linear_41_161" x1="167.57" y1="200.2" x2="167.57" y2="201.7" gradientUnits="userSpaceOnUse">
<stop stop-color="#2892D7"/>
<stop offset="1" stop-color="#72A6C8"/>
</linearGradient>
<linearGradient id="paint66_linear_41_161" x1="176.15" y1="227.117" x2="176.15" y2="237.983" gradientUnits="userSpaceOnUse">
<stop stop-color="#2892D7"/>
<stop offset="1" stop-color="#72A6C8"/>
</linearGradient>
<linearGradient id="paint67_linear_41_161" x1="175.05" y1="229.2" x2="175.05" y2="229.8" gradientUnits="userSpaceOnUse">
<stop stop-color="#2892D7"/>
<stop offset="1" stop-color="#72A6C8"/>
</linearGradient>
<linearGradient id="paint68_linear_41_161" x1="178.63" y1="229.6" x2="178.63" y2="234.2" gradientUnits="userSpaceOnUse">
<stop stop-color="#2892D7"/>
<stop offset="1" stop-color="#72A6C8"/>
</linearGradient>
<linearGradient id="paint69_linear_41_161" x1="178.75" y1="182.417" x2="178.75" y2="193.283" gradientUnits="userSpaceOnUse">
<stop stop-color="#2892D7"/>
<stop offset="1" stop-color="#72A6C8"/>
</linearGradient>
<linearGradient id="paint70_linear_41_161" x1="177.55" y1="184.5" x2="177.55" y2="185.1" gradientUnits="userSpaceOnUse">
<stop stop-color="#2892D7"/>
<stop offset="1" stop-color="#72A6C8"/>
</linearGradient>
<linearGradient id="paint71_linear_41_161" x1="181.23" y1="184.9" x2="181.23" y2="189.5" gradientUnits="userSpaceOnUse">
<stop stop-color="#2892D7"/>
<stop offset="1" stop-color="#72A6C8"/>
</linearGradient>
<linearGradient id="paint72_linear_41_161" x1="204.4" y1="120.3" x2="204.4" y2="124.78" gradientUnits="userSpaceOnUse">
<stop stop-color="#2892D7"/>
<stop offset="1" stop-color="#72A6C8"/>
</linearGradient>
<linearGradient id="paint73_linear_41_161" x1="308.25" y1="107.492" x2="308.25" y2="122.3" gradientUnits="userSpaceOnUse">
<stop stop-color="#2892D7"/>
<stop offset="1" stop-color="#72A6C8"/>
</linearGradient>
<linearGradient id="paint74_linear_41_161" x1="361.9" y1="115.9" x2="361.9" y2="120.7" gradientUnits="userSpaceOnUse">
<stop stop-color="#2892D7"/>
<stop offset="1" stop-color="#72A6C8"/>
</linearGradient>
<linearGradient id="paint75_linear_41_161" x1="178.35" y1="94.9" x2="178.35" y2="96.626" gradientUnits="userSpaceOnUse">
<stop stop-color="#2892D7"/>
<stop offset="1" stop-color="#72A6C8"/>
</linearGradient>
<linearGradient id="paint76_linear_41_161" x1="155.45" y1="89.9" x2="155.45" y2="93.6" gradientUnits="userSpaceOnUse">
<stop stop-color="#2892D7"/>
<stop offset="1" stop-color="#72A6C8"/>
</linearGradient>
<linearGradient id="paint77_linear_41_161" x1="126.35" y1="88.7573" x2="126.35" y2="89.9" gradientUnits="userSpaceOnUse">
<stop stop-color="#2892D7"/>
<stop offset="1" stop-color="#72A6C8"/>
</linearGradient>
<linearGradient id="paint78_linear_41_161" x1="130.3" y1="340.1" x2="130.3" y2="343.3" gradientUnits="userSpaceOnUse">
<stop stop-color="#2892D7"/>
<stop offset="1" stop-color="#72A6C8"/>
</linearGradient>
<linearGradient id="paint79_linear_41_161" x1="215.45" y1="320.505" x2="215.45" y2="344.181" gradientUnits="userSpaceOnUse">
<stop stop-color="#2892D7"/>
<stop offset="1" stop-color="#72A6C8"/>
</linearGradient>
<linearGradient id="paint80_linear_41_161" x1="280.95" y1="348.2" x2="280.95" y2="349.6" gradientUnits="userSpaceOnUse">
<stop stop-color="#2892D7"/>
<stop offset="1" stop-color="#72A6C8"/>
</linearGradient>
<linearGradient id="paint81_linear_41_161" x1="232.8" y1="347.992" x2="232.8" y2="362.6" gradientUnits="userSpaceOnUse">
<stop stop-color="#2892D7"/>
<stop offset="1" stop-color="#72A6C8"/>
</linearGradient>
<linearGradient id="paint82_linear_41_161" x1="324.45" y1="234.9" x2="324.45" y2="237.8" gradientUnits="userSpaceOnUse">
<stop stop-color="#2892D7"/>
<stop offset="1" stop-color="#72A6C8"/>
</linearGradient>
<linearGradient id="paint83_linear_41_161" x1="368.15" y1="223.543" x2="368.15" y2="233" gradientUnits="userSpaceOnUse">
<stop stop-color="#2892D7"/>
<stop offset="1" stop-color="#72A6C8"/>
</linearGradient>
<clipPath id="clip0_41_161">
<rect width="463.5" height="473.3" fill="white"/>
</clipPath>
</defs>
</svg>
