<svg width="300" height="300" viewBox="0 0 300 300" fill="none" xmlns="http://www.w3.org/2000/svg">
<path d="M23.8496 138.542C23.8496 138.24 23.9434 137.969 24.1413 137.729C24.3496 137.479 24.6204 137.354 24.9538 137.354C25.2871 137.354 25.5579 137.453 25.7663 137.646C25.7663 137.646 26.0163 137.875 26.5163 138.333C28.5423 140.115 31.3809 141 35.0371 141C37.4954 141 39.0788 140.495 39.7871 139.479C39.9798 139.203 40.0788 138.927 40.0788 138.646C40.0788 138.354 40.0215 138.078 39.9121 137.813C39.7975 137.552 39.5684 137.229 39.2246 136.854C38.8757 136.469 38.3757 136.01 37.7246 135.479L35.1413 133.396C30.8913 130.078 27.9746 127.385 26.3913 125.313C24.9434 123.427 24.2246 121.495 24.2246 119.521C24.2246 117.036 25.36 114.953 27.6413 113.271C30.0163 111.521 33.0788 110.646 36.8288 110.646C39.4538 110.646 41.5267 110.953 43.0579 111.563C44.584 112.161 45.6621 112.708 46.2871 113.208C46.9121 113.708 47.2246 114.161 47.2246 114.563C47.2246 115.411 46.8913 115.833 46.2246 115.833C45.9017 115.833 45.61 115.724 45.3496 115.5C45.0996 115.266 44.5788 114.885 43.7871 114.354C43.0059 113.813 41.9746 113.391 40.6829 113.083C39.3913 112.766 38.1882 112.604 37.0788 112.604C35.9642 112.604 35.1829 112.786 34.7246 113.146C34.2663 113.495 34.0371 113.844 34.0371 114.188C34.0371 114.521 34.1048 114.844 34.2454 115.146C34.3809 115.438 34.6309 115.792 34.9954 116.208C35.8548 117.224 37.2298 118.427 39.1204 119.813C41.0215 121.203 42.6257 122.474 43.9329 123.625C45.2507 124.781 46.2767 125.844 47.0163 126.813C48.36 128.578 49.0371 130.354 49.0371 132.146C49.0371 133.938 48.7038 135.479 48.0371 136.771C47.3704 138.052 46.4225 139.146 45.2038 140.063C42.6048 142.036 39.1413 143.021 34.8079 143.021C31.3184 143.021 28.4173 142.354 26.0996 141.021C24.5996 140.188 23.8496 139.365 23.8496 138.542Z" fill="white"/>
<path d="M71.7804 140.583C72.6971 140.766 73.6138 140.854 74.5304 140.854C75.4575 140.854 76.3638 140.786 77.2388 140.646C78.1138 140.495 78.9367 140.281 79.7179 140C81.369 139.417 82.7075 138.677 83.7388 137.771C84.4575 137.146 84.9784 136.833 85.3013 136.833C86.0513 136.833 86.4263 137.167 86.4263 137.833C86.4263 138.5 85.8221 139.292 84.6138 140.208C81.7909 142.083 78.4106 143.021 74.4679 143.021C69.3273 143.021 65.1815 141.479 62.0304 138.396C58.9159 135.344 57.3638 131.385 57.3638 126.521C57.3638 121.911 59.0148 118.104 62.3221 115.104C65.5981 112.135 69.7179 110.646 74.6763 110.646C77.5096 110.646 80.2284 111.229 82.8429 112.396C84.8429 113.26 85.8429 114.146 85.8429 115.063C85.8429 115.453 85.7231 115.75 85.4888 115.958C85.2648 116.167 85.02 116.271 84.7596 116.271C84.3429 116.271 83.8117 116.042 83.1763 115.583C81.895 114.375 80.0096 113.531 77.5096 113.042C76.619 112.865 75.6346 112.771 74.5513 112.771C73.4784 112.771 72.5565 112.854 71.7804 113.021V140.583Z" fill="white"/>
<path d="M120.996 110.646C127.871 110.646 131.308 113.99 131.308 120.667V142.458H118.725V113.958C118.36 113.724 117.891 113.604 117.308 113.604C116.735 113.604 116.141 113.745 115.516 114.021C114.891 114.286 114.235 114.661 113.558 115.146C112.1 116.229 110.798 117.578 109.662 119.188V142.458H97.0581V101H109.662V116.125C112.996 112.474 116.772 110.646 120.996 110.646Z" fill="white"/>
<path d="M155.096 143.021C148.247 143.021 144.825 139.667 144.825 132.958V111.167H157.367V139.854C157.56 139.953 157.805 140 158.096 140H159.055C160.622 140 162.482 138.948 164.638 136.833C165.273 136.198 165.878 135.495 166.45 134.729V111.167H179.034V142.458H166.45V137.938C163.253 141.328 159.471 143.021 155.096 143.021Z" fill="white"/>
<path d="M192.576 101H205.18V142.458H192.576V101Z" fill="white"/>
<path d="M230.755 143.021C223.099 143.021 219.276 139.521 219.276 132.521L219.255 113.313L215.88 113.458C214.823 113.458 214.297 113.057 214.297 112.25C214.297 111.448 214.865 111.042 216.005 111.042L218.818 111.167H219.255V106.625L231.818 101V111.167H235.734L238.526 111.042C239.677 111.042 240.255 111.458 240.255 112.292C240.255 112.656 240.089 112.938 239.755 113.146C239.432 113.354 239.073 113.458 238.672 113.458L235.047 113.313H231.818V140.854C234.094 140.813 235.995 140.156 237.526 138.875C238.245 138.333 238.76 137.635 239.068 136.771C239.37 135.911 239.641 135.365 239.88 135.125C240.13 134.875 240.422 134.75 240.755 134.75C241.089 134.75 241.365 134.885 241.589 135.146C241.823 135.411 241.943 135.724 241.943 136.083C241.943 136.448 241.844 136.849 241.651 137.292C241.453 137.724 241.161 138.188 240.776 138.688C239.901 139.771 238.885 140.641 237.734 141.292C235.635 142.448 233.307 143.021 230.755 143.021Z" fill="white"/>
<path d="M275.678 139.938C276.73 139.938 277.261 140.328 277.261 141.104C277.261 141.469 277.032 141.786 276.574 142.063C276.126 142.328 275.371 142.458 274.303 142.458H247.032L264.366 113.313H255.553C254.261 113.313 253.272 113.37 252.595 113.479C251.678 113.635 251.022 113.708 250.636 113.708C250.246 113.708 249.918 113.599 249.657 113.375C249.392 113.156 249.261 112.875 249.261 112.542C249.261 111.625 250.225 111.167 252.157 111.167H277.532L261.303 140.313H270.928C272.355 140.313 273.371 140.26 273.97 140.146C274.688 140.01 275.261 139.938 275.678 139.938Z" fill="white"/>
<path d="M23.396 164.457L180.406 164.457" stroke="white" stroke-width="4"/>
<path fill-rule="evenodd" clip-rule="evenodd" d="M277.339 180H23V198.536H277.339V180ZM26 185.208L29.5208 191.208V194.542H31.5208V191.208L35.0625 185.208H32.7292L30.5625 189.208H30.5L28.3333 185.208H26ZM41.9923 194.75C41.2684 194.75 40.5965 194.615 39.9715 194.354C39.3569 194.094 38.8256 193.745 38.3673 193.312C37.9194 192.87 37.5652 192.354 37.3048 191.771C37.0548 191.177 36.9298 190.542 36.9298 189.875C36.9298 189.208 37.0548 188.583 37.3048 188C37.5652 187.406 37.9194 186.891 38.3673 186.458C38.8256 186.016 39.3569 185.661 39.9715 185.396C40.5965 185.135 41.2684 185 41.9923 185C42.7111 185 43.3777 185.135 43.9923 185.396C44.6173 185.661 45.1486 186.016 45.5965 186.458C46.0548 186.891 46.409 187.406 46.659 188C46.9194 188.583 47.0548 189.208 47.0548 189.875C47.0548 190.542 46.9194 191.177 46.659 191.771C46.409 192.354 46.0548 192.87 45.5965 193.312C45.1486 193.745 44.6173 194.094 43.9923 194.354C43.3777 194.615 42.7111 194.75 41.9923 194.75ZM41.9923 192.875C42.409 192.875 42.7944 192.802 43.159 192.646C43.534 192.495 43.8517 192.286 44.1173 192.021C44.3934 191.745 44.6069 191.427 44.7631 191.062C44.9142 190.688 44.9923 190.292 44.9923 189.875C44.9923 189.458 44.9142 189.073 44.7631 188.708C44.6069 188.333 44.3934 188.016 44.1173 187.75C43.8517 187.474 43.534 187.26 43.159 187.104C42.7944 186.953 42.409 186.875 41.9923 186.875C41.5756 186.875 41.1798 186.953 40.8048 187.104C40.4402 187.26 40.1225 187.474 39.8465 187.75C39.5809 188.016 39.3725 188.333 39.2215 188.708C39.0652 189.073 38.9923 189.458 38.9923 189.875C38.9923 190.292 39.0652 190.688 39.2215 191.062C39.3725 191.427 39.5809 191.745 39.8465 192.021C40.1225 192.286 40.4402 192.495 40.8048 192.646C41.1798 192.802 41.5756 192.875 41.9923 192.875ZM52.5295 194.458C53.0295 194.651 53.5815 194.75 54.1961 194.75C54.7795 194.75 55.3211 194.651 55.8211 194.458C56.3315 194.25 56.7638 193.974 57.1128 193.625C57.4722 193.266 57.7482 192.833 57.9461 192.333C58.1545 191.833 58.2586 191.281 58.2586 190.667V185.208H56.2586V190.667C56.2586 191.016 56.2013 191.323 56.092 191.583C55.993 191.849 55.8524 192.078 55.6753 192.271C55.493 192.469 55.269 192.62 55.0086 192.729C54.7586 192.828 54.4878 192.875 54.1961 192.875C53.8888 192.875 53.6024 192.828 53.342 192.729C53.092 192.62 52.8732 192.469 52.6961 192.271C52.5138 192.078 52.368 191.849 52.2586 191.583C52.1597 191.323 52.1128 191.016 52.1128 190.667V185.208H50.1128V190.667C50.1128 191.281 50.2065 191.833 50.4045 192.333C50.6128 192.833 50.8888 193.266 51.2378 193.625C51.5972 193.974 52.0295 194.25 52.5295 194.458ZM61.9254 185.208H66.0504C66.5504 185.208 66.9983 185.286 67.4046 185.438C67.8056 185.594 68.1442 185.807 68.4254 186.083C68.7171 186.349 68.9358 186.677 69.0921 187.063C69.2431 187.453 69.3212 187.875 69.3212 188.333C69.3212 188.875 69.2379 189.328 69.0712 189.688C68.9046 190.036 68.7171 190.313 68.5087 190.521C68.2848 190.76 68.0192 190.948 67.7171 191.083L69.6546 194.542H67.4462L65.7796 191.479H63.9254V194.542H61.9254V185.208ZM65.9879 189.604C66.3629 189.604 66.665 189.49 66.9046 189.25C67.139 189.016 67.2587 188.708 67.2587 188.333C67.2587 187.974 67.139 187.677 66.9046 187.438C66.665 187.203 66.3629 187.083 65.9879 187.083H63.9254V189.604H65.9879ZM78.7872 185.208H76.7872V194.542H83.1206V192.667H78.7872V185.208ZM90.3757 194.75C89.6518 194.75 88.9799 194.615 88.3549 194.354C87.7403 194.094 87.2091 193.745 86.7507 193.312C86.3028 192.87 85.9487 192.354 85.6882 191.771C85.4382 191.177 85.3132 190.542 85.3132 189.875C85.3132 189.208 85.4382 188.583 85.6882 188C85.9487 187.406 86.3028 186.891 86.7507 186.458C87.2091 186.016 87.7403 185.661 88.3549 185.396C88.9799 185.135 89.6518 185 90.3757 185C91.0945 185 91.7611 185.135 92.3757 185.396C93.0007 185.661 93.532 186.016 93.9799 186.458C94.4382 186.891 94.7924 187.406 95.0424 188C95.3028 188.583 95.4382 189.208 95.4382 189.875C95.4382 190.542 95.3028 191.177 95.0424 191.771C94.7924 192.354 94.4382 192.87 93.9799 193.312C93.532 193.745 93.0007 194.094 92.3757 194.354C91.7611 194.615 91.0945 194.75 90.3757 194.75ZM90.3757 192.875C90.7924 192.875 91.1778 192.802 91.5424 192.646C91.9174 192.495 92.2351 192.286 92.5007 192.021C92.7768 191.745 92.9903 191.427 93.1466 191.062C93.2976 190.688 93.3757 190.292 93.3757 189.875C93.3757 189.458 93.2976 189.073 93.1466 188.708C92.9903 188.333 92.7768 188.016 92.5007 187.75C92.2351 187.474 91.9174 187.26 91.5424 187.104C91.1778 186.953 90.7924 186.875 90.3757 186.875C89.9591 186.875 89.5632 186.953 89.1882 187.104C88.8236 187.26 88.5059 187.474 88.2299 187.75C87.9643 188.016 87.7559 188.333 87.6049 188.708C87.4486 189.073 87.3757 189.458 87.3757 189.875C87.3757 190.292 87.4486 190.688 87.6049 191.062C87.7559 191.427 87.9643 191.745 88.2299 192.021C88.5059 192.286 88.8236 192.495 89.1882 192.646C89.5632 192.802 89.9591 192.875 90.3757 192.875ZM101.017 194.354C101.642 194.615 102.314 194.75 103.038 194.75C103.705 194.75 104.288 194.651 104.788 194.458C105.288 194.25 105.705 194.036 106.038 193.812C106.423 193.536 106.757 193.224 107.038 192.875L105.705 191.542C105.522 191.792 105.293 192.016 105.017 192.208C104.793 192.375 104.517 192.531 104.184 192.667C103.85 192.807 103.465 192.875 103.038 192.875C102.621 192.875 102.225 192.802 101.85 192.646C101.486 192.495 101.168 192.286 100.892 192.021C100.627 191.745 100.418 191.427 100.267 191.062C100.111 190.688 100.038 190.292 100.038 189.875C100.038 189.458 100.111 189.073 100.267 188.708C100.418 188.333 100.627 188.016 100.892 187.75C101.168 187.474 101.486 187.26 101.85 187.104C102.225 186.953 102.621 186.875 103.038 186.875C103.455 186.875 103.819 186.948 104.142 187.083C104.46 187.224 104.731 187.375 104.955 187.542C105.215 187.74 105.444 187.958 105.642 188.208L106.975 186.875C106.694 186.531 106.361 186.219 105.975 185.938C105.653 185.719 105.246 185.51 104.746 185.312C104.257 185.104 103.689 185 103.038 185C102.314 185 101.642 185.135 101.017 185.396C100.403 185.661 99.8713 186.016 99.413 186.458C98.965 186.891 98.6109 187.406 98.3505 188C98.1005 188.583 97.9755 189.208 97.9755 189.875C97.9755 190.542 98.1005 191.177 98.3505 191.771C98.6109 192.354 98.965 192.87 99.413 193.312C99.8713 193.745 100.403 194.094 101.017 194.354ZM112.301 185.208H114.572L118.176 194.542H116.03L115.238 192.417H111.634L110.842 194.542H108.697L112.301 185.208ZM114.572 190.604L113.467 187.542H113.405L112.301 190.604H114.572ZM122.772 185.208H120.772V194.542H127.105V192.667H122.772V185.208ZM134.034 185.208H136.034V188.875H140.034V185.208H142.034V194.542H140.034V190.75H136.034V194.542H134.034V185.208ZM150.493 185.208H148.222L144.618 194.542H146.764L147.555 192.417H151.159L151.951 194.542H154.097L150.493 185.208ZM149.389 187.542L150.493 190.604H148.222L149.326 187.542H149.389ZM156.693 185.208H158.693V194.542H156.693V185.208ZM166.55 185.208H162.425V194.542H164.425V191.479H166.279L167.946 194.542H170.154L168.216 191.083C168.519 190.948 168.784 190.76 169.008 190.521C169.216 190.313 169.404 190.036 169.571 189.688C169.737 189.328 169.821 188.875 169.821 188.333C169.821 187.875 169.743 187.453 169.591 187.063C169.435 186.677 169.216 186.349 168.925 186.083C168.644 185.807 168.305 185.594 167.904 185.438C167.498 185.286 167.05 185.208 166.55 185.208ZM167.404 189.25C167.164 189.49 166.862 189.604 166.487 189.604H164.425V187.083H166.487C166.862 187.083 167.164 187.203 167.404 187.438C167.638 187.677 167.758 187.974 167.758 188.333C167.758 188.708 167.638 189.016 167.404 189.25ZM177.287 185.208H184.203V187.083H179.287V188.875H183.141V190.667H179.287V192.667H184.349V194.542H177.287V185.208ZM189.275 185.208H187.483V194.542H189.483V188.75L194.004 194.542H195.816V185.208H193.816V191L189.275 185.208ZM201.275 187.083H198.608V185.208H205.941V187.083H203.275V194.542H201.275V187.083ZM210.742 185.208H208.742V194.542H210.742V190.75H214.742V194.542H216.742V185.208H214.742V188.875H210.742V185.208ZM224.472 194.75C223.857 194.75 223.305 194.651 222.805 194.458C222.305 194.25 221.873 193.974 221.513 193.625C221.164 193.266 220.888 192.833 220.68 192.333C220.482 191.833 220.388 191.281 220.388 190.667V185.208H222.388V190.667C222.388 191.016 222.435 191.323 222.534 191.583C222.644 191.849 222.789 192.078 222.972 192.271C223.149 192.469 223.367 192.62 223.617 192.729C223.878 192.828 224.164 192.875 224.472 192.875C224.763 192.875 225.034 192.828 225.284 192.729C225.545 192.62 225.769 192.469 225.951 192.271C226.128 192.078 226.269 191.849 226.367 191.583C226.477 191.323 226.534 191.016 226.534 190.667V185.208H228.534V190.667C228.534 191.281 228.43 191.833 228.222 192.333C228.024 192.833 227.748 193.266 227.388 193.625C227.039 193.974 226.607 194.25 226.097 194.458C225.597 194.651 225.055 194.75 224.472 194.75ZM233.263 194.521C233.722 194.672 234.253 194.75 234.868 194.75C235.409 194.75 235.894 194.672 236.326 194.521C236.769 194.354 237.144 194.141 237.451 193.875C237.753 193.615 237.982 193.312 238.138 192.979C238.305 192.635 238.388 192.266 238.388 191.875C238.388 191.333 238.269 190.896 238.034 190.562C237.81 190.219 237.524 189.932 237.18 189.708C236.831 189.49 236.456 189.312 236.055 189.188C235.649 189.052 235.274 188.917 234.93 188.792C234.581 188.667 234.289 188.531 234.055 188.375C233.831 188.224 233.722 188.016 233.722 187.75C233.722 187.474 233.826 187.25 234.034 187.083C234.253 186.906 234.618 186.812 235.118 186.812C235.394 186.812 235.638 186.854 235.847 186.938C236.055 187.021 236.232 187.115 236.388 187.208C236.555 187.323 236.711 187.453 236.868 187.604L238.201 186.271C237.977 186.052 237.711 185.844 237.409 185.646C237.144 185.495 236.81 185.349 236.409 185.208C236.019 185.073 235.566 185 235.055 185C234.524 185 234.045 185.078 233.618 185.229C233.201 185.385 232.847 185.583 232.555 185.833C232.263 186.073 232.039 186.354 231.888 186.688C231.732 187.021 231.659 187.375 231.659 187.75C231.659 188.292 231.769 188.74 231.993 189.083C232.227 189.417 232.519 189.698 232.868 189.917C233.211 190.125 233.586 190.302 233.993 190.438C234.394 190.562 234.769 190.688 235.118 190.812C235.461 190.938 235.748 191.083 235.972 191.25C236.206 191.406 236.326 191.615 236.326 191.875C236.326 192.182 236.201 192.438 235.951 192.646C235.711 192.844 235.326 192.938 234.784 192.938C234.435 192.938 234.123 192.891 233.847 192.792C233.581 192.682 233.352 192.573 233.159 192.458C232.935 192.307 232.748 192.135 232.597 191.938L231.263 193.271C231.498 193.552 231.795 193.792 232.159 194C232.451 194.198 232.816 194.37 233.263 194.521ZM241.331 185.208H243.331V194.542H241.331V185.208ZM251.792 185.208H249.521L245.917 194.542H248.063L248.854 192.417H252.459L253.25 194.542H255.396L251.792 185.208ZM250.688 187.542L251.792 190.604H249.521L250.625 187.542H250.688ZM260.659 194.75C260.044 194.75 259.513 194.672 259.055 194.521C258.607 194.37 258.242 194.198 257.951 194C257.586 193.792 257.289 193.552 257.055 193.271L258.388 191.938C258.539 192.135 258.727 192.307 258.951 192.458C259.143 192.573 259.373 192.682 259.638 192.792C259.914 192.891 260.227 192.938 260.576 192.938C261.117 192.938 261.503 192.844 261.742 192.646C261.992 192.438 262.117 192.182 262.117 191.875C262.117 191.615 261.998 191.406 261.763 191.25C261.539 191.083 261.253 190.938 260.909 190.812C260.56 190.688 260.185 190.562 259.784 190.438C259.378 190.302 259.003 190.125 258.659 189.917C258.31 189.698 258.018 189.417 257.784 189.083C257.56 188.74 257.451 188.292 257.451 187.75C257.451 187.375 257.524 187.021 257.68 186.688C257.831 186.354 258.055 186.073 258.346 185.833C258.638 185.583 258.992 185.385 259.409 185.229C259.836 185.078 260.315 185 260.846 185C261.357 185 261.81 185.073 262.201 185.208C262.602 185.349 262.935 185.495 263.201 185.646C263.503 185.844 263.768 186.052 263.992 186.271L262.659 187.604C262.503 187.453 262.346 187.323 262.18 187.208C262.024 187.115 261.846 187.021 261.638 186.938C261.43 186.854 261.185 186.812 260.909 186.812C260.409 186.812 260.044 186.906 259.826 187.083C259.617 187.25 259.513 187.474 259.513 187.75C259.513 188.016 259.623 188.224 259.846 188.375C260.081 188.531 260.373 188.667 260.721 188.792C261.065 188.917 261.44 189.052 261.846 189.188C262.248 189.312 262.623 189.49 262.971 189.708C263.315 189.932 263.602 190.219 263.826 190.562C264.06 190.896 264.18 191.333 264.18 191.875C264.18 192.266 264.096 192.635 263.93 192.979C263.774 193.312 263.544 193.615 263.242 193.875C262.935 194.141 262.56 194.354 262.117 194.521C261.685 194.672 261.201 194.75 260.659 194.75ZM266.185 187.083H268.852V194.542H270.852V187.083H273.518V185.208H266.185V187.083Z" fill="white"/>
<path d="M199.368 156.25H200.493L205.138 167.458H203.847L202.576 164.333H197.284L196.013 167.458H194.722L199.368 156.25ZM202.097 163.208L199.93 157.938L197.763 163.208H202.097Z" fill="white"/>
<path d="M211.025 156.25H212.066L218.941 165.292V156.25H220.129V167.458H219.087L212.212 158.417V167.458H211.025V156.25Z" fill="white"/>
<path d="M227.393 156.25H230.913C231.731 156.25 232.497 156.406 233.205 156.708C233.913 157 234.528 157.406 235.059 157.917C235.585 158.432 235.997 159.031 236.288 159.708C236.59 160.391 236.747 161.104 236.747 161.854C236.747 162.62 236.59 163.344 236.288 164.021C235.997 164.688 235.585 165.281 235.059 165.792C234.528 166.307 233.913 166.719 233.205 167.021C232.497 167.313 231.731 167.458 230.913 167.458H227.393V156.25ZM230.913 166.333C231.564 166.333 232.174 166.219 232.747 165.979C233.314 165.745 233.809 165.427 234.226 165.021C234.643 164.62 234.96 164.146 235.184 163.604C235.419 163.063 235.538 162.479 235.538 161.854C235.538 161.245 235.419 160.667 235.184 160.125C234.96 159.573 234.643 159.094 234.226 158.688C233.809 158.286 233.314 157.969 232.747 157.729C232.174 157.495 231.564 157.375 230.913 157.375H228.58V166.333H230.913Z" fill="white"/>
<path d="M255.57 167.625C254.763 167.625 254.008 167.479 253.3 167.188C252.602 166.885 251.992 166.469 251.466 165.938C250.951 165.411 250.539 164.802 250.237 164.104C249.945 163.411 249.8 162.661 249.8 161.854C249.8 161.063 249.945 160.323 250.237 159.625C250.539 158.917 250.951 158.307 251.466 157.792C251.992 157.266 252.602 156.854 253.3 156.563C254.008 156.26 254.763 156.104 255.57 156.104C256.331 156.104 256.992 156.229 257.55 156.479C258.117 156.719 258.596 156.979 258.987 157.271C259.414 157.604 259.789 157.99 260.112 158.417L259.32 159.146C259.07 158.786 258.758 158.469 258.383 158.188C258.076 157.938 257.685 157.719 257.216 157.521C256.758 157.313 256.206 157.208 255.57 157.208C254.914 157.208 254.31 157.328 253.758 157.563C253.216 157.802 252.737 158.125 252.32 158.542C251.904 158.958 251.576 159.453 251.341 160.021C251.117 160.594 251.008 161.203 251.008 161.854C251.008 162.521 251.117 163.141 251.341 163.708C251.576 164.266 251.904 164.75 252.32 165.167C252.737 165.583 253.216 165.911 253.758 166.146C254.31 166.385 254.914 166.5 255.57 166.5C256.206 166.5 256.763 166.406 257.237 166.208C257.721 166.016 258.122 165.792 258.445 165.542C258.82 165.266 259.138 164.948 259.404 164.583L260.195 165.292C259.862 165.74 259.466 166.125 259.008 166.458C258.617 166.75 258.138 167.021 257.57 167.271C256.997 167.505 256.331 167.625 255.57 167.625Z" fill="white"/>
<path d="M271.458 167.625C270.651 167.625 269.896 167.479 269.188 167.188C268.49 166.885 267.88 166.469 267.354 165.938C266.839 165.411 266.427 164.802 266.125 164.104C265.833 163.411 265.688 162.661 265.688 161.854C265.688 161.063 265.833 160.323 266.125 159.625C266.427 158.917 266.839 158.307 267.354 157.792C267.88 157.266 268.49 156.854 269.188 156.563C269.896 156.26 270.651 156.104 271.458 156.104C272.25 156.104 272.99 156.26 273.688 156.563C274.396 156.854 275.005 157.266 275.521 157.792C276.047 158.307 276.458 158.917 276.75 159.625C277.052 160.323 277.208 161.063 277.208 161.854C277.208 162.661 277.052 163.411 276.75 164.104C276.458 164.802 276.047 165.411 275.521 165.938C275.005 166.469 274.396 166.885 273.688 167.188C272.99 167.479 272.25 167.625 271.458 167.625ZM271.458 166.5C272.094 166.5 272.693 166.385 273.25 166.146C273.802 165.911 274.281 165.583 274.688 165.167C275.104 164.75 275.422 164.266 275.646 163.708C275.88 163.141 276 162.521 276 161.854C276 161.203 275.88 160.594 275.646 160.021C275.422 159.453 275.104 158.958 274.688 158.542C274.281 158.125 273.802 157.802 273.25 157.563C272.693 157.328 272.094 157.208 271.458 157.208C270.802 157.208 270.198 157.328 269.646 157.563C269.104 157.802 268.625 158.125 268.208 158.542C267.792 158.958 267.464 159.453 267.229 160.021C267.005 160.594 266.896 161.203 266.896 161.854C266.896 162.521 267.005 163.141 267.229 163.708C267.464 164.266 267.792 164.75 268.208 165.167C268.625 165.583 269.104 165.911 269.646 166.146C270.198 166.385 270.802 166.5 271.458 166.5Z" fill="white"/>
</svg>
