<svg width="155" height="339" viewBox="0 0 155 339" fill="none" xmlns="http://www.w3.org/2000/svg">
<path d="M67.9056 2.87743C67.9056 2.87743 67.4056 3.17743 64.9056 5.57743C62.4056 7.97743 58.7056 14.5774 58.1056 15.0774C57.5056 15.5774 56.2056 17.8774 55.2056 19.7774C54.2056 21.7774 53.6056 23.5774 56.5056 24.9774C59.5056 26.3774 61.2056 26.6774 61.2056 26.6774C61.2056 26.6774 60.1056 30.3774 61.5056 32.1774C62.9056 33.9774 63.1056 35.7774 63.2056 35.9774C63.3056 36.1774 63.6056 36.6774 64.6056 35.8774C65.6056 35.0774 70.7056 31.8774 73.0056 31.9774C75.3056 31.9774 77.6056 32.9774 78.3056 31.6774C79.0056 30.3774 78.3056 28.6774 79.5056 26.1774C80.7056 23.6774 84.9056 24.1774 87.7056 18.0774C90.5056 11.9774 89.0056 5.97743 83.7056 3.47743C78.3056 1.17743 71.2056 -0.422568 67.9056 2.87743Z" fill="#D9D9D9" stroke="url(#paint0_linear_41_290)" stroke-miterlimit="10" stroke-linecap="round" stroke-linejoin="round"/>
<path d="M80.5056 25.0774C80.6056 25.0774 80.6056 24.9774 80.7056 24.9774C80.8056 24.8774 81.0056 24.7774 81.2056 24.6774C82.0056 24.1774 82.9056 23.7774 83.9056 23.0774C83.9056 23.0774 84.0056 23.0774 84.0056 22.9774C84.3056 22.7774 84.5056 22.5774 84.8056 22.2774C84.9056 22.1774 84.9056 22.1774 85.0056 22.0774C85.3056 21.8774 85.5056 21.5774 85.8056 21.2774L85.9056 21.1774C86.5056 20.4774 87.0056 19.6774 87.6056 18.5774C84.0056 13.2774 72.8056 9.87744 63.1056 7.87744C61.0056 10.7774 58.7056 14.5774 58.3056 15.0774C57.7056 15.6774 56.4056 17.8774 55.4056 19.7774C55.2056 20.1774 55.0056 20.5774 54.9056 20.9774L59.0056 25.9774C60.6056 26.5774 61.5056 26.7774 61.5056 26.7774C61.5056 26.7774 61.1056 27.7774 61.7056 29.8774C62.4056 32.0774 63.3056 35.7774 63.4056 36.0774C63.5056 36.2774 63.8056 36.7774 64.8056 35.9774C65.8056 35.1774 70.9056 31.9774 73.2056 32.0774C75.5056 32.0774 77.8056 33.0774 78.5056 31.7774C79.2056 30.4774 78.5056 28.7774 79.7056 26.2774C79.7056 25.7774 80.1056 25.4774 80.5056 25.0774Z" fill="url(#paint1_linear_41_290)" stroke="url(#paint2_linear_41_290)" stroke-miterlimit="10" stroke-linecap="round" stroke-linejoin="round"/>
<path d="M66.9056 24.3774C68.1056 23.4774 73.0056 16.8774 71.5056 11.8774C70.3056 7.9774 68.6056 4.2774 67.9056 2.7774C67.9056 2.7774 67.9056 2.7774 67.8056 2.7774C67.8056 2.7774 67.3056 3.0774 64.8056 5.4774C62.3056 7.8774 58.6056 14.4774 58.0056 14.9774C57.4056 15.5774 56.1056 17.7774 55.1056 19.6774C54.1056 21.6774 53.5056 23.4774 56.4056 24.8774C59.4056 26.2774 61.1056 26.5774 61.1056 26.5774C61.1056 26.5774 63.5056 26.8774 66.9056 24.3774Z" fill="white" stroke="url(#paint3_linear_41_290)" stroke-miterlimit="10" stroke-linecap="round" stroke-linejoin="round"/>
<path d="M68.7056 5.97742L66.0056 4.47742L64.9056 5.57742C64.9056 5.57742 62.9056 4.07742 61.4056 4.77742C60.0056 5.47742 58.8056 10.6774 58.8056 10.6774L56.5056 12.3774L58.4056 14.0774C58.4056 14.0774 59.2056 18.5774 61.6056 18.9774C64.0056 19.3774 67.8056 19.0774 69.2056 18.2774C70.5056 17.4774 71.1056 16.9774 71.7056 15.4774C72.3056 13.9774 71.6056 11.8774 70.8056 9.57742C70.0056 7.27742 68.7056 5.97742 68.7056 5.97742Z" fill="url(#paint4_linear_41_290)" stroke="url(#paint5_linear_41_290)" stroke-miterlimit="10" stroke-linecap="round" stroke-linejoin="round"/>
<path d="M63.3056 10.5774C63.3056 10.5774 62.8056 15.7774 64.5056 14.9774C65.1056 14.6774 67.8056 12.0774 65.7056 9.37741C64.7056 8.17741 63.6056 8.67741 63.3056 10.5774Z" fill="white"/>
<path d="M61.2056 5.67742C61.2056 5.67742 61.7056 4.87742 62.4056 5.97742C63.0056 7.07742 62.3056 8.77742 62.3056 8.77742L58.8056 10.5774C58.8056 10.5774 59.6056 5.67742 61.2056 5.67742Z" fill="white"/>
<path d="M57.8056 19.2774C57.8056 19.2774 58.7056 20.2774 60.6056 20.2774" stroke="url(#paint6_linear_41_290)" stroke-miterlimit="10" stroke-linecap="round" stroke-linejoin="round"/>
<path d="M72.6056 218.077C72.6056 218.077 70.6056 226.777 69.6056 228.777C68.6056 230.777 65.1056 236.977 59.8056 241.277C54.5056 245.577 25.9056 283.977 19.2056 295.477C12.5056 306.977 0.705612 325.577 1.00561 326.677C1.30561 327.777 1.50562 328.377 3.10562 328.677C4.70562 328.977 5.40562 326.677 6.60562 327.277C7.80562 327.877 9.50561 328.477 9.50561 330.777C9.50561 333.077 8.60562 334.177 8.90562 335.677C9.20562 337.177 11.3056 338.877 12.6056 337.777C13.8056 336.677 52.7056 279.277 58.5056 270.177C64.3056 260.977 68.3056 251.977 72.3056 246.177C76.3056 240.377 86.1056 234.577 86.2056 231.177C86.4056 227.777 83.4056 222.777 82.7056 220.877C81.9056 219.077 81.9056 216.877 81.9056 216.877L72.6056 218.077Z" fill="url(#paint7_linear_41_290)" stroke="url(#paint8_linear_41_290)" stroke-miterlimit="10" stroke-linecap="round" stroke-linejoin="round"/>
<path d="M82.7056 220.977C81.9056 219.177 81.9056 216.977 81.9056 216.977L72.6056 218.077C72.6056 218.077 70.6056 226.777 69.6056 228.777C69.4056 229.177 69.0056 229.877 68.6056 230.677C70.8056 232.177 74.8056 234.377 77.2056 233.177C79.8056 231.977 82.9056 227.077 84.4056 224.577C83.7056 223.077 83.0056 221.677 82.7056 220.977Z" fill="white" stroke="url(#paint9_linear_41_290)" stroke-miterlimit="10" stroke-linecap="round" stroke-linejoin="round"/>
<path d="M79.3056 176.677L95.0056 186.177C97.2056 187.477 99.2056 188.977 101.106 190.677L105.306 194.477L112.006 187.177C112.006 187.177 105.006 177.677 95.2056 169.477C85.4056 161.277 80.4056 159.677 80.4056 159.677L78.5056 156.377C78.5056 156.377 75.9056 163.277 76.2056 165.577C76.6056 167.977 79.3056 176.677 79.3056 176.677Z" fill="#D9D9D9" stroke="url(#paint10_linear_41_290)" stroke-miterlimit="10" stroke-linecap="round" stroke-linejoin="round"/>
<path d="M83.2056 160.977C81.4056 159.977 80.5056 159.677 80.5056 159.677L78.6056 156.377C78.6056 156.377 76.0056 163.277 76.3056 165.577C76.6056 167.977 79.3056 176.677 79.3056 176.677L95.0056 186.177C97.2056 187.477 99.2056 188.977 101.106 190.677L105.306 194.477L90.6056 180.577L83.2056 160.977Z" fill="url(#paint11_linear_41_290)" stroke="url(#paint12_linear_41_290)" stroke-miterlimit="10" stroke-linecap="round" stroke-linejoin="round"/>
<path d="M105.406 194.477C105.406 194.477 112.806 204.077 115.406 208.577C118.006 212.977 121.406 223.877 122.706 227.377C124.106 230.877 132.506 248.177 136.906 261.777C141.306 275.377 147.806 308.277 147.906 309.377C148.106 310.477 150.306 310.577 150.506 309.577C150.706 308.477 149.306 306.177 151.006 305.877C152.706 305.577 152.706 308.177 153.406 307.977C154.206 307.777 153.906 307.177 153.406 303.377C152.906 299.577 145.906 272.877 141.806 258.577C137.706 244.177 127.606 222.177 126.306 217.377C125.106 212.677 124.506 200.377 124.306 195.977C124.106 191.577 125.106 190.177 121.906 189.377C118.706 188.577 115.806 188.777 115.306 188.577C114.806 188.377 112.006 187.077 112.006 187.077L105.406 194.477Z" fill="url(#paint13_linear_41_290)" stroke="url(#paint14_linear_41_290)" stroke-miterlimit="10" stroke-linecap="round" stroke-linejoin="round"/>
<path d="M115.506 197.577C115.806 192.677 115.306 188.677 115.306 188.677C114.806 188.477 112.006 187.177 112.006 187.177L105.306 194.477C105.306 194.477 109.706 200.177 112.906 204.877C113.906 203.477 115.306 200.877 115.506 197.577Z" fill="white" stroke="url(#paint15_linear_41_290)" stroke-miterlimit="10" stroke-linecap="round" stroke-linejoin="round"/>
<path d="M65.3056 110.977C65.3056 110.977 63.0056 123.477 62.9056 135.577C62.8056 147.577 61.9056 159.877 61.7056 161.977C61.5056 163.977 61.6056 168.277 62.8056 171.477C64.0056 174.777 65.7056 177.777 66.7056 183.077C67.7056 188.377 72.7056 214.277 72.7056 218.077C72.7056 218.077 75.8056 219.477 78.0056 219.177C80.2056 218.777 81.5056 218.177 82.0056 216.977C82.5056 215.777 82.4056 189.877 81.8056 181.477C81.2056 173.077 78.3056 168.377 78.3056 164.577C78.3056 160.877 86.9056 132.877 89.6056 127.877C92.4056 122.777 95.1056 119.177 95.5056 115.577C95.9056 111.977 96.3056 109.277 93.0056 106.177C89.7056 103.077 88.2056 103.277 88.2056 103.277C88.2056 103.277 83.3056 101.277 78.1056 103.177C70.9056 105.777 65.3056 110.977 65.3056 110.977Z" fill="#D9D9D9" stroke="url(#paint16_linear_41_290)" stroke-miterlimit="10" stroke-linecap="round" stroke-linejoin="round"/>
<path d="M63.2056 36.0774C63.2056 36.0774 58.8056 47.6774 58.7056 55.2774C58.6056 62.8774 60.5056 64.4774 60.5056 71.0774C60.5056 77.6774 59.9056 80.4774 60.6056 86.5774C61.4056 92.6774 64.3056 104.077 64.3056 106.777C64.3056 109.477 65.2056 111.077 65.2056 111.077C65.2056 111.077 73.1056 103.577 80.6056 102.977C88.1056 102.377 93.7056 107.077 94.8056 109.277C96.0056 111.477 95.1056 116.877 95.1056 116.877C95.1056 116.877 97.0056 108.477 93.4056 100.977C89.8056 93.4774 86.3056 88.7774 86.3056 88.7774C86.3056 88.7774 86.7056 87.0774 86.6056 85.9774C86.5056 84.7774 86.0056 85.1774 86.1056 82.8774C86.2056 80.5774 86.4056 81.0774 86.2056 80.5774C86.3056 82.4774 86.1056 80.0774 86.2056 80.5774C86.1056 78.6774 88.4056 58.9774 88.4056 58.9774C88.4056 58.9774 91.0056 54.2774 89.3056 48.3774C87.6056 42.4774 84.4056 35.9774 82.3056 33.4774C80.2056 30.9774 78.6056 30.8774 78.6056 30.8774C78.6056 30.8774 75.7056 31.5774 72.9056 32.1774C70.1056 32.6774 63.2056 36.0774 63.2056 36.0774Z" fill="#D9D9D9"/>
<path d="M86.2056 80.5774C86.4056 81.0774 86.2056 80.5774 86.1056 82.8774C86.0056 85.1774 86.5056 84.7774 86.6056 85.9774C86.7056 87.0774 86.3056 88.7774 86.3056 88.7774C86.3056 88.7774 89.8056 93.4774 93.4056 100.977C97.0056 108.477 95.1056 116.877 95.1056 116.877C95.1056 116.877 96.0056 111.477 94.8056 109.277C93.7056 107.077 88.1056 102.377 80.6056 102.977C73.1056 103.577 65.2056 111.077 65.2056 111.077C65.2056 111.077 64.3056 109.477 64.3056 106.777C64.3056 104.077 61.4056 92.6774 60.6056 86.5774C59.9056 80.4774 60.5056 77.6774 60.5056 71.0774C60.5056 64.4774 58.6056 62.8774 58.7056 55.2774C58.8056 47.6774 63.2056 36.0774 63.2056 36.0774C63.2056 36.0774 70.1056 32.6774 72.9056 32.1774C75.7056 31.5774 78.6056 30.8774 78.6056 30.8774C78.6056 30.8774 80.2056 30.9774 82.3056 33.4774C84.4056 35.9774 87.6056 42.4774 89.3056 48.3774C91.0056 54.2774 88.4056 58.9774 88.4056 58.9774C88.4056 58.9774 86.1056 78.6774 86.2056 80.5774ZM86.2056 80.5774C86.1056 80.0774 86.3056 82.4774 86.2056 80.5774Z" stroke="url(#paint17_linear_41_290)" stroke-miterlimit="10" stroke-linecap="round" stroke-linejoin="round"/>
<path d="M89.7056 54.6774C87.4056 58.2774 83.8056 62.5774 79.3056 62.5774C71.7056 62.5774 66.8056 56.1774 66.8056 56.1774C66.8056 56.1774 64.2056 51.5774 65.8056 45.1774C67.8056 37.0774 71.7056 34.4774 71.7056 34.4774C74.3056 32.5774 78.0056 32.0774 82.7056 34.6774C82.4056 32.8774 79.8056 31.7774 79.8056 31.7774C79.8056 31.7774 75.6056 31.5774 72.8056 32.1774C70.0056 32.7774 63.1056 36.1774 63.1056 36.1774C63.1056 36.1774 58.7056 47.7774 58.6056 55.3774C58.5056 62.9774 60.4056 64.5774 60.4056 71.1774C60.4056 77.7774 59.8056 80.5774 60.5056 86.6774C60.8056 88.7774 61.3056 91.3774 61.8056 94.1774C62.4056 96.9774 63.0056 99.7774 63.5056 102.177V102.277C63.7056 103.077 63.8056 103.777 63.9056 104.477C63.9056 104.577 63.9056 104.577 63.9056 104.677C64.0056 104.977 64.0056 105.277 64.0056 105.577C64.0056 105.877 64.1056 106.077 64.1056 106.277C64.1056 106.377 64.1056 106.377 64.1056 106.477C64.1056 106.677 64.1056 106.877 64.1056 106.977C64.1056 109.677 65.0056 111.277 65.0056 111.277C65.0056 111.277 70.2056 106.377 76.2056 104.177C78.0056 97.5774 79.1056 91.5774 79.1056 91.5774C81.2056 89.6774 83.8056 88.4774 86.3056 87.6774C86.4056 87.1774 86.4056 86.6774 86.3056 86.2774C86.2056 85.0774 85.7056 85.4774 85.8056 83.1774C85.9056 82.1774 85.9056 81.7774 85.9056 81.4774C85.9056 81.6774 85.9056 81.6774 85.9056 81.3774C85.9056 81.1774 85.9056 81.1774 85.9056 80.8774C85.8056 78.9774 88.1056 59.2774 88.1056 59.2774C88.1056 59.2774 89.3056 57.2774 89.7056 54.6774Z" fill="url(#paint18_linear_41_290)" stroke="url(#paint19_linear_41_290)" stroke-miterlimit="10" stroke-linecap="round" stroke-linejoin="round"/>
<path d="M75.8056 107.977L74.4056 110.677C75.2056 108.477 75.9056 106.077 76.5056 103.777C70.2056 106.477 65.3056 110.977 65.3056 110.977C65.3056 110.977 63.0056 123.477 62.9056 135.577C62.9056 136.277 62.9056 136.877 62.9056 137.577C66.0056 130.477 69.6056 122.277 71.8056 117.177C74.9056 116.877 84.4056 115.877 85.0056 112.677C85.8056 108.777 75.8056 107.977 75.8056 107.977Z" fill="url(#paint20_linear_41_290)" stroke="url(#paint21_linear_41_290)" stroke-miterlimit="10" stroke-linecap="round" stroke-linejoin="round"/>
<path d="M81.9056 216.977C82.3056 215.977 82.3056 198.077 81.9056 187.177C79.9056 188.777 77.2056 190.477 75.0056 190.177C70.9056 189.677 62.7056 171.477 62.7056 171.477C63.9056 174.777 65.6056 177.777 66.6056 183.077C67.6056 188.377 72.6056 214.277 72.6056 218.077C72.6056 218.077 75.7056 219.477 77.9056 219.177C80.1056 218.777 81.4056 218.177 81.9056 216.977Z" fill="url(#paint22_linear_41_290)" stroke="url(#paint23_linear_41_290)" stroke-miterlimit="10" stroke-linecap="round" stroke-linejoin="round"/>
<path d="M67.7056 40.8774C67.7056 40.8774 64.8056 46.7774 66.0056 52.4774C67.2056 58.1774 68.5056 62.6774 68.5056 62.6774L69.3056 84.8774C69.3056 84.8774 61.2056 104.477 57.4056 113.677L64.0056 117.577C68.4056 111.377 77.6056 98.7774 79.3056 93.7774C81.5056 87.4774 82.0056 86.7774 82.0056 85.8774C82.0056 84.9774 84.6056 56.2774 84.6056 56.2774C84.6056 56.2774 85.5056 56.2774 86.3056 55.5774" fill="#D9D9D9"/>
<path d="M67.7056 40.8774C67.7056 40.8774 64.8056 46.7774 66.0056 52.4774C67.2056 58.1774 68.5056 62.6774 68.5056 62.6774L69.3056 84.8774C69.3056 84.8774 61.2056 104.477 57.4056 113.677L64.0056 117.577C68.4056 111.377 77.6056 98.7774 79.3056 93.7774C81.5056 87.4774 82.0056 86.7774 82.0056 85.8774C82.0056 84.9774 84.6056 56.2774 84.6056 56.2774C84.6056 56.2774 85.5056 56.2774 86.3056 55.5774" stroke="url(#paint24_linear_41_290)" stroke-miterlimit="10" stroke-linecap="round" stroke-linejoin="round"/>
<path d="M57.3056 113.677C57.3056 113.677 56.1056 115.177 53.3056 119.577C50.6056 123.977 49.3056 126.877 49.4056 127.977C49.5056 129.077 48.9056 132.177 49.1056 133.377C49.3056 134.577 50.8056 135.577 50.8056 135.577C50.8056 135.577 52.0056 136.377 52.8056 136.577C53.6056 136.677 54.8056 136.277 54.8056 136.277C54.8056 136.277 55.6056 136.877 56.6056 136.577C57.6056 136.277 58.0056 135.877 58.0056 135.877C58.0056 135.877 58.5056 136.477 59.3056 136.177C60.1056 135.877 60.6056 135.677 60.3056 135.077C60.0056 134.477 59.6056 134.277 59.4056 133.777C59.2056 133.277 59.3056 132.077 59.4056 131.577C59.5056 131.077 62.0056 127.877 62.4056 125.077C62.8056 122.377 63.0056 120.277 63.1056 120.077C63.2056 119.777 63.8056 117.677 63.8056 117.677L57.3056 113.677Z" fill="white" stroke="url(#paint25_linear_41_290)" stroke-miterlimit="10" stroke-linecap="round" stroke-linejoin="round"/>
<path d="M51.3056 135.577L51.0056 130.777" stroke="url(#paint26_linear_41_290)" stroke-miterlimit="10" stroke-linecap="round" stroke-linejoin="round"/>
<path d="M54.5056 135.977L54.0056 131.377" stroke="url(#paint27_linear_41_290)" stroke-miterlimit="10" stroke-linecap="round" stroke-linejoin="round"/>
<path d="M57.1056 131.577C57.1056 131.577 56.8056 133.377 56.9056 133.977C57.0056 134.577 58.1056 135.777 58.1056 135.777" stroke="url(#paint28_linear_41_290)" stroke-miterlimit="10" stroke-linecap="round" stroke-linejoin="round"/>
<path d="M81.2056 52.1774C81.2056 52.1774 70.9056 58.2774 70.9056 60.9774C70.9056 63.6774 75.9056 76.2774 78.6056 74.7774C81.2056 73.1774 83.1056 65.1774 81.2056 52.1774Z" fill="url(#paint29_linear_41_290)" stroke="url(#paint30_linear_41_290)" stroke-miterlimit="10" stroke-linecap="round" stroke-linejoin="round"/>
<defs>
<linearGradient id="paint0_linear_41_290" x1="71.7359" y1="1" x2="71.7359" y2="36.3161" gradientUnits="userSpaceOnUse">
<stop stop-color="#2892D7"/>
<stop offset="1" stop-color="#72A6C8"/>
</linearGradient>
<linearGradient id="paint1_linear_41_290" x1="71.2556" y1="7.87744" x2="71.2556" y2="36.4161" gradientUnits="userSpaceOnUse">
<stop stop-color="#2892D7"/>
<stop offset="1" stop-color="#72A6C8"/>
</linearGradient>
<linearGradient id="paint2_linear_41_290" x1="71.2556" y1="7.87744" x2="71.2556" y2="36.4161" gradientUnits="userSpaceOnUse">
<stop stop-color="#2892D7"/>
<stop offset="1" stop-color="#72A6C8"/>
</linearGradient>
<linearGradient id="paint3_linear_41_290" x1="63.0347" y1="2.7774" x2="63.0347" y2="26.5886" gradientUnits="userSpaceOnUse">
<stop stop-color="#2892D7"/>
<stop offset="1" stop-color="#72A6C8"/>
</linearGradient>
<linearGradient id="paint4_linear_41_290" x1="64.2184" y1="4.47742" x2="64.2184" y2="19.1538" gradientUnits="userSpaceOnUse">
<stop stop-color="#2892D7"/>
<stop offset="1" stop-color="#72A6C8"/>
</linearGradient>
<linearGradient id="paint5_linear_41_290" x1="64.2184" y1="4.47742" x2="64.2184" y2="19.1538" gradientUnits="userSpaceOnUse">
<stop stop-color="#2892D7"/>
<stop offset="1" stop-color="#72A6C8"/>
</linearGradient>
<linearGradient id="paint6_linear_41_290" x1="59.2056" y1="19.2774" x2="59.2056" y2="20.2774" gradientUnits="userSpaceOnUse">
<stop stop-color="#2892D7"/>
<stop offset="1" stop-color="#72A6C8"/>
</linearGradient>
<linearGradient id="paint7_linear_41_290" x1="43.6076" y1="216.877" x2="43.6076" y2="338.129" gradientUnits="userSpaceOnUse">
<stop stop-color="#2892D7"/>
<stop offset="1" stop-color="#72A6C8"/>
</linearGradient>
<linearGradient id="paint8_linear_41_290" x1="43.6076" y1="216.877" x2="43.6076" y2="338.129" gradientUnits="userSpaceOnUse">
<stop stop-color="#2892D7"/>
<stop offset="1" stop-color="#72A6C8"/>
</linearGradient>
<linearGradient id="paint9_linear_41_290" x1="76.5056" y1="216.977" x2="76.5056" y2="233.522" gradientUnits="userSpaceOnUse">
<stop stop-color="#2892D7"/>
<stop offset="1" stop-color="#72A6C8"/>
</linearGradient>
<linearGradient id="paint10_linear_41_290" x1="94.0936" y1="156.377" x2="94.0936" y2="194.477" gradientUnits="userSpaceOnUse">
<stop stop-color="#2892D7"/>
<stop offset="1" stop-color="#72A6C8"/>
</linearGradient>
<linearGradient id="paint11_linear_41_290" x1="90.7936" y1="156.377" x2="90.7936" y2="194.477" gradientUnits="userSpaceOnUse">
<stop stop-color="#2892D7"/>
<stop offset="1" stop-color="#72A6C8"/>
</linearGradient>
<linearGradient id="paint12_linear_41_290" x1="90.7936" y1="156.377" x2="90.7936" y2="194.477" gradientUnits="userSpaceOnUse">
<stop stop-color="#2892D7"/>
<stop offset="1" stop-color="#72A6C8"/>
</linearGradient>
<linearGradient id="paint13_linear_41_290" x1="129.653" y1="187.077" x2="129.653" y2="310.269" gradientUnits="userSpaceOnUse">
<stop stop-color="#2892D7"/>
<stop offset="1" stop-color="#72A6C8"/>
</linearGradient>
<linearGradient id="paint14_linear_41_290" x1="129.653" y1="187.077" x2="129.653" y2="310.269" gradientUnits="userSpaceOnUse">
<stop stop-color="#2892D7"/>
<stop offset="1" stop-color="#72A6C8"/>
</linearGradient>
<linearGradient id="paint15_linear_41_290" x1="110.454" y1="187.177" x2="110.454" y2="204.877" gradientUnits="userSpaceOnUse">
<stop stop-color="#2892D7"/>
<stop offset="1" stop-color="#72A6C8"/>
</linearGradient>
<linearGradient id="paint16_linear_41_290" x1="78.6965" y1="102.358" x2="78.6965" y2="219.22" gradientUnits="userSpaceOnUse">
<stop stop-color="#2892D7"/>
<stop offset="1" stop-color="#72A6C8"/>
</linearGradient>
<linearGradient id="paint17_linear_41_290" x1="77.1542" y1="30.8774" x2="77.1542" y2="116.877" gradientUnits="userSpaceOnUse">
<stop stop-color="#2892D7"/>
<stop offset="1" stop-color="#72A6C8"/>
</linearGradient>
<linearGradient id="paint18_linear_41_290" x1="74.1537" y1="31.7454" x2="74.1537" y2="111.277" gradientUnits="userSpaceOnUse">
<stop stop-color="#2892D7"/>
<stop offset="1" stop-color="#72A6C8"/>
</linearGradient>
<linearGradient id="paint19_linear_41_290" x1="74.1537" y1="31.7454" x2="74.1537" y2="111.277" gradientUnits="userSpaceOnUse">
<stop stop-color="#2892D7"/>
<stop offset="1" stop-color="#72A6C8"/>
</linearGradient>
<linearGradient id="paint20_linear_41_290" x1="73.9784" y1="103.777" x2="73.9784" y2="137.577" gradientUnits="userSpaceOnUse">
<stop stop-color="#2892D7"/>
<stop offset="1" stop-color="#72A6C8"/>
</linearGradient>
<linearGradient id="paint21_linear_41_290" x1="73.9784" y1="103.777" x2="73.9784" y2="137.577" gradientUnits="userSpaceOnUse">
<stop stop-color="#2892D7"/>
<stop offset="1" stop-color="#72A6C8"/>
</linearGradient>
<linearGradient id="paint22_linear_41_290" x1="72.4556" y1="171.477" x2="72.4556" y2="219.22" gradientUnits="userSpaceOnUse">
<stop stop-color="#2892D7"/>
<stop offset="1" stop-color="#72A6C8"/>
</linearGradient>
<linearGradient id="paint23_linear_41_290" x1="72.4556" y1="171.477" x2="72.4556" y2="219.22" gradientUnits="userSpaceOnUse">
<stop stop-color="#2892D7"/>
<stop offset="1" stop-color="#72A6C8"/>
</linearGradient>
<linearGradient id="paint24_linear_41_290" x1="71.8556" y1="40.8774" x2="71.8556" y2="117.577" gradientUnits="userSpaceOnUse">
<stop stop-color="#2892D7"/>
<stop offset="1" stop-color="#72A6C8"/>
</linearGradient>
<linearGradient id="paint25_linear_41_290" x1="56.4351" y1="113.677" x2="56.4351" y2="136.661" gradientUnits="userSpaceOnUse">
<stop stop-color="#2892D7"/>
<stop offset="1" stop-color="#72A6C8"/>
</linearGradient>
<linearGradient id="paint26_linear_41_290" x1="51.1556" y1="130.777" x2="51.1556" y2="135.577" gradientUnits="userSpaceOnUse">
<stop stop-color="#2892D7"/>
<stop offset="1" stop-color="#72A6C8"/>
</linearGradient>
<linearGradient id="paint27_linear_41_290" x1="54.2556" y1="131.377" x2="54.2556" y2="135.977" gradientUnits="userSpaceOnUse">
<stop stop-color="#2892D7"/>
<stop offset="1" stop-color="#72A6C8"/>
</linearGradient>
<linearGradient id="paint28_linear_41_290" x1="57.4954" y1="131.577" x2="57.4954" y2="135.777" gradientUnits="userSpaceOnUse">
<stop stop-color="#2892D7"/>
<stop offset="1" stop-color="#72A6C8"/>
</linearGradient>
<linearGradient id="paint29_linear_41_290" x1="76.4408" y1="52.1774" x2="76.4408" y2="74.901" gradientUnits="userSpaceOnUse">
<stop stop-color="#2892D7"/>
<stop offset="1" stop-color="#72A6C8"/>
</linearGradient>
<linearGradient id="paint30_linear_41_290" x1="76.4408" y1="52.1774" x2="76.4408" y2="74.901" gradientUnits="userSpaceOnUse">
<stop stop-color="#2892D7"/>
<stop offset="1" stop-color="#72A6C8"/>
</linearGradient>
</defs>
</svg>
