<svg width="300" height="300" viewBox="0 0 300 300" fill="none" xmlns="http://www.w3.org/2000/svg">
<g clip-path="url(#clip0_23_900)">
<path d="M65.2928 100.208C65.398 100.346 65.5274 100.58 65.6811 100.911C65.8388 101.239 65.8995 101.744 65.8631 102.419C65.8267 103.094 65.6649 103.995 65.3696 105.118C65.0744 106.245 64.5121 107.656 63.6789 109.353C62.8821 111.05 62.1622 112.824 61.5231 114.674C60.88 116.525 60.3259 118.509 59.8607 120.623C59.3915 122.736 59.0356 124.987 58.7929 127.375C58.5503 129.763 58.4127 132.345 58.3763 135.113C57.9597 135.218 57.5431 135.319 57.1305 135.424C56.7503 135.493 56.3176 135.553 55.8322 135.606C55.3468 135.658 54.8614 135.65 54.3761 135.582C53.7532 135.719 53.1101 135.679 52.4508 135.452C51.7915 135.226 51.1847 134.717 50.6307 133.921C49.9713 132.155 49.3808 130.357 48.8631 128.518C48.3413 126.684 47.8762 124.857 47.4596 123.039C47.043 121.221 46.6789 119.447 46.3675 117.717C46.0561 115.988 45.7608 114.359 45.4817 112.836C44.9963 114.291 44.4665 115.943 43.8962 117.794C43.3259 119.645 42.7677 121.56 42.2338 123.532C41.6958 125.504 41.2266 127.48 40.8303 129.452C40.4298 131.424 40.1791 133.242 40.078 134.903C39.5238 135.077 38.9697 135.198 38.4156 135.266C37.9302 135.335 37.4286 135.327 36.9069 135.242C36.3851 135.157 35.9361 134.923 35.5559 134.543L35.3982 134.749C35.3294 134.818 35.2405 134.786 35.1393 134.644C35.0382 134.503 34.9492 134.349 34.8805 134.175C34.743 133.969 34.6378 133.707 34.569 133.396V134.329C34.569 134.571 34.569 134.777 34.569 134.951C34.569 135.125 34.5529 135.21 34.5164 135.21C34.2737 135.21 34.0998 135.052 33.9946 134.741C33.8895 134.256 33.7156 133.286 33.4769 131.832C33.2342 130.377 32.9309 128.672 32.5669 126.716C32.2029 124.76 31.7943 122.639 31.3454 120.356C30.8923 118.069 30.411 115.838 29.8893 113.656C29.3675 111.474 28.8134 109.45 28.2269 107.579C27.6363 105.708 27.0499 104.185 26.4593 103.009C25.9376 102.835 25.525 102.584 25.2095 102.257C24.8981 101.93 24.9345 101.627 25.3147 101.348C27.1874 100.346 28.9347 99.8932 30.5647 99.9983C31.2564 100.035 31.9521 100.196 32.6437 100.491C33.3354 100.786 33.9866 101.255 34.5933 101.893C35.2 102.536 35.746 103.401 36.2314 104.492C36.7168 105.583 37.0808 106.961 37.3235 108.621C37.5985 110.387 37.825 112.1 37.9989 113.761C38.1729 115.422 38.3104 117.034 38.4156 118.59C39.3176 116.166 40.2518 113.83 41.2226 111.579C42.1933 109.328 43.1641 107.409 44.1348 105.813C44.0984 105.676 44.066 105.546 44.0296 105.425C43.9933 105.304 43.9609 105.191 43.9245 105.086C43.7182 105.017 43.5847 104.88 43.5362 104.669C43.4836 104.463 43.5968 104.273 43.8759 104.1C45.2633 103.615 46.4848 103.425 47.5405 103.53C48.5961 103.635 49.2837 104.205 49.5952 105.243C50.0806 106.767 50.5376 108.827 50.9744 111.422C51.4072 114.02 51.9694 116.84 52.6652 119.887C53.9473 115.802 55.3751 111.915 56.9526 108.225C58.53 104.536 60.1843 101.17 61.9155 98.1233C61.9842 98.1233 62.053 98.2122 62.1217 98.3819C62.1541 98.487 62.1743 98.5718 62.1743 98.6405L62.8498 98.2243C62.9185 98.3981 62.9873 98.5516 63.0561 98.6931C63.1612 98.9355 63.2825 99.1254 63.4201 99.2628C63.5253 99.3315 63.6709 99.4123 63.861 99.4972C64.0511 99.5861 64.2492 99.671 64.4596 99.7558C64.6659 99.8447 64.8479 99.9296 65.0056 100.014C65.1634 100.115 65.2605 100.176 65.2928 100.208Z" fill="white"/>
<path d="M62.4331 117.867C62.4331 114.509 62.7365 111.721 63.3432 109.506C63.9499 107.292 64.6173 105.514 65.3454 104.185C66.0734 102.851 66.7569 101.91 67.4 101.352C68.0391 100.798 68.395 100.503 68.4678 100.471C69.0908 100.124 69.7824 100.039 70.5469 100.212C71.3073 100.386 72.0191 100.697 72.6784 101.146C73.3377 101.594 73.8838 102.108 74.3165 102.677C74.7493 103.247 74.9677 103.776 74.9677 104.261C74.9677 104.609 74.7332 105.049 74.264 105.587C73.7948 106.124 73.277 106.896 72.7027 107.898C72.1324 108.904 71.6106 110.201 71.1414 111.793C70.6722 113.385 70.4417 115.378 70.4417 117.766C70.4417 120.295 70.7006 122.405 71.2223 124.102C71.7441 125.799 72.3387 127.165 73.0182 128.203C73.6937 129.242 74.361 129.985 75.0203 130.438C75.6796 130.89 76.1285 131.133 76.3713 131.165C76.7876 131.201 77.3499 130.939 78.0621 130.385C78.7739 129.832 79.4734 128.951 80.1693 127.738C80.8611 126.526 81.4596 124.995 81.9652 123.144C82.4667 121.293 82.7172 119.083 82.7172 116.521C82.7172 114.929 82.604 113.527 82.378 112.315C82.1514 111.102 81.8683 110.056 81.5203 109.171C81.1723 108.286 80.7677 107.555 80.2989 106.965C79.8295 106.375 79.3723 105.89 78.9193 105.51C77.7749 104.645 76.5086 104.193 75.1255 104.16L74.7615 104.055L75.1781 103.849C75.3844 103.744 75.4734 103.623 75.4369 103.485C75.4006 103.449 75.6109 103.449 76.0596 103.485C76.5086 103.522 77.0387 103.615 77.6453 103.772C78.2519 103.93 78.8586 104.152 79.4657 104.447C80.0723 104.742 80.5132 105.13 80.7922 105.615C80.5494 104.993 80.1167 104.508 79.4938 104.16C78.8708 103.813 78.2198 103.546 77.5443 103.356C76.8688 103.166 76.2703 103.037 75.7484 102.968C75.2307 102.9 74.9677 102.847 74.9677 102.811C74.9677 102.637 75.0284 102.423 75.1497 102.16C75.2711 101.901 75.5381 101.683 75.9547 101.51C76.6825 101.162 77.5402 100.972 78.5269 100.94C79.5142 100.903 80.5295 101.053 81.5688 101.38C82.6081 101.712 83.6315 102.245 84.6346 102.993C85.6376 103.736 86.5397 104.714 87.3366 105.926C88.1336 107.138 88.7723 108.617 89.2616 110.367C89.7473 112.117 89.9897 114.169 89.9897 116.521C89.9897 119.81 89.5734 122.667 88.7443 125.092C87.9111 127.516 86.8999 129.533 85.7024 131.141C84.505 132.749 83.231 133.953 81.88 134.749C80.5295 135.545 79.332 135.945 78.2927 135.945C75.4855 135.945 73.0869 135.367 71.0929 134.204C69.0988 133.044 67.4607 131.581 66.1786 129.815C64.8964 128.05 63.9499 126.102 63.3432 123.972C62.7405 121.843 62.4331 119.806 62.4331 117.867Z" fill="white"/>
<path d="M123.621 108.831C123.654 111.741 123.759 114.485 123.933 117.063C124.107 119.641 124.297 121.936 124.503 123.944C124.746 126.3 125.005 128.482 125.284 130.486L124.762 132.357L124.244 132.462L124.038 133.759L123.621 135.319L122.946 135.424L122.841 136.62C122.736 136.584 122.635 136.568 122.529 136.568C122.323 136.568 122.149 136.6 122.012 136.673C121.943 136.705 121.898 136.802 121.882 136.96C121.866 137.113 121.821 137.21 121.753 137.246C121.061 135.965 120.418 134.466 119.827 132.753C119.237 131.04 118.699 129.197 118.214 127.221C117.728 125.249 117.295 123.213 116.915 121.12C116.535 119.026 116.203 116.974 115.928 114.965C115.479 116.351 114.982 117.83 114.448 119.406C113.91 120.982 113.372 122.55 112.838 124.106C112.3 125.665 111.77 127.169 111.252 128.623C110.731 130.078 110.266 131.359 109.849 132.466C109.744 132.745 109.416 133.02 108.862 133.299C108.308 133.577 107.701 133.715 107.042 133.715C106.383 133.715 105.76 133.501 105.169 133.064C104.579 132.632 104.235 131.828 104.13 130.648C103.818 129.92 103.463 129.072 103.062 128.102C102.662 127.132 102.229 126.078 101.764 124.934C101.295 123.791 100.801 122.59 100.284 121.326C99.7657 120.061 99.228 118.772 98.6734 117.455C98.4672 119.426 98.2489 121.245 98.0223 122.91C97.7958 124.574 97.5979 126.009 97.4239 127.221C97.2172 128.64 97.0234 129.957 96.8535 131.169L96.178 131.064L94.204 134.543L92.8535 134.959L92.4366 135.792C92.2626 135.687 92.1091 135.586 91.9672 135.481C91.83 135.412 91.68 135.351 91.5264 135.299C91.3729 135.246 91.2392 135.254 91.1382 135.323C90.932 135.428 90.7499 135.679 90.5922 136.075C90.4346 136.471 90.2729 136.673 90.0989 136.673C90.204 135.602 90.3132 134.171 90.4387 132.389C90.5601 130.607 90.681 128.623 90.8025 126.441C90.9239 124.259 91.029 121.976 91.1142 119.584C91.1989 117.196 91.2596 114.877 91.2958 112.626C91.3326 110.375 91.3326 108.282 91.2958 106.342C91.2596 104.403 91.1907 102.795 91.0897 101.514C91.0897 101.481 91.0535 101.429 90.9846 101.356C91.0167 101.356 91.0535 101.34 91.0897 101.303C91.0535 100.992 91.029 100.705 91.0126 100.447C90.9968 100.188 90.9519 99.9538 90.8836 99.7437C91.2999 99.6063 91.7331 99.5012 92.182 99.4325C92.5621 99.3639 93.003 99.3275 93.5086 99.3275C94.0101 99.3275 94.5397 99.3962 95.0938 99.5336C95.7856 99.3962 96.4892 99.3275 97.2014 99.3275C97.9132 99.3275 98.5683 99.4164 99.1749 99.5861C99.782 99.7599 100.312 100.027 100.761 100.39C101.21 100.754 101.521 101.231 101.695 101.817C102.735 105.417 103.697 108.803 104.579 111.971C105.461 115.139 106.181 117.782 106.735 119.891C107.463 117.952 108.215 116.048 108.996 114.177C109.776 112.307 110.528 110.561 111.257 108.932C111.985 107.304 112.652 105.861 113.259 104.597C113.866 103.332 114.343 102.354 114.687 101.663C114.65 101.421 114.634 101.215 114.634 101.041C114.634 100.867 114.634 100.693 114.634 100.52C115.156 100.208 115.832 99.9417 116.661 99.7154C117.494 99.4891 118.343 99.3598 119.209 99.3275C120.074 99.2952 120.863 99.3962 121.575 99.6386C122.287 99.8811 122.796 100.297 123.108 100.887C123.282 101.235 123.403 101.631 123.472 102.083C123.541 102.536 123.585 103.069 123.601 103.692C123.617 104.314 123.625 105.041 123.625 105.874C123.621 106.702 123.621 107.688 123.621 108.831Z" fill="white"/>
<path d="M131.99 126.696C133.758 126.142 135.639 125.605 137.629 125.088C139.619 124.57 141.625 124.134 143.635 123.791C145.645 123.443 147.587 123.229 149.456 123.14C151.324 123.051 153.007 123.148 154.499 123.427C154.499 123.532 154.447 123.653 154.341 123.791C154.236 123.928 154.115 124.069 153.978 124.207C153.84 124.344 153.682 124.518 153.512 124.728L153.254 125.35L151.276 126.284L152.732 126.441C152.457 126.546 152.178 126.668 151.903 126.805C151.66 126.91 151.409 127.039 151.15 127.193C150.891 127.35 150.657 127.512 150.447 127.686C149.998 128.033 149.666 128.361 149.46 128.672C149.253 128.983 148.974 129.209 148.626 129.347C148.489 129.347 147.761 129.504 146.442 129.815C145.124 130.127 143.437 130.595 141.374 131.218C139.311 131.84 136.99 132.62 134.409 133.553C131.829 134.487 129.236 135.598 126.635 136.879C126.218 137.085 125.769 136.879 125.284 136.256C124.799 135.634 124.399 134.878 124.087 133.998C123.776 133.113 123.63 132.232 123.646 131.347C123.662 130.462 124.002 129.848 124.661 129.504C124.904 129.367 125.268 129.209 125.753 129.035C125.753 127.548 125.761 125.904 125.778 124.102C125.794 122.304 125.802 120.465 125.802 118.598C125.802 116.727 125.794 114.876 125.778 113.042C125.761 111.207 125.725 109.502 125.673 107.926C125.62 106.35 125.543 104.977 125.438 103.797C125.333 102.621 125.211 101.756 125.074 101.198C125.454 101.093 125.87 100.972 126.319 100.835C126.7 100.766 127.141 100.689 127.647 100.6C128.148 100.515 128.661 100.507 129.179 100.576C130.566 100.402 132.265 100.281 134.276 100.212C136.286 100.144 138.312 100.099 140.359 100.083C142.402 100.067 144.311 100.075 146.078 100.107C147.846 100.144 149.144 100.16 149.977 100.16C149.941 100.265 149.925 100.386 149.925 100.524C149.925 100.661 149.925 100.819 149.925 100.992V101.51C149.718 101.578 149.524 101.683 149.354 101.821C149.181 101.926 149.007 102.047 148.833 102.184C148.659 102.322 148.485 102.479 148.311 102.653C148.242 102.722 148.145 102.799 148.024 102.887C147.902 102.976 147.773 103.069 147.635 103.174C147.498 103.312 147.324 103.433 147.114 103.538L148.153 103.591L146.438 104.475L146.386 105.098C146.005 105.272 145.641 105.425 145.293 105.567C145.014 105.704 144.748 105.817 144.488 105.902C144.23 105.991 144.064 106.051 143.995 106.084C143.926 106.084 143.571 106.136 142.931 106.241C142.288 106.346 141.491 106.476 140.541 106.629C139.586 106.787 138.523 106.961 137.341 107.15C136.164 107.34 135.004 107.522 133.859 107.696C133.859 107.902 133.851 108.112 133.835 108.318C133.818 108.524 133.81 108.735 133.81 108.941C133.774 109.632 133.742 110.29 133.705 110.912C133.669 111.535 133.616 112.161 133.548 112.783C134.692 112.646 135.877 112.525 137.107 112.42C138.336 112.315 139.542 112.222 140.719 112.133C141.896 112.048 142.996 111.995 144.019 111.975C145.043 111.959 145.9 111.951 146.592 111.951C146.592 112.125 146.523 112.351 146.386 112.626C146.317 112.763 146.248 112.905 146.179 113.042L145.973 114.291L144.363 115.172L145.039 115.224L143.324 116.315L143.376 116.836L141.504 117.305L141.139 117.927C140.792 118.101 140.444 118.255 140.1 118.396C139.821 118.533 139.538 118.663 139.242 118.784C138.948 118.905 138.713 119.002 138.543 119.071C138.474 119.071 138.256 119.115 137.891 119.2C137.528 119.289 137.066 119.406 136.512 119.564C135.958 119.721 135.36 119.883 134.721 120.057C134.078 120.231 133.43 120.388 132.771 120.526C132.633 121.912 132.492 123.124 132.354 124.162C132.217 125.193 132.096 126.041 131.99 126.696Z" fill="white"/>
<path d="M177.117 105.558C176.875 109.955 176.717 113.697 176.648 116.776C176.58 119.859 176.571 122.437 176.624 124.514C176.676 126.591 176.754 128.244 176.859 129.472C176.964 130.7 177.057 131.67 177.146 132.381C177.231 133.092 177.291 133.61 177.328 133.941C177.36 134.268 177.344 134.555 177.275 134.798C177.138 135.145 176.887 135.493 176.523 135.836C176.159 136.184 175.726 136.475 175.224 136.721C174.723 136.964 174.185 137.109 173.611 137.162C173.04 137.214 172.486 137.137 171.948 136.927C171.41 136.721 170.917 136.329 170.468 135.759C170.015 135.19 169.671 134.402 169.428 133.396C168.526 132.01 167.624 130.506 166.722 128.878C165.82 127.249 164.931 125.581 164.045 123.867C163.163 122.154 162.293 120.425 161.444 118.675C160.595 116.925 159.754 115.24 158.924 113.612C158.75 115.862 158.576 118.024 158.402 120.105C158.229 122.182 158.055 124.037 157.881 125.661C157.707 127.565 157.533 129.331 157.359 130.959L157.047 130.801L155.749 133.553L154.968 133.969L154.346 135.788L153.723 135.218L152.995 137.141H152.631C152.525 137.141 152.424 137.158 152.319 137.194C152.214 137.23 152.129 137.263 152.06 137.299C151.886 137.404 151.68 137.61 151.438 137.921C151.401 137.642 151.377 136.951 151.361 135.844C151.344 134.737 151.336 133.351 151.336 131.69C151.336 130.03 151.336 128.167 151.336 126.106C151.336 124.045 151.328 121.936 151.312 119.77C151.296 117.608 151.275 115.458 151.26 113.329C151.243 111.199 151.199 109.228 151.13 107.409C151.061 105.591 150.972 104.027 150.871 102.71C150.766 101.392 150.645 100.443 150.507 99.8528C150.681 99.7841 150.871 99.7154 151.077 99.6467C151.494 99.5093 152.012 99.4204 152.635 99.3881C153.363 99.077 154.135 98.8588 154.948 98.7375C155.761 98.6163 156.542 98.6406 157.286 98.8143C158.031 98.9881 158.714 99.3073 159.341 99.776C159.964 100.245 160.433 100.912 160.744 101.776C161.367 103.611 162.063 105.49 162.823 107.413C163.584 109.337 164.357 111.224 165.137 113.074C165.918 114.925 166.67 116.691 167.398 118.372C168.126 120.053 168.785 121.532 169.376 122.813C169.55 120.356 169.756 117.794 169.999 115.127C170.241 112.46 170.509 109.927 170.804 107.518C171.099 105.114 171.386 102.972 171.661 101.105C171.936 99.2346 172.199 97.8688 172.442 97C172.511 97.0687 172.571 97.295 172.624 97.6748C172.676 98.0546 172.737 98.2809 172.806 98.3496C172.874 98.4183 172.943 98.3133 173.012 98.0385C173.081 97.7637 173.149 97.6587 173.218 97.7273C173.25 97.7637 173.303 97.8849 173.376 98.091C173.445 98.2971 173.506 98.5234 173.558 98.7658C173.611 99.0083 173.671 99.2427 173.74 99.4649C173.809 99.6912 173.862 99.8366 173.898 99.9053C174.003 100.01 174.193 100.063 174.468 100.063C174.606 100.063 174.727 100.047 174.832 100.01C175.107 100.532 175.37 101.065 175.613 101.619C175.819 102.104 176.045 102.641 176.288 103.231C176.531 103.821 176.758 104.427 176.964 105.049C177.029 105.247 177.081 105.421 177.117 105.558Z" fill="white"/>
<path d="M214.753 98.9113C214.927 99.085 215.125 99.3962 215.352 99.8447C215.578 100.297 215.769 100.815 215.922 101.404C216.08 101.994 216.165 102.617 216.181 103.275C216.197 103.934 216.084 104.54 215.842 105.094C215.599 105.647 215.182 106.1 214.596 106.443C214.005 106.791 213.209 106.965 212.206 106.965C212.137 106.965 211.728 106.989 210.984 107.041C210.24 107.094 209.313 107.155 208.201 107.223C207.093 107.292 205.851 107.369 204.484 107.458C203.117 107.542 201.79 107.623 200.508 107.692L200.35 112.056C201.426 111.951 202.514 111.858 203.626 111.769C204.735 111.684 205.802 111.612 206.826 111.563C207.849 111.511 208.799 111.47 209.686 111.434C210.571 111.401 211.323 111.381 211.946 111.381C211.946 111.555 211.877 111.781 211.74 112.056C211.671 112.193 211.602 112.335 211.534 112.472L211.376 113.721L209.766 114.606L210.389 114.658L208.727 115.749L208.78 116.271L206.907 116.739L206.543 117.362C206.231 117.535 205.903 117.693 205.556 117.83C205.276 117.968 204.986 118.109 204.67 118.247C204.359 118.384 204.116 118.489 203.942 118.558C203.837 118.558 203.404 118.655 202.644 118.845C201.883 119.035 200.997 119.269 199.994 119.544C199.889 121.067 199.796 122.461 199.707 123.726C199.618 124.991 199.541 126.106 199.472 127.076C199.367 128.219 199.298 129.242 199.266 130.139L198.902 129.722L198.696 131.02L198.073 131.177L197.397 133.149L195.889 134.082L195.003 135.327L194.534 135.068L194.117 136.418C194.012 136.523 193.927 136.624 193.859 136.729C193.652 136.935 193.531 137.04 193.494 137.04C193.462 136.762 193.418 136.107 193.365 135.068C193.312 134.03 193.26 132.733 193.207 131.173C193.155 129.613 193.102 127.86 193.049 125.9C192.997 123.944 192.944 121.936 192.892 119.875C192.839 117.814 192.77 115.753 192.686 113.697C192.596 111.636 192.503 109.708 192.398 107.906L191.775 107.749L192.139 107.126L191.152 106.815L189.749 106.504L190.218 105.983L189.438 105.308L190.271 104.581L188.244 104.528C188.175 104.423 188.107 104.302 188.038 104.164C187.9 103.89 187.832 103.696 187.832 103.595C188.038 103.562 188.515 103.481 189.26 103.36C190.004 103.239 190.93 103.094 192.042 102.92C191.973 102.297 191.905 101.744 191.836 101.259C191.767 100.774 191.698 100.342 191.63 99.9619C191.593 99.8568 191.638 99.7114 191.759 99.5214C191.881 99.3315 192.078 99.2022 192.358 99.1335C192.774 98.9961 193.32 98.8749 193.996 98.7699C194.671 98.6648 195.355 98.6729 196.05 98.7941C196.742 98.9153 197.43 99.1941 198.106 99.6265C198.781 100.059 199.327 100.762 199.743 101.732C201.337 101.489 202.943 101.231 204.552 100.952C206.167 100.677 207.655 100.406 209.022 100.148C210.389 99.8892 211.587 99.6548 212.61 99.4447C213.617 99.2224 214.337 99.0487 214.753 98.9113Z" fill="white"/>
<path d="M213.556 117.867C213.556 114.509 213.86 111.721 214.466 109.506C215.073 107.292 215.74 105.514 216.468 104.185C217.196 102.851 217.88 101.91 218.523 101.352C219.162 100.798 219.518 100.503 219.587 100.471C220.21 100.124 220.906 100.039 221.666 100.212C222.427 100.386 223.138 100.697 223.797 101.146C224.457 101.594 224.999 102.108 225.436 102.677C225.868 103.247 226.087 103.776 226.087 104.261C226.087 104.609 225.852 105.049 225.387 105.587C224.918 106.124 224.4 106.896 223.826 107.898C223.256 108.904 222.734 110.201 222.269 111.793C221.8 113.385 221.565 115.378 221.565 117.766C221.565 120.295 221.823 122.405 222.345 124.102C222.867 125.799 223.462 127.165 224.137 128.203C224.813 129.242 225.48 129.985 226.139 130.438C226.799 130.89 227.247 131.133 227.49 131.165C227.907 131.201 228.469 130.939 229.181 130.385C229.893 129.832 230.593 128.951 231.288 127.738C231.98 126.526 232.579 124.995 233.08 123.144C233.582 121.293 233.837 119.083 233.837 116.521C233.837 114.929 233.723 113.527 233.497 112.315C233.27 111.102 232.987 110.056 232.639 109.171C232.291 108.286 231.887 107.555 231.418 106.965C230.949 106.375 230.491 105.89 230.039 105.51C228.894 104.645 227.628 104.193 226.24 104.16L225.877 104.055L226.293 103.849C226.5 103.744 226.588 103.623 226.552 103.485C226.516 103.449 226.726 103.449 227.175 103.485C227.624 103.522 228.154 103.615 228.76 103.772C229.367 103.93 229.974 104.152 230.581 104.447C231.187 104.742 231.628 105.13 231.907 105.615C231.665 104.993 231.232 104.508 230.609 104.16C229.986 103.813 229.335 103.546 228.659 103.356C227.984 103.166 227.385 103.037 226.867 102.968C226.346 102.9 226.087 102.847 226.087 102.811C226.087 102.637 226.147 102.423 226.269 102.16C226.39 101.901 226.657 101.683 227.074 101.51C227.802 101.162 228.659 100.972 229.646 100.94C230.633 100.903 231.648 101.053 232.688 101.38C233.728 101.712 234.751 102.245 235.754 102.993C236.757 103.736 237.659 104.714 238.46 105.926C239.257 107.138 239.895 108.617 240.381 110.367C240.866 112.117 241.109 114.169 241.109 116.521C241.109 119.81 240.692 122.667 239.859 125.092C239.026 127.516 238.015 129.533 236.817 131.141C235.625 132.749 234.35 133.953 232.995 134.749C231.644 135.545 230.447 135.945 229.408 135.945C226.601 135.945 224.198 135.367 222.208 134.204C220.214 133.044 218.576 131.581 217.293 129.815C216.011 128.05 215.069 126.102 214.458 123.972C213.86 121.843 213.556 119.806 213.556 117.867Z" fill="white"/>
<path d="M269.912 113.818C269.912 115.135 269.722 116.303 269.342 117.325C268.962 118.348 268.456 119.249 267.833 120.025C267.21 120.8 266.474 121.487 265.625 122.077C264.776 122.667 263.882 123.168 262.947 123.584C263.95 125.383 264.654 127.298 265.055 129.322C265.451 131.347 265.463 133.157 265.083 134.749C265.152 133.537 265.099 132.43 264.925 131.424C264.751 130.421 264.545 129.553 264.302 128.825C263.991 127.961 263.643 127.197 263.263 126.538C263.611 127.787 263.902 128.979 264.149 130.123C264.355 131.092 264.52 132.07 264.642 133.056C264.763 134.042 264.739 134.814 264.565 135.367C264.529 135.335 264.505 135.299 264.488 135.262C264.472 135.23 264.444 135.194 264.411 135.157L264.306 135.052C264.201 135.258 264.08 135.432 263.942 135.574C263.837 135.711 263.736 135.844 263.631 135.961C263.526 136.083 263.441 136.143 263.372 136.143C263.303 136.176 263.198 136.204 263.06 136.22C262.923 136.236 262.765 136.264 262.591 136.297C262.417 136.329 262.227 136.382 262.021 136.454L261.552 135.933C261.03 133.893 260.233 131.977 259.161 130.195C258.085 128.413 256.977 126.793 255.833 125.338C254.898 125.476 254.029 125.564 253.232 125.597C252.435 125.629 251.759 125.649 251.205 125.649H250.894C250.825 126.445 250.773 127.173 250.736 127.831C250.7 128.49 250.667 129.06 250.631 129.545C250.594 130.098 250.562 130.583 250.526 130.999C250.457 131.137 250.368 131.278 250.267 131.416C250.198 131.553 250.109 131.711 250.008 131.884C249.903 132.058 249.782 132.248 249.644 132.454C249.576 132.591 249.478 132.765 249.357 132.971C249.236 133.177 249.123 133.404 249.017 133.646C248.88 133.925 248.738 134.216 248.601 134.531C248.495 134.567 248.374 134.616 248.236 134.689C247.994 134.826 247.784 135 247.614 135.206C247.581 135.275 247.545 135.355 247.509 135.44C247.476 135.529 247.424 135.638 247.351 135.78C247.282 135.917 247.229 136.075 247.197 136.248L246.781 136.196L246.158 137.182L245.951 137.077C245.814 137.008 245.725 136.972 245.692 136.972C245.555 137.04 245.441 137.17 245.353 137.36C245.268 137.549 245.17 137.646 245.065 137.646C245.029 137.44 244.997 136.919 244.96 136.087C244.924 135.254 244.883 134.216 244.831 132.971C244.778 131.727 244.726 130.316 244.673 128.741C244.62 127.165 244.576 125.512 244.544 123.782C243.747 123.298 243.019 122.639 242.36 121.811C241.7 120.978 241.179 119.96 240.798 118.748C240.762 118.643 240.701 118.348 240.616 117.863C240.531 117.378 240.519 116.962 240.592 116.618C240.661 116.966 240.758 117.337 240.879 117.733C241.001 118.133 241.13 118.513 241.272 118.877C241.409 119.241 241.559 119.56 241.712 119.839C241.87 120.117 242.016 120.307 242.153 120.408C241.668 119.406 241.336 118.461 241.166 117.576C240.992 116.695 240.976 115.959 241.114 115.369C241.389 116.234 242.481 117.05 244.39 117.81C244.321 116.081 244.244 114.4 244.155 112.771C244.066 111.143 243.989 109.619 243.921 108.201C242.918 108.339 241.858 108.549 240.75 108.823C240.333 108.686 239.937 108.33 239.553 107.761C239.173 107.191 238.885 106.557 238.695 105.866C238.505 105.175 238.444 104.484 238.513 103.789C238.582 103.098 238.844 102.544 239.293 102.128C239.536 101.922 240.151 101.651 241.138 101.324C242.125 100.996 243.363 100.693 244.855 100.414C246.343 100.14 248.002 99.9296 249.818 99.7922C251.638 99.6548 253.475 99.6629 255.327 99.8164C257.18 99.974 258.991 100.318 260.759 100.855C262.527 101.392 264.088 102.205 265.439 103.296C266.79 104.387 267.882 105.789 268.715 107.502C269.548 109.219 269.949 111.325 269.912 113.818ZM265.855 112.363C265.892 111.636 265.605 110.945 264.998 110.286C264.391 109.628 263.481 109.066 262.268 108.597C261.054 108.128 259.554 107.777 257.77 107.534C255.982 107.292 253.932 107.223 251.61 107.328C251.642 107.607 251.662 107.89 251.662 108.185C251.662 108.48 251.662 108.799 251.662 109.147C251.63 110.807 251.578 112.48 251.509 114.157C251.44 115.838 251.351 117.491 251.25 119.115C252.807 119.115 254.437 118.917 256.136 118.517C257.831 118.121 259.392 117.608 260.812 116.986C262.231 116.364 263.412 115.652 264.347 114.856C265.285 114.06 265.787 113.228 265.855 112.363Z" fill="white"/>
<path d="M69.5963 171.214C70.5832 174.826 70.7733 178.277 70.1706 181.562C69.568 184.847 68.3627 187.724 66.5547 190.185C64.7467 192.65 62.4007 194.61 59.5249 196.06C56.6491 197.511 53.3972 198.238 49.7812 198.238C46.9863 198.238 44.244 197.717 41.5582 196.679C38.8725 195.64 36.474 194.036 34.3627 191.874C32.2513 189.712 30.5647 186.989 29.3067 183.699C28.0448 180.414 27.4987 176.527 27.6605 172.034C27.8264 166.777 28.8254 162.271 30.6617 158.521C32.498 154.771 34.7307 151.688 37.3639 149.28C39.997 146.872 42.8323 145.09 45.874 143.938C48.9156 142.786 51.7105 142.172 54.2627 142.091C56.815 142.011 58.9344 142.419 60.6372 143.324C62.336 144.229 63.1571 145.554 63.1045 147.308C63.1045 148.242 62.9832 149.24 62.7365 150.306C62.4897 151.373 62.1621 152.416 61.7495 153.426C61.337 154.44 60.8556 155.329 60.3096 156.097C59.7595 156.865 59.1569 157.386 58.5016 157.656C56.3094 156.562 54.198 155.943 52.1716 155.81C50.1412 155.673 48.2361 155.891 46.4564 156.469C44.6727 157.042 43.0426 157.935 41.5623 159.14C40.0819 160.344 38.8078 161.701 37.74 163.205C36.6722 164.712 35.8349 166.34 35.2323 168.094C34.6296 169.848 34.2979 171.573 34.2453 173.27C34.1888 174.583 34.5204 175.97 35.2323 177.42C35.9442 178.871 36.9715 180.212 38.3144 181.445C39.6572 182.677 41.2468 183.703 43.0831 184.524C44.9194 185.344 46.962 185.756 49.2108 185.756C51.8399 185.756 54.2789 185.195 56.5278 184.072C58.7767 182.948 60.7343 181.607 62.4088 180.047C64.0793 178.487 65.3939 176.87 66.3565 175.197C67.3151 173.529 67.7964 172.171 67.7964 171.133C67.7964 170.365 67.8935 169.941 68.0836 169.86C68.2737 169.779 68.48 169.848 68.6984 170.066C68.9087 170.284 69.2121 170.668 69.5963 171.214Z" fill="white"/>
<path d="M110.626 144.189C111.01 145.34 111.091 146.872 110.873 148.791C110.655 150.706 110.323 153.418 109.886 156.925C109.283 161.362 108.842 165.552 108.571 169.496C108.296 173.44 108.106 176.972 107.997 180.091C107.831 183.708 107.779 187.074 107.831 190.193L107.504 191.013L107.01 190.933L106.517 193.478L105.942 193.398L105.368 193.232L104.215 198.242L103.309 197.503L102.896 198.242L101.91 198.323L101.744 198.982C101.635 199.418 101.497 199.641 101.331 199.641C101.222 199.693 101.028 199.722 100.757 199.722C99.8224 197.422 99.0704 194.723 98.4959 191.627C97.9214 188.537 97.4684 185.207 97.1408 181.647C96.8133 181.865 96.4536 182.031 96.073 182.14C95.252 182.14 94.2653 182.209 93.1122 182.346C91.9597 182.483 90.7301 182.661 89.4117 182.879C88.0969 183.097 86.7663 183.32 85.4235 183.538C84.0806 183.756 82.8347 183.978 81.6821 184.196C81.573 185.13 81.5041 185.95 81.4755 186.661C81.4474 187.373 81.4071 188.003 81.3546 188.552C81.298 189.155 81.2735 189.7 81.2735 190.193L80.699 189.454L80.2867 191.587L79.2995 191.834L78.2316 194.957L75.8455 196.436L74.446 198.408L73.7058 197.915L73.0465 200.133C72.9373 200.299 72.7997 200.461 72.6339 200.626C72.3063 200.954 72.0839 201.12 71.9746 201.12C71.918 200.679 71.8655 199.641 71.8088 197.996C71.7522 196.351 71.6874 194.315 71.6025 191.874C71.5216 189.438 71.4488 186.686 71.3962 183.619C71.3396 180.552 71.2749 177.388 71.1899 174.131C71.1091 170.874 71.012 167.613 70.9028 164.356C70.7936 161.099 70.6561 158.044 70.4902 155.195C70.3244 152.347 70.1464 149.813 69.9563 147.599C69.7662 145.381 69.5599 143.671 69.3415 142.463C69.2889 142.297 69.3537 142.067 69.5478 141.764C69.7419 141.465 70.0534 141.259 70.4943 141.15C71.0969 140.984 71.8371 140.823 72.7148 140.657C73.5925 140.491 74.5228 140.439 75.5097 140.491C76.4964 140.548 77.4714 140.794 78.4301 141.231C79.3888 141.671 80.25 142.378 81.0189 143.364C81.7872 144.35 82.3735 145.663 82.7862 147.308C83.199 148.953 83.3724 151.034 83.3199 153.551C83.2107 156.727 83.0857 159.948 82.952 163.205C82.8143 166.466 82.6648 169.601 82.499 172.612C84.8005 172.337 87.1709 172.187 89.6097 172.159C92.0485 172.131 94.3663 172.228 96.5587 172.446C96.3929 169.217 96.324 166.025 96.352 162.877C96.3806 159.729 96.4332 156.8 96.5179 154.088C96.599 151.377 96.7367 148.953 96.9306 146.819C97.1209 144.682 97.2985 143.041 97.4648 141.889C98.3423 141.505 99.4668 141.231 100.834 141.069C102.205 140.903 103.56 140.891 104.903 141.029C106.245 141.166 107.451 141.481 108.523 141.974C109.599 142.463 110.298 143.203 110.626 144.189Z" fill="white"/>
<path d="M148.533 190.108C148.533 190.274 148.602 190.561 148.739 190.969C148.877 191.381 149.014 191.805 149.152 192.242C149.289 192.683 149.427 193.103 149.564 193.515C149.702 193.927 149.771 194.186 149.771 194.295C149.714 194.897 149.633 195.402 149.524 195.814C149.415 196.226 149.306 196.594 149.196 196.921C149.087 197.139 148.909 197.317 148.662 197.454C148.416 197.592 148.238 197.717 148.129 197.822C148.019 197.988 147.975 198.109 148.007 198.19C148.036 198.27 147.995 198.368 147.886 198.477C147.777 198.586 147.639 198.666 147.474 198.723C147.308 198.776 147.17 198.861 147.061 198.97C146.786 199.079 146.486 199.135 146.155 199.135H145.742C144.864 199.135 143.687 198.028 142.207 195.81C140.727 193.591 139.137 190.674 137.438 187.061C137.163 187.171 136.876 187.28 136.577 187.389C136.274 187.498 135.962 187.607 135.63 187.716C134.696 187.607 133.491 187.595 132.01 187.676C130.53 187.757 128.94 187.882 127.242 188.044C125.543 188.209 123.828 188.411 122.101 188.658C120.374 188.904 118.825 189.11 117.454 189.272C116.519 191.078 115.549 192.872 114.533 194.65C113.518 196.432 112.462 198.198 111.366 199.947C111.147 200.057 111.01 199.947 110.954 199.62C110.897 199.293 110.735 199.018 110.46 198.8C110.351 198.691 110.157 198.703 109.886 198.84C109.611 198.978 109.392 198.962 109.227 198.8C109.17 198.743 109.117 198.566 109.061 198.267C109.004 197.968 108.952 197.677 108.895 197.406L108.729 196.255C108.51 196.255 108.288 196.174 108.069 196.008C107.629 195.79 107.33 195.406 107.164 194.856C107.107 194.747 107.095 194.541 107.123 194.242C107.152 193.943 107.192 193.571 107.244 193.135C107.297 192.698 107.354 192.177 107.41 191.575C107.244 191.793 107.083 191.959 106.917 192.068C106.589 192.286 106.395 192.286 106.342 192.068C106.233 191.522 106.164 190.989 106.136 190.468C106.108 189.946 106.149 189.47 106.258 189.034C106.642 187.882 107.422 185.789 108.6 182.75C109.777 179.711 111.051 176.083 112.421 171.864C113.793 167.646 115.067 162.978 116.244 157.859C117.421 152.739 118.202 147.522 118.586 142.209C121.874 141.772 124.519 141.623 126.521 141.756C128.524 141.893 130.016 142.265 131.003 142.863C132.593 142.811 134.033 143.098 135.319 143.724C136.605 144.354 137.362 145.57 137.58 147.381C137.746 148.86 138.005 150.9 138.361 153.503C138.716 156.105 139.307 159.212 140.128 162.825C140.949 166.437 142.09 170.547 143.542 175.145C144.994 179.748 146.927 184.811 149.338 190.342C149.39 190.561 149.379 190.646 149.298 190.589C149.217 190.537 149.104 190.44 148.97 190.302C148.832 190.169 148.723 190.055 148.642 189.975C148.561 189.894 148.533 189.943 148.533 190.108ZM122.715 177.949C124.471 177.897 126.263 177.909 128.103 177.99C129.939 178.071 131.735 178.196 133.491 178.358C132.504 176.006 131.545 173.606 130.611 171.169C129.677 168.732 128.803 166.28 127.982 163.815C127.104 166.389 126.238 168.837 125.393 171.169C124.536 173.501 123.646 175.759 122.715 177.949Z" fill="white"/>
<path d="M186.934 150.347C186.55 157.301 186.303 163.217 186.193 168.09C186.08 172.963 186.072 177.044 186.153 180.33C186.234 183.615 186.359 186.233 186.521 188.177C186.683 190.12 186.837 191.656 186.974 192.775C187.108 193.899 187.205 194.719 187.261 195.24C187.314 195.761 187.29 196.214 187.181 196.594C186.962 197.144 186.566 197.689 185.987 198.238C185.409 198.788 184.726 199.253 183.933 199.636C183.136 200.02 182.286 200.251 181.384 200.336C180.482 200.42 179.601 200.295 178.751 199.968C177.902 199.641 177.121 199.022 176.409 198.121C175.697 197.216 175.147 195.972 174.763 194.383C173.339 192.193 171.916 189.813 170.488 187.235C169.06 184.661 167.653 182.018 166.253 179.307C164.854 176.596 163.482 173.86 162.139 171.092C160.796 168.328 159.466 165.657 158.152 163.083C157.877 166.644 157.602 170.066 157.33 173.351C157.055 176.636 156.78 179.57 156.509 182.14C156.234 185.15 155.959 187.946 155.688 190.516L155.195 190.27L153.14 194.626L151.906 195.285L150.919 198.161L149.933 197.257L148.784 200.295H148.209C148.043 200.295 147.882 200.324 147.716 200.376C147.55 200.429 147.413 200.485 147.304 200.542C147.029 200.707 146.701 201.035 146.316 201.528C146.26 201.087 146.219 199.992 146.195 198.242C146.167 196.489 146.155 194.299 146.155 191.672C146.155 189.046 146.155 186.1 146.155 182.843C146.155 179.586 146.138 176.244 146.114 172.822C146.086 169.399 146.058 166.005 146.033 162.635C146.005 159.265 145.936 156.145 145.827 153.268C145.718 150.395 145.58 147.914 145.414 145.833C145.248 143.752 145.059 142.245 144.84 141.316C145.115 141.206 145.414 141.097 145.746 140.988C146.406 140.77 147.227 140.633 148.213 140.576C149.362 140.083 150.584 139.74 151.874 139.55C153.16 139.36 154.394 139.4 155.575 139.671C156.752 139.946 157.836 140.451 158.823 141.19C159.81 141.93 160.55 142.984 161.043 144.354C162.03 147.26 163.127 150.229 164.332 153.268C165.537 156.307 166.759 159.293 167.992 162.223C169.226 165.152 170.419 167.944 171.568 170.603C172.72 173.258 173.76 175.602 174.694 177.626C174.969 173.739 175.297 169.686 175.681 165.468C176.065 161.253 176.49 157.24 176.955 153.434C177.42 149.627 177.874 146.245 178.31 143.287C178.747 140.33 179.16 138.168 179.544 136.798C179.653 136.907 179.75 137.263 179.831 137.865C179.912 138.467 180.009 138.822 180.118 138.931C180.228 139.041 180.337 138.879 180.446 138.439C180.555 138.002 180.664 137.836 180.774 137.946C180.83 138.002 180.911 138.192 181.02 138.519C181.13 138.847 181.227 139.206 181.308 139.586C181.388 139.97 181.485 140.338 181.594 140.693C181.704 141.049 181.785 141.283 181.841 141.392C182.007 141.558 182.307 141.639 182.747 141.639C182.966 141.639 183.16 141.611 183.322 141.558C183.759 142.378 184.171 143.227 184.556 144.104C184.883 144.871 185.239 145.72 185.623 146.649C186.004 147.583 186.363 148.541 186.691 149.527C186.796 149.854 186.881 150.128 186.934 150.347Z" fill="white"/>
<path d="M228.462 175.157C228.789 178.333 228.514 181.32 227.641 184.112C226.763 186.904 225.404 189.328 223.572 191.381C221.735 193.434 219.475 195.066 216.789 196.27C214.103 197.475 211.142 198.077 207.911 198.077C205.116 198.077 202.374 197.555 199.688 196.517C197.002 195.478 194.603 193.874 192.492 191.713C190.381 189.55 188.694 186.827 187.436 183.538C186.174 180.253 185.628 176.365 185.79 171.872C185.956 166.615 186.955 162.11 188.791 158.36C190.628 154.61 192.86 151.527 195.493 149.118C198.126 146.71 200.962 144.928 204.003 143.776C207.045 142.625 209.844 142.011 212.388 141.93C214.936 141.849 217.06 142.257 218.763 143.162C220.461 144.067 221.282 145.393 221.23 147.146C221.23 148.08 221.109 149.078 220.862 150.145C220.615 151.212 220.287 152.254 219.875 153.264C219.462 154.279 218.985 155.167 218.435 155.935C217.885 156.703 217.282 157.224 216.627 157.495C214.435 156.4 212.324 155.782 210.297 155.648C208.266 155.511 206.361 155.729 204.582 156.307C202.798 156.881 201.168 157.774 199.688 158.978C198.207 160.182 196.933 161.54 195.865 163.043C194.798 164.55 193.96 166.179 193.358 167.932C192.755 169.686 192.423 171.411 192.371 173.109C192.314 174.422 192.646 175.808 193.358 177.258C194.069 178.709 195.097 180.051 196.44 181.283C197.783 182.515 199.372 183.542 201.208 184.362C203.045 185.183 205.087 185.595 207.336 185.595C209.035 185.595 210.677 185.336 212.271 184.815C213.86 184.294 215.341 183.623 216.712 182.802C218.083 181.982 219.317 181.049 220.413 180.01C221.509 178.972 222.467 177.905 223.292 176.806C221.812 176.697 220.126 176.559 218.237 176.394C216.348 176.228 214.564 176.067 212.89 175.901C211.215 175.735 209.791 175.602 208.614 175.489C207.433 175.379 206.766 175.323 206.6 175.323C204.901 174.83 203.336 173.884 201.912 172.49C200.484 171.096 199.255 169.739 198.211 168.426C198.102 168.316 198.964 168.082 200.8 167.726C202.636 167.37 205.419 166.918 209.148 166.372C207.943 166.32 206.64 166.332 205.241 166.413C203.841 166.494 202.555 166.591 201.374 166.7C200.193 166.809 199.194 166.918 198.373 167.027C197.552 167.136 197.111 167.193 197.059 167.193C196.456 167.027 196.124 166.809 196.072 166.534C197.443 166.368 199.348 166.11 201.787 165.754C204.226 165.399 206.814 165.072 209.557 164.768C212.299 164.469 214.985 164.247 217.614 164.11C220.247 163.972 222.467 164.017 224.276 164.231C225.097 164.34 225.809 164.805 226.415 165.629C227.018 166.449 227.495 167.435 227.855 168.587C228.211 169.739 228.441 170.914 228.555 172.118C228.652 173.323 228.624 174.333 228.462 175.157Z" fill="white"/>
<path d="M239.394 183.785C242.189 182.907 245.162 182.059 248.317 181.239C251.468 180.418 254.635 179.731 257.814 179.186C260.993 178.641 264.063 178.297 267.024 178.159C269.985 178.026 272.642 178.176 275 178.612C275 178.778 274.919 178.968 274.754 179.186C274.588 179.404 274.397 179.626 274.179 179.845C273.961 180.063 273.714 180.337 273.439 180.665L273.027 181.651L269.904 183.13L272.205 183.376C271.764 183.542 271.328 183.732 270.891 183.95C270.507 184.116 270.11 184.318 269.697 184.564C269.285 184.811 268.917 185.07 268.589 185.344C267.878 185.89 267.356 186.411 267.028 186.904C266.7 187.397 266.26 187.753 265.713 187.971C265.495 187.971 264.342 188.217 262.259 188.71C260.176 189.203 257.503 189.942 254.243 190.929C250.983 191.914 247.31 193.147 243.225 194.626C239.14 196.105 235.042 197.859 230.933 199.883C230.273 200.21 229.562 199.883 228.793 198.897C228.024 197.911 227.394 196.719 226.9 195.325C226.407 193.927 226.176 192.533 226.2 191.135C226.229 189.736 226.763 188.767 227.802 188.221C228.187 188.003 228.761 187.757 229.53 187.482C229.53 185.126 229.541 182.528 229.57 179.679C229.598 176.834 229.61 173.929 229.61 170.971C229.61 168.013 229.594 165.083 229.57 162.182C229.541 159.281 229.489 156.582 229.404 154.092C229.323 151.6 229.197 149.426 229.036 147.563C228.87 145.7 228.68 144.334 228.462 143.453C229.064 143.287 229.723 143.098 230.435 142.879C231.038 142.77 231.738 142.649 232.531 142.512C233.323 142.374 234.132 142.362 234.957 142.471C237.149 142.196 239.835 142.007 243.014 141.897C246.193 141.788 249.401 141.72 252.637 141.691C255.869 141.663 258.886 141.679 261.681 141.732C264.476 141.788 266.535 141.813 267.849 141.813C267.792 141.978 267.768 142.168 267.768 142.386C267.768 142.605 267.768 142.851 267.768 143.126V143.946C267.441 144.055 267.137 144.221 266.862 144.439C266.587 144.605 266.312 144.795 266.041 145.013C265.766 145.231 265.491 145.478 265.22 145.752C265.107 145.861 264.957 145.987 264.767 146.12C264.573 146.257 264.37 146.407 264.152 146.573C263.934 146.791 263.659 146.985 263.331 147.146L264.978 147.227L262.263 148.625L262.183 149.611C261.58 149.886 261.002 150.133 260.455 150.351C260.014 150.569 259.594 150.747 259.181 150.884C258.769 151.021 258.51 151.118 258.4 151.171C258.291 151.171 257.729 151.252 256.714 151.418C255.699 151.583 254.441 151.785 252.932 152.032C251.423 152.278 249.737 152.553 247.876 152.852C246.012 153.155 244.175 153.442 242.367 153.713C242.367 154.04 242.351 154.371 242.327 154.699C242.298 155.026 242.286 155.358 242.286 155.685C242.23 156.78 242.177 157.822 242.12 158.808C242.068 159.794 241.983 160.78 241.874 161.766C243.682 161.548 245.559 161.354 247.508 161.192C249.454 161.027 251.359 160.877 253.223 160.74C255.084 160.602 256.827 160.521 258.445 160.493C260.063 160.465 261.418 160.453 262.514 160.453C262.514 160.727 262.405 161.083 262.187 161.519C262.077 161.738 261.968 161.96 261.859 162.178L261.531 164.15L258.983 165.548L260.051 165.629L257.337 167.355L257.418 168.175L254.457 168.914L253.883 169.9C253.333 170.175 252.787 170.422 252.236 170.64C251.795 170.858 251.342 171.064 250.882 171.254C250.416 171.448 250.044 171.597 249.773 171.706C249.66 171.706 249.32 171.775 248.746 171.912C248.171 172.05 247.443 172.24 246.566 172.486C245.688 172.733 244.741 172.996 243.731 173.266C242.715 173.541 241.688 173.788 240.648 174.006C240.43 176.196 240.208 178.115 239.989 179.756C239.75 181.4 239.56 182.742 239.394 183.785Z" fill="white"/>
</g>
<defs>
<clipPath id="clip0_23_900">
<rect width="250" height="105" fill="white" transform="translate(25 97)"/>
</clipPath>
</defs>
</svg>
